<svg width="16" height="16" viewBox="0 0 16 16" fill="none" xmlns="http://www.w3.org/2000/svg">
<path d="M15.66 8.1813C15.66 7.65464 15.6133 7.15464 15.5333 6.66797H8V9.67464H12.3133C12.12 10.6613 11.5533 11.4946 10.7133 12.0613V14.0613H13.2867C14.7933 12.668 15.66 10.6146 15.66 8.1813Z" fill="#4285F4"/>
<path d="M8.00035 16.0007C10.1604 16.0007 11.967 15.2807 13.287 14.0607L10.7137 12.0607C9.99368 12.5407 9.08035 12.834 8.00035 12.834C5.91369 12.834 4.14702 11.4273 3.51369 9.52734H0.860352V11.5873C2.17368 14.2007 4.87369 16.0007 8.00035 16.0007Z" fill="#34A853"/>
<path d="M3.51333 9.52739C3.34667 9.04739 3.26 8.53406 3.26 8.00073C3.26 7.46739 3.35333 6.95406 3.51333 6.47406V4.41406H0.859999C0.313333 5.49406 0 6.70739 0 8.00073C0 9.29406 0.313333 10.5074 0.859999 11.5874L3.51333 9.52739Z" fill="#FBBC05"/>
<path d="M8.00035 3.16667C9.18035 3.16667 10.2337 3.57334 11.067 4.36667L13.347 2.08667C11.967 0.793334 10.1604 0 8.00035 0C4.87369 0 2.17368 1.8 0.860352 4.41334L3.51369 6.47334C4.14702 4.57334 5.91369 3.16667 8.00035 3.16667Z" fill="#EA4335"/>
</svg>
