<svg width="16" height="24" viewBox="0 0 16 24" fill="none" xmlns="http://www.w3.org/2000/svg">
<g id="Asset 7" clip-path="url(#clip0_413_475)">
<g id="Layer 1">
<g id="Group">
<path id="Vector" d="M0.790704 23.5508C0.847621 23.7784 0.948807 23.418 0.872917 23.6962C0.797028 23.6709 0.740111 23.6267 0.790704 23.5508Z" fill="#C16A5E"/>
<path id="Vector_2" d="M14.6279 22.1975C14.1346 21.4702 14.59 20.4774 14.2168 19.6868C14.1915 19.592 14.4824 19.6868 14.4002 19.4781C13.9575 18.7256 14.0208 17.505 14.0208 16.4805L14.1093 16.5185C14.1093 16.3224 13.8121 16.1706 13.7805 15.9809C13.8247 15.9619 13.869 16.0189 13.9196 15.9556C13.7615 15.9556 13.7362 15.6394 13.6034 15.6015C13.635 15.5066 13.7425 15.475 13.7678 15.3548L13.5654 15.3106C13.0785 15.1841 13.2935 14.5959 12.8951 14.324C12.9394 14.324 12.99 14.343 13.0026 14.2987C12.4651 13.8181 12.016 13.1224 11.4469 12.6291C11.5101 12.6102 11.6113 12.5596 11.6303 12.4837C11.4722 12.5785 11.2824 12.4394 11.118 12.3193C11.1813 12.1295 10.7575 12.1928 10.6627 11.9651L10.707 11.9461C10.4477 11.9651 10.5931 11.6868 10.3338 11.7627L10.3465 11.5857C10.1188 11.7311 10.2516 11.32 10.0556 11.32L10.0239 11.3643C9.87849 11.3264 9.91011 11.1809 9.78995 11.1303L9.8026 11.0987C9.53699 10.9596 9.49272 10.7445 9.37256 10.9026C9.39153 10.7129 9.63818 11.0228 9.66347 10.7382C8.7781 10.2829 8.00023 9.66313 7.21604 9.06233C7.1781 8.92953 7.13383 8.86629 7.16545 8.7904C7.06426 8.7651 6.84924 8.59435 6.71644 8.61332C6.74173 8.63229 6.72908 8.49316 6.69746 8.45522C6.60893 8.28447 6.40655 8.49949 6.31169 8.30344C6.40655 8.31609 6.4698 8.27814 6.50142 8.20858C6.27375 8.22123 6.12197 8.05048 5.93857 7.95562C5.98284 7.95562 6.03343 7.96826 6.07138 7.91767C5.78679 7.8987 5.81209 7.62044 5.60339 7.5572L5.7362 7.52558C5.62869 7.20937 5.49588 7.62676 5.37572 7.3738C5.44529 7.39909 5.46426 7.3485 5.50853 7.3232C5.17968 7.28526 4.98363 6.91846 4.78126 6.74771C4.80023 6.74771 4.82553 6.72874 4.82553 6.72874C4.64845 6.51372 4.55991 6.23546 4.35122 5.99514C4.35122 5.87498 4.61683 5.91293 4.48403 5.66629C4.25636 5.76115 4.24371 5.22992 4.04134 5.46392C3.99707 5.1983 4.04134 4.78091 3.95912 4.61648C4.05399 4.72399 4.23738 4.49 4.26901 4.68605C4.31327 4.63546 4.35122 4.58486 4.40181 4.53427C4.49035 4.55324 4.37652 4.67973 4.49667 4.63546C4.4777 4.54692 4.39549 4.26866 4.44608 4.18644C4.32592 4.00305 4.08561 3.76273 4.1615 3.44652C4.20576 3.61727 4.43343 3.44652 4.43976 3.55403C4.33225 3.37063 4.26268 3.18724 4.18047 2.97854C4.22474 2.87735 4.35754 3.03546 4.37652 2.87103C4.3196 2.85206 4.31327 2.76984 4.2943 2.70028C4.33225 2.67498 4.49035 2.27024 4.71169 2.37143C4.81288 2.3904 4.64845 2.53585 4.78758 2.49158C4.90142 2.3398 4.83818 2.27656 4.96466 2.13111L4.98995 2.15008C5.09114 2.07419 5.17968 1.80858 4.98995 1.8149C4.92039 1.87814 5.11644 1.88447 4.97098 1.93506C4.93936 1.77696 5.07849 1.57459 5.24292 1.44178C5.2113 1.51767 5.26189 1.55561 5.28086 1.62518C5.36308 1.30897 5.5781 1.08131 5.81209 0.847315C5.7615 0.752453 5.81209 1.08131 5.74885 1.05601C6.14727 0.973797 6.38758 0.45522 6.79865 0.56273C6.75438 0.600674 6.72276 0.423599 6.73541 0.45522C6.93146 0.404627 6.96308 0.569054 7.06426 0.474192C7.10221 0.56273 7.20339 0.404627 7.32987 0.354034C7.38047 0.271821 7.37414 0.391979 7.26663 0.423599C7.41209 0.290793 8.13936 0.0504766 8.55675 0.208579C8.5441 0.145338 8.82236 -0.0127645 8.91723 0.00620786L8.86663 0.145338C8.94885 0.2402 9.18916 0.157986 9.18916 0.284469C9.40418 0.120042 8.4113 0.373006 8.68956 0.259172C8.7528 0.37933 9.08165 0.0568007 9.01209 0.246524C9.19549 0.259172 9.40418 0.120042 9.56229 0.284469C9.51169 0.252848 9.37889 0.45522 9.53067 0.474192C9.78995 0.499489 9.6192 0.417275 9.83422 0.410951L9.97968 0.385655C10.0239 0.252848 10.2073 0.461544 10.1504 0.284469C10.1504 0.404627 10.5488 0.322413 10.454 0.537433L10.3654 0.70186C10.473 0.720832 10.5994 0.575378 10.7133 0.524785C10.7196 0.543757 10.7386 0.588026 10.7259 0.619647C10.8398 0.360358 10.9726 0.733481 11.1813 0.588026C11.371 0.771425 11.7441 0.847315 11.7631 1.06233C11.9654 1.06233 12.1678 1.06866 12.3196 1.23309C12.269 1.23309 12.2121 1.20779 12.1741 1.25838C12.2437 1.39751 12.3133 1.34692 12.4398 1.37854C12.3955 1.39751 12.5662 1.66945 12.6232 1.82755C12.8129 1.87182 12.8635 1.71372 12.933 1.65048C12.8951 1.96668 13.4579 1.85285 13.4453 2.18803C13.3694 2.16905 13.1544 2.10581 13.2176 2.26392C13.1481 2.56747 13.5971 2.34613 13.6919 2.63704L13.8121 2.43467C13.7931 2.61174 14.1789 2.65601 13.9828 2.78882C14.1093 2.80779 14.1283 3.08605 14.2864 2.92795C14.4192 3.38961 15.0073 3.83229 14.7607 4.26866C14.8176 4.31293 14.8429 4.47735 14.9378 4.40146C15.0137 4.24969 14.7986 4.29395 14.8619 4.22439C14.8935 4.27498 14.9504 4.26233 14.982 4.25601C14.9884 4.41411 15.02 4.52162 14.7923 4.46471C14.7797 4.79356 15.2666 4.64178 15.3046 5.07814C15.2097 5.07814 15.1844 5.12241 15.2224 5.23625L15.4247 5.43862C15.4247 5.7232 15.235 5.62202 15.0832 5.64731C15.1212 5.78012 15.1338 5.95087 15.254 6.01411L15.0516 6.19119C15.1971 6.06471 15.1465 6.30502 15.1844 6.37459L15.1465 6.30502C15.0769 6.33032 15.1212 6.48842 15.1212 6.57696C15.2224 6.57063 15.2793 6.39988 15.3046 6.30502C15.3741 6.38091 15.3552 6.50107 15.4184 6.60858C15.2666 6.55799 15.2793 6.83625 15.2477 6.95008C15.1844 7.07656 15.3488 7.12716 15.3299 7.1651C15.254 7.15245 15.2603 7.38012 15.1781 7.24731C15.1654 7.19672 15.2793 7.1651 15.2287 7.07024C15.1465 7.14613 15.0137 7.09554 15.0706 7.29791C15.1022 7.44969 15.3805 7.35482 15.1971 7.57617C15.1844 7.49395 15.1338 7.46866 15.0959 7.39909C15.0453 7.46866 14.9884 7.5319 14.9378 7.60146L15.0643 7.66471C15.02 7.68368 15.0137 7.65838 14.9947 7.66471C15.1149 7.79119 14.8872 8.02518 15.0073 8.15166C14.9631 8.27814 14.7923 8.34139 14.7164 8.42992V8.40463C14.5773 8.48684 14.5141 8.66392 14.5077 8.82202L14.4888 8.79672C14.4319 8.85364 14.337 9.01174 14.3243 9.13822C14.1093 9.21411 13.8943 8.82834 13.8753 9.10028C13.7425 9.23309 13.8311 9.4987 13.9512 9.50502C13.6287 9.67577 13.4453 10.0995 13.0469 10.0932C13.0342 10.1691 13.0848 10.1817 13.0089 10.2639C12.5536 10.4853 12.1362 10.9279 11.6682 10.8141C11.7757 10.7066 11.6239 10.6813 11.5923 10.6054C11.5354 10.7635 11.4152 10.5359 11.4595 10.7509C11.5164 10.8647 11.5291 10.9279 11.6745 10.9216C11.4279 11.0987 10.9979 11.2378 10.8145 11.1746C10.9093 11.2062 10.8587 11.2631 10.8145 11.32C10.7765 11.124 10.5678 11.1493 10.4287 11.2631L10.4413 11.3896L10.3085 11.2947C10.2579 11.3517 10.3085 11.5604 10.1251 11.4845C10.1062 11.4402 10.0872 11.3959 10.0492 11.3706C9.91644 11.5098 9.73304 11.7248 9.54331 11.6615L9.36624 11.5161C9.29667 11.554 9.20181 11.6805 9.34094 11.7058C9.03106 11.6615 8.84766 11.6868 8.7275 11.554C8.32276 12.0283 7.63976 12.1864 7.1275 12.3066L7.11486 12.2117C6.95043 12.1675 7.08956 12.3888 6.97572 12.3509C6.9947 12.256 6.81762 12.1991 6.89351 12.06C6.66584 12.022 6.68482 12.294 6.57731 12.3698C6.59628 12.49 6.65319 12.2623 6.67849 12.4204C6.67217 12.4647 6.38758 12.4204 6.4192 12.6038C6.34964 12.5532 6.33699 12.4141 6.33699 12.3319L6.25478 12.4584C6.03343 12.3066 6.45082 11.9777 6.21051 11.788L6.10932 11.8576C5.93225 11.7185 6.34331 11.5414 6.02711 11.5857C5.92592 11.7121 5.92592 12.0094 6.05873 12.041C5.83106 12.1928 6.103 12.49 5.85003 12.5849C5.7362 12.5153 6.03976 12.471 5.93225 12.3572C5.74885 12.2687 5.72988 12.5406 5.60339 12.5406C5.74885 12.5532 5.72987 12.7619 5.67296 12.8252C5.51485 12.8062 5.67296 12.6291 5.49588 12.6987C5.51485 12.8062 5.40102 12.958 5.56545 12.9517C5.62236 13.192 5.3694 12.9833 5.37572 13.1983C5.23659 13.0845 5.3441 12.7619 5.11644 12.7999C5.22395 12.92 5.02157 13.1224 5.24292 13.2679C5.15438 13.2679 5.07849 13.1667 5.07217 13.0528C4.92039 13.0402 5.01525 13.4449 4.80023 13.211L4.8698 13.3691C4.80655 13.3501 4.74331 13.3438 4.64213 13.3121C4.55359 13.3691 4.54727 13.6979 4.38284 13.5019C4.37019 13.5398 4.19944 13.6979 4.38284 13.7611C4.55359 13.7422 4.42078 13.5588 4.62948 13.6789C4.42711 13.603 4.49667 13.8307 4.48403 13.9319L4.40814 13.8687C4.40181 13.9319 4.30695 13.9951 4.36387 14.0837C4.35122 14.0204 4.28798 13.9888 4.24371 13.9951L4.3196 14.1343C4.24371 14.3303 4.09825 13.9951 3.99707 14.1659L4.00972 13.9762C4.00972 14.0141 3.85794 13.9762 3.82632 14.0774C3.90221 14.1975 3.99707 14.343 4.05399 14.4378C4.03501 14.558 3.90221 14.3809 3.94648 14.5517L3.90221 14.343C3.88323 14.2987 3.66189 14.2797 3.57968 14.4062C3.5607 14.5137 3.63659 14.7477 3.78205 14.6655C3.7441 14.7287 3.6113 14.7604 3.56703 14.6655C3.51011 14.8299 3.69984 14.7287 3.68719 14.8932C3.57968 14.8932 3.37098 14.9754 3.20023 15.0133L3.0864 14.7604L3.02948 14.8489C2.94727 14.6339 2.87138 14.8426 2.75122 14.6718C2.68798 14.7224 2.6943 14.8362 2.70695 14.9248C3.08007 14.8868 2.95359 15.3359 3.23818 15.4117C3.18126 15.69 2.54252 15.2663 2.81446 15.7343C2.903 15.7216 3.0358 15.9366 3.0358 15.7343C2.93462 15.886 3.23818 15.9556 3.05478 16.0947C3.01051 15.905 2.73225 16.139 2.66268 15.8671C2.73857 15.9177 2.77652 15.7785 2.77019 15.7343C2.64371 15.7596 2.51723 15.6015 2.44134 15.7785C2.42237 15.8987 2.36545 16.0505 2.5109 16.0821C2.66268 16.139 2.5615 15.9113 2.68165 16.0442C2.65003 16.2718 2.40972 16.2276 2.64371 16.411C2.66901 16.2718 2.83976 16.2971 2.94094 16.3351V16.5058L2.85873 16.4426C2.70063 16.6576 3.01051 16.5754 2.90932 16.803L2.67533 16.8536C2.51723 16.7398 2.86505 16.5311 2.57414 16.4805C2.50458 16.6323 2.63738 16.7335 2.51723 16.86C2.50458 16.822 2.51723 16.7714 2.49825 16.7335C2.47296 16.7841 2.07454 16.7335 2.23264 17.0307C2.28323 17.1762 2.3275 17.0876 2.42869 17.1193C2.39074 17.3849 2.48561 17.4924 2.46663 17.6631C2.26426 17.5809 2.38442 17.9604 2.20735 17.7264C2.34648 17.6568 2.42237 17.2837 2.25161 17.1382C1.97968 17.1698 2.34015 16.9422 2.11248 16.8094C2.04924 17.0244 1.80893 16.9485 1.63818 16.9422C1.61288 16.9991 1.65715 17.0813 1.67612 17.1256C1.82157 17.1888 1.83422 17.1066 1.99233 17.1445C1.89114 17.3785 1.92276 17.6378 2.04924 17.8023C1.9607 17.8718 1.80893 17.8149 1.81525 17.7137C1.8026 18.0173 1.73304 18.3335 1.65082 18.6181C1.92276 18.4663 1.67612 18.9469 1.89746 18.8394C1.96703 18.694 2.16308 18.5864 2.26426 18.6813C2.23897 18.7698 2.15675 18.6623 2.09351 18.7003C2.21999 18.8331 1.85319 18.8647 2.05557 19.0038C2.00497 18.7256 1.75833 18.9216 1.56229 18.8457C1.65082 19.0608 1.42316 18.8204 1.40418 19.0228C1.49272 19.2378 1.56229 19.4908 1.59391 19.7121C1.39153 19.9841 1.56229 20.4268 1.56861 20.6797C1.46742 20.8125 1.24608 20.724 1.20814 20.8694C1.20814 21.0402 1.44845 20.743 1.34727 20.9959L1.303 20.9706C1.35359 21.0465 1.15754 21.4386 1.48007 21.5019L1.23343 21.426C1.21446 21.4766 1.27138 21.5145 1.29667 21.5525C1.22078 21.5525 1.14489 21.6157 1.0943 21.5398C0.929875 21.7042 1.13225 21.8687 1.14489 22.0394L1.28403 21.9256C1.40418 22.2102 1.27138 22.4125 1.33462 22.6908H1.19549L1.29035 22.8552C1.15122 22.8236 1.07533 22.9817 1.18916 23.0639L0.822365 22.6402C0.898254 22.5137 0.99944 22.7667 1.13225 22.6845C1.2524 22.6149 1.20181 22.3556 1.06268 22.3177C1.05003 22.4189 1.08165 22.4252 1.13857 22.4947C0.942523 22.539 0.948847 22.3872 0.816041 22.3113C0.828689 22.3619 0.771772 22.4442 0.828689 22.4505C0.727503 22.3493 0.708531 22.2481 0.695883 22.071C0.778096 22.1849 0.816041 22.0015 0.872958 22.0457C0.702207 22.0394 0.638966 21.875 0.683235 21.66C0.879282 21.5019 0.544104 21.2615 0.601021 21.0086C0.778096 21.1098 0.917227 21.2362 0.986792 21.3817C1.06901 21.2236 0.980468 21.211 1.06268 21.0528C0.929875 20.977 0.733827 20.9264 0.651614 20.724L0.778096 20.7113C0.714855 20.5279 0.525132 20.5216 0.563076 20.2876C0.632642 19.8829 0.657938 19.4655 0.702207 19.1556H0.828689C0.569401 18.9596 0.778096 18.5738 0.695883 18.3272C0.866634 17.9477 0.714855 17.4418 0.974144 17.2837C1.03106 16.5754 1.13225 15.9303 1.47375 15.26L1.59391 15.4497C1.51802 15.2726 1.72671 15.4117 1.75201 15.2853C1.55596 15.3611 1.65082 15.0449 1.58758 14.9058C1.86584 14.6718 1.92908 14.2228 1.986 13.9003L2.09984 13.9572C2.06189 13.5651 2.46031 13.3817 2.72592 13.1161C2.79549 13.1161 2.93462 13.1477 2.99786 13.0528C2.97889 12.7619 3.06742 12.6924 3.20023 12.3825C3.36466 12.2244 3.68719 12.0283 3.92118 11.9588C4.4524 11.2062 5.36308 10.9912 6.11565 10.5738L6.22316 10.7003C6.93146 10.1374 7.97493 10.226 8.57572 9.92874V10.1944C8.78442 10.2323 9.01209 10.0299 8.92355 9.8655C9.13857 9.89712 9.38521 9.6315 9.56229 9.80858C9.77098 9.80858 9.77731 9.63783 9.92276 9.55561C10.3212 9.55561 10.4603 9.47972 10.7828 9.3153L10.6943 9.32795C10.6753 9.39751 10.707 9.4987 10.8018 9.48605C10.903 9.37222 11.2951 9.36589 11.0548 9.1319C11.4848 9.15087 11.7757 8.63862 12.1868 8.65127C12.1172 8.59435 12.1868 8.53743 12.1805 8.46787C12.4271 8.29712 12.7813 8.2149 12.8445 7.94929C12.9077 7.94929 12.8951 8.10107 12.9836 8.01886C13.0089 7.94297 12.9077 7.94297 12.9267 7.8481C13.0216 7.62676 13.167 7.48131 13.3188 7.31688C13.4643 7.15878 13.616 6.97538 13.635 6.77301C13.6477 6.07735 13.5844 5.33111 13.186 4.66075L13.2429 4.64178C13.0848 4.58486 13.0532 4.43309 13.0153 4.28131C12.9647 4.13585 12.9077 3.99672 12.7054 4.02834C12.7117 3.94613 12.5726 3.83229 12.6927 3.78803C12.4461 3.73743 12.3955 3.23783 12.016 3.18724C12.035 3.20621 12.054 3.21253 12.0983 3.21253C11.9465 2.90265 11.6113 2.88368 11.4026 2.61174C11.4469 2.61174 11.5101 2.61807 11.5481 2.5738C11.4911 2.40305 11.156 2.64336 11.2382 2.34613C11.1686 2.31451 11.118 2.45364 11.1623 2.46629C10.5552 1.9983 9.70774 1.90977 8.98679 1.89712C8.48086 1.67577 8.98679 1.38486 8.55675 1.58724C8.52513 1.53032 8.53146 1.70107 8.52513 1.63783C8.36703 1.72004 8.25952 1.30897 8.14568 1.4734C8.2026 1.65048 8.07612 1.58091 8.08244 1.69475C7.75359 1.60621 7.64608 1.46708 7.42474 1.6568V1.55561C7.19074 1.88447 6.84292 1.87814 6.786 2.27024C6.15359 2.64336 5.69193 3.27577 5.54648 3.87656C5.40102 4.47103 5.53383 5.00858 5.88165 5.60305C6.51406 6.86787 8.17098 7.77854 9.6192 9.11925C9.8279 9.60621 9.85952 9.61886 10.3212 9.8655C10.2769 9.88447 10.2453 9.8655 10.2516 9.92241C10.4034 9.77696 10.5425 10.1374 10.707 10.0173C11.2571 10.5295 11.8137 10.9659 12.3639 11.5604C12.2627 11.4845 12.0919 11.554 12.2058 11.6489L12.4081 11.6742L12.3828 11.7311C12.4777 11.788 12.6232 11.807 12.6042 11.6805C13.3568 12.3888 13.9259 13.3248 14.2927 14.2987C14.6722 15.2726 14.8745 16.2528 15.0896 17.2015C15.1085 17.6758 15.273 18.3019 15.3741 18.7888C15.2603 20.275 15.0579 21.5335 15.2666 22.9438C15.2666 22.9438 14.7291 22.7667 14.5963 22.1849L14.6279 22.1975Z" fill="#C16A5E"/>
<path id="Vector_3" d="M0.759277 23.2726C0.860463 23.2157 0.911056 23.0513 1.05651 23.1778C0.961649 23.1968 0.854139 23.2853 0.759277 23.2726Z" fill="#C16A5E"/>
<path id="Vector_4" d="M1.82178 19.0291C1.82178 19.0291 1.87237 18.9721 1.89134 18.9658C1.89134 19.0164 1.97356 19.0733 1.91664 19.105C1.91664 19.0544 1.86605 19.0544 1.82178 19.0291Z" fill="#C16A5E"/>
<path id="Vector_5" d="M2.01758 18.011C2.10612 18.0426 2.13774 18.2703 2.13774 18.3968L2.01758 18.011Z" fill="#C16A5E"/>
<path id="Vector_6" d="M2.59326 17.1761C2.68812 17.1191 2.72607 17.1508 2.69445 17.2519C2.64385 17.2519 2.63121 17.2077 2.59326 17.1761Z" fill="#C16A5E"/>
<path id="Vector_7" d="M2.40332 17.056C2.42229 16.9801 2.48553 16.9611 2.54245 16.9358C2.46656 16.9169 2.54245 17.1192 2.40332 17.056Z" fill="#C16A5E"/>
<path id="Vector_8" d="M3.38379 15.3358C3.40276 15.2916 3.38379 15.1651 3.4913 15.1841C3.40276 15.1904 3.48497 15.4307 3.38379 15.3358Z" fill="#C16A5E"/>
<path id="Vector_9" d="M3.74414 14.5138C3.74414 14.5138 3.78841 14.4948 3.78209 14.4505C3.84533 14.4379 3.8643 14.5201 3.85165 14.558L3.74414 14.5074V14.5138Z" fill="#C16A5E"/>
<path id="Vector_10" d="M13.6289 2.3335L13.7427 2.39041L13.6669 2.44101L13.6289 2.3335Z" fill="#C16A5E"/>
<path id="Vector_11" d="M5.22404 1.22684C5.1608 1.35332 5.09756 1.22051 5.07227 1.22684C5.15448 1.14462 5.11021 1.34067 5.22404 1.22684Z" fill="#C16A5E"/>
<path id="Vector_12" d="M4.2563 5.80533L4.24365 5.77371L4.42705 5.7168L4.2563 5.80533Z" fill="#C16A5E"/>
</g>
</g>
</g>
<defs>
<clipPath id="clip0_413_475">
<rect width="14.8617" height="24" fill="white" transform="translate(0.569336)"/>
</clipPath>
</defs>
</svg>
