<svg width="41" height="20" viewBox="0 0 41 20" fill="none" xmlns="http://www.w3.org/2000/svg">
<g id="Asset 10" clip-path="url(#clip0_413_317)">
<g id="Layer 1">
<g id="Group">
<g id="Group_2">
<path id="Vector" d="M0.306479 16.3099C0.231747 16.4594 0.521332 16.4407 0.306479 16.4594C0.25043 16.366 0.222406 16.2819 0.306479 16.3099Z" fill="#C16A5E"/>
<path id="Vector_2" d="M37.7002 15.4131C36.8595 15.6373 36.8034 14.6565 36.0841 14.6658C36.0188 14.6471 36.3364 14.3669 36.1682 14.3575C35.4022 14.4603 34.9445 13.6943 34.6736 12.9563L34.767 12.8909C34.711 12.7508 34.3747 12.9563 34.2999 12.8349C34.3373 12.7788 34.3933 12.7788 34.4307 12.6761C34.2719 12.8349 34.1785 12.62 34.0384 12.7135C34.0384 12.6107 34.1505 12.4706 34.1505 12.3585L33.945 12.5173C33.4312 12.8816 33.5526 12.1903 33.1416 12.2744C33.1883 12.237 33.235 12.209 33.2537 12.153C32.6745 12.1903 32.2355 11.8073 31.731 11.6392C31.7964 11.5738 31.8992 11.4524 31.9272 11.3496C31.7591 11.5551 31.5909 11.5271 31.4508 11.4897C31.5442 11.2282 31.1145 11.5645 31.0678 11.3589L31.1145 11.3122C30.8623 11.4897 31.0585 11.0787 30.7876 11.3122L30.8436 11.088C30.5914 11.387 30.8062 10.8265 30.6194 10.9386L30.582 11.004C30.4513 11.032 30.5167 10.8452 30.4046 10.8545L30.4232 10.8078C30.199 10.7891 30.2084 10.5462 30.0589 10.8078C30.1243 10.5649 30.2831 10.8171 30.3672 10.4622C29.6386 10.3781 29.0874 9.97642 28.5082 9.64947C28.5082 9.50935 28.4802 9.4533 28.5176 9.3412C28.4335 9.35988 28.2747 9.26647 28.1439 9.36923C28.1626 9.36923 28.1813 9.21042 28.1533 9.1824C28.0972 9.02359 27.8824 9.40659 27.8263 9.2291C27.9104 9.1824 27.9758 9.10767 28.0131 9.00491C27.7983 9.15437 27.6862 9.05162 27.5367 9.06096C27.5741 9.02359 27.6208 9.01425 27.6582 8.93018C27.406 9.09832 27.4433 8.76203 27.2565 8.84611L27.3779 8.71533C27.2845 8.43508 27.1631 9.01425 27.0603 8.81808C27.1257 8.79006 27.1351 8.72467 27.1818 8.65928C26.8922 8.86479 26.696 8.65928 26.4998 8.6873C26.5185 8.66862 26.5372 8.62191 26.5372 8.62191C26.3597 8.58455 26.2289 8.4164 25.9861 8.46311C25.9487 8.36035 26.1729 8.08011 25.9674 8.07077C25.8366 8.38838 25.6124 8.07077 25.5657 8.48179C25.4349 8.36969 25.2481 8.15484 25.108 8.22957C25.2201 8.12682 25.1827 7.79987 25.3228 7.82789L25.2948 7.59435C25.3602 7.46357 25.3789 7.67843 25.4069 7.50094C25.3322 7.4916 25.0986 7.54765 25.0613 7.47292C24.8651 7.63172 24.6315 7.96801 24.426 7.94933C24.5568 7.84657 24.4914 7.56633 24.5662 7.52896L24.0991 8.08011C24.0337 8.08011 24.1645 7.80921 24.043 7.8746C24.0244 7.96801 23.9683 8.00538 23.9216 8.07077C23.9123 8.02406 23.6414 8.08011 23.6974 7.74382C23.6974 7.6037 23.8188 7.69711 23.7815 7.56633C23.66 7.53831 23.6227 7.6504 23.5012 7.63172V7.58501C23.4452 7.51962 23.2397 7.66909 23.2864 7.8746C23.3424 7.90262 23.3144 7.66909 23.3705 7.78118C23.2677 7.95867 23.1276 7.98669 23.0061 7.95867C23.0529 7.91196 23.0715 7.82789 23.1089 7.73448C22.894 7.95867 22.7072 8.02406 22.5204 8.09879C22.4924 8.2576 22.6325 7.81855 22.6512 7.91196C22.455 7.6504 22.1374 8.13616 21.9973 7.79987C22.0346 7.77184 21.9879 8.0334 21.9973 7.98669C21.8945 7.94933 21.9225 7.72513 21.8385 7.79987C21.8385 7.65974 21.7451 7.83723 21.661 7.86526C21.6143 7.95867 21.6516 7.79987 21.717 7.79052C21.5956 7.89328 21.1752 8.07077 20.951 7.85591C20.951 7.94933 20.7922 8.18286 20.7362 8.16418L20.7642 7.94933C20.7175 7.81855 20.5774 7.94933 20.5774 7.78118C20.4466 8.0334 21.0351 7.58501 20.867 7.78118C20.8296 7.6037 20.6334 8.10813 20.6801 7.81855C20.568 7.81855 20.4559 8.06143 20.3532 7.86526C20.3812 7.90262 20.4466 7.56633 20.3532 7.58501C20.1944 7.62238 20.3065 7.68777 20.1757 7.75316L20.0916 7.83723C20.0916 8.04274 19.9515 7.80921 20.0075 8.04274C19.9889 7.86526 19.7833 8.1455 19.7927 7.79987L19.8114 7.52896C19.746 7.54765 19.7086 7.81855 19.6526 7.93999C19.6432 7.91196 19.6245 7.86526 19.6245 7.81855C19.6245 8.23891 19.4657 7.79052 19.391 8.11747C19.2415 7.97735 19.036 8.11747 18.952 7.86526C18.8492 7.99604 18.7651 8.15484 18.6344 8.08011C18.653 8.04274 18.6904 8.02406 18.6904 7.93065C18.597 7.81855 18.5876 7.93065 18.5316 7.99604C18.5409 7.93065 18.3541 7.7625 18.242 7.63172C18.1486 7.77184 18.214 7.98669 18.214 8.12682C18.0645 7.73448 17.9431 8.42574 17.7749 8.08011C17.803 8.01472 17.9057 7.85591 17.803 7.77184C17.6442 7.3795 17.6442 8.09879 17.4573 7.93065L17.5507 8.2576C17.448 8.06143 17.3546 8.49113 17.3079 8.1455C17.2798 8.27628 17.1024 8.07077 17.1771 8.38838C16.8595 8.15484 16.5886 8.67796 16.299 8.13616C16.271 8.20155 16.1682 8.16418 16.2243 8.32299C16.327 8.49113 16.2803 8.17352 16.3364 8.29496C16.3083 8.31364 16.3177 8.40706 16.327 8.44442C16.2336 8.38838 16.1589 8.37903 16.1776 8.08945C15.944 7.93065 16.1215 8.67796 15.8693 8.61257C15.8413 8.47245 15.8132 8.43508 15.7572 8.47245L15.6918 8.73401C15.533 8.71533 15.5237 8.45377 15.4583 8.22957C15.3929 8.28562 15.2901 8.3043 15.2995 8.48179L15.122 8.22957C15.2528 8.4164 15.094 8.38838 15.0753 8.45377L15.094 8.38838C15.0566 8.29496 14.9819 8.38838 14.9445 8.42574C15.0005 8.55652 15.1033 8.58455 15.1687 8.61257C15.1593 8.72467 15.094 8.71533 15.0753 8.84611C15.0286 8.62191 14.8978 8.73401 14.8324 8.72467C14.7483 8.69664 14.8137 8.94886 14.795 8.93952C14.7577 8.82742 14.6736 8.9582 14.6829 8.78072C14.6923 8.73401 14.7763 8.87413 14.7857 8.76203C14.711 8.69664 14.6549 8.49113 14.6082 8.66862C14.5708 8.7994 14.767 9.08898 14.5802 8.99557C14.5989 8.93018 14.5802 8.83676 14.5802 8.75269L14.412 8.6873L14.4681 8.88347C14.4681 8.88347 14.4401 8.81808 14.4214 8.79006C14.4494 9.01425 14.2439 8.92084 14.2999 9.16371C14.2439 9.21042 14.1224 9.0703 14.0477 9.0703V9.05162C13.9356 8.9582 13.8609 9.0703 13.8515 9.2291V9.1824C13.7955 9.1824 13.7114 9.24779 13.7021 9.38791C13.5433 9.28515 13.3845 8.66862 13.3658 8.9582C13.263 9.00491 13.3378 9.37857 13.4312 9.48132C13.1883 9.42527 13.1136 9.81761 12.824 9.59342C12.824 9.67749 12.8707 9.7242 12.824 9.78959C12.5157 9.82696 12.3663 10.2567 11.9833 9.9951C12.0206 9.883 11.8992 9.80827 11.8431 9.69618C11.8618 9.89235 11.6843 9.55605 11.7964 9.85498C11.8805 10.0231 11.9179 10.1072 12.0206 10.1446C11.9085 10.3034 11.6656 10.4248 11.5068 10.3127C11.5909 10.3688 11.5816 10.4341 11.5722 10.5089C11.4508 10.238 11.3107 10.2567 11.2733 10.3968L11.348 10.5649L11.2079 10.4248C11.2079 10.4902 11.348 10.7798 11.1799 10.6677C11.1425 10.6116 11.1052 10.5462 11.0678 10.5089C11.0491 10.6864 11.0398 10.976 10.8716 10.8919L10.6661 10.705C10.6381 10.7518 10.6474 10.9292 10.7595 10.9573C10.5167 10.9012 10.4046 10.9479 10.2364 10.7704C10.2364 11.4243 9.84407 11.6672 9.49844 11.8354L9.43305 11.7139C9.28358 11.6579 9.51712 11.9475 9.40502 11.9008C9.36766 11.77 9.19017 11.7046 9.17149 11.5178C8.97532 11.471 9.13412 11.8167 9.08741 11.9194C9.17149 12.0782 9.08741 11.7793 9.19951 11.9848C9.21819 12.0502 8.95663 11.9755 9.08741 12.2184C9.00334 12.1436 8.91927 11.9661 8.87256 11.8634V12.0222C8.60166 11.8167 8.7698 11.4057 8.47088 11.1441L8.42417 11.2282C8.19998 11.032 8.44285 10.8358 8.20932 10.8732C8.20932 11.032 8.34944 11.4057 8.48022 11.471C8.35878 11.6392 8.76046 12.0596 8.57363 12.153C8.44285 12.0502 8.68573 12.0315 8.53627 11.8634C8.3401 11.7326 8.44285 12.0689 8.33076 12.0502C8.46154 12.0876 8.54561 12.3585 8.52693 12.4332C8.36812 12.3772 8.44285 12.181 8.30273 12.237C8.36812 12.3772 8.32142 12.5547 8.48022 12.5827C8.63902 12.9096 8.30273 12.5827 8.38681 12.8536C8.20932 12.6761 8.19064 12.2931 7.98512 12.2744C8.14393 12.4612 8.00381 12.6574 8.27471 12.9096C8.18129 12.8816 8.0692 12.7321 8.03183 12.5827C7.87303 12.5079 8.09722 13.0684 7.80764 12.6854L7.91973 12.9096C7.85434 12.8629 7.77961 12.8349 7.66752 12.7508C7.60213 12.7882 7.64883 13.1712 7.44332 12.8629C7.44332 12.9096 7.28452 12.9937 7.49003 13.1712C7.66752 13.2366 7.49003 12.947 7.73291 13.1899C7.50871 13.003 7.62081 13.3113 7.63015 13.4234L7.53674 13.3113C7.53674 13.3767 7.45266 13.4047 7.51805 13.5448C7.49003 13.4608 7.42464 13.386 7.37793 13.3767L7.47135 13.5822C7.40596 13.7597 7.21913 13.2926 7.13505 13.4327V13.2272C7.13505 13.2272 6.96691 13.1338 6.94823 13.2272C7.0323 13.4047 7.1444 13.6289 7.20979 13.769C7.1911 13.8905 7.05098 13.6102 7.09769 13.8251L7.04164 13.5635C7.01362 13.4981 6.78942 13.3393 6.69601 13.4141C6.67732 13.5168 6.7614 13.8157 6.91086 13.8344C6.86415 13.8718 6.73337 13.8157 6.67732 13.6756C6.61194 13.8064 6.81745 13.8344 6.79876 14.0026C6.68667 13.9185 6.45313 13.8531 6.27564 13.7504L6.17289 13.4141L6.1075 13.4608C6.03277 13.1805 5.93935 13.33 5.81791 13.0684C5.75252 13.0684 5.75252 13.1805 5.75252 13.2739C6.14486 13.5448 5.98606 13.8718 6.2663 14.1801C6.16355 14.3949 5.55635 13.4608 5.76186 14.1053C5.85528 14.1707 5.96738 14.479 5.9954 14.3108C5.86462 14.3575 6.17289 14.6938 5.94869 14.6565C5.93935 14.451 5.59372 14.4043 5.57504 14.1053C5.64977 14.2174 5.71516 14.1334 5.70582 14.0866C5.56569 13.9932 5.46294 13.7504 5.35084 13.8344C5.31348 13.9185 5.22006 13.9932 5.36952 14.152C5.51899 14.3389 5.4536 14.0493 5.55635 14.2735C5.47228 14.4416 5.2294 14.1707 5.43491 14.5444C5.5003 14.451 5.66845 14.6285 5.76186 14.7592L5.7245 14.9087L5.64977 14.7686C5.42557 14.7966 5.78055 15.0301 5.60306 15.1142L5.3415 14.9274C5.21072 14.6938 5.63108 14.8526 5.3415 14.535C5.2294 14.6004 5.3415 14.7966 5.17335 14.7779C5.17335 14.7312 5.19204 14.7032 5.19204 14.6565C5.14533 14.6752 4.75299 14.2455 4.82772 14.6191C4.83706 14.7779 4.90245 14.7592 5.00521 14.8807C4.88377 15.0395 4.93982 15.2076 4.85575 15.3104C4.67826 15.0488 4.65958 15.4225 4.56616 15.0862C4.73431 15.1889 4.94916 15.0021 4.80904 14.7219C4.51945 14.4696 4.96784 14.6658 4.76233 14.3389C4.63155 14.4323 4.40736 14.1334 4.23921 13.9652C4.1925 13.9839 4.22053 14.0866 4.22987 14.1334C4.36065 14.3202 4.39802 14.2828 4.54748 14.4696C4.36999 14.535 4.31394 14.7405 4.37933 14.9741C4.25789 14.9274 4.13646 14.7312 4.17382 14.6752C4.05238 14.862 3.85621 14.9834 3.6507 15.0582C3.98699 15.2637 3.52926 15.2637 3.80016 15.4505C3.94029 15.4505 4.17382 15.5906 4.23921 15.7588C4.17382 15.7868 4.13646 15.628 4.06172 15.5906C4.12711 15.8055 3.75346 15.4225 3.89358 15.7214C3.96831 15.5065 3.63202 15.3477 3.48256 15.0955C3.48256 15.3104 3.35178 14.9274 3.24902 15.0208C3.24902 15.2356 3.19297 15.4412 3.1089 15.5906C2.78195 15.4972 2.7259 15.8989 2.59512 16.0203C2.42697 15.9643 2.26817 15.6747 2.15607 15.6934C2.072 15.7774 2.455 15.9082 2.22146 15.9082L2.19344 15.8428C2.20278 15.9362 1.8011 15.8709 2.072 16.2725L1.88517 15.9643C1.88517 15.9643 1.86649 16.039 1.87583 16.0857C1.8011 16.0016 1.69834 15.9362 1.69834 15.8522C1.45547 15.7307 1.54888 16.0297 1.46481 16.1137L1.66098 16.2258C1.61427 16.4781 1.38073 16.4033 1.27798 16.5902L1.1472 16.4313V16.5995C1.0351 16.4313 0.866956 16.394 0.932346 16.5621L0.82959 15.983C0.969711 16.0203 0.923004 16.2352 1.09115 16.3566C1.24061 16.4594 1.34337 16.3099 1.23127 16.1324C1.16588 16.1604 1.19391 16.1978 1.20325 16.2912C0.997736 16.0857 1.08181 16.0297 0.997736 15.8428C0.979053 15.8709 0.885638 15.8428 0.932346 15.9176C0.89498 15.7681 0.932346 15.7027 1.01642 15.6186C1.02576 15.7588 1.16588 15.7307 1.19391 15.8055C1.0351 15.6093 1.07247 15.4692 1.23127 15.4318C1.50217 15.5906 1.31534 15.1142 1.50217 15.0675C1.61427 15.3104 1.67966 15.5252 1.67032 15.6653C1.82912 15.6934 1.75439 15.5813 1.92254 15.6186C1.83846 15.4412 1.67966 15.1889 1.70768 15.0114L1.83846 15.1516C1.87583 15.0021 1.689 14.7779 1.84781 14.7219C2.11871 14.6191 2.33356 14.4416 2.51105 14.3295L2.64183 14.4696C2.47368 14.0866 2.84734 14.1053 2.85668 13.8718C3.17429 13.8438 3.19297 13.3674 3.50124 13.5355C3.78148 13.1245 4.01502 12.7602 4.44472 12.5173L4.54748 12.7882C4.49143 12.5733 4.6876 12.8816 4.73431 12.7882C4.51945 12.6761 4.65958 12.4893 4.60353 12.3211C4.90245 12.3585 4.98653 12.0035 5.03323 11.7326L5.15467 11.8821C5.09862 11.4804 5.48162 11.5925 5.70582 11.4991C5.77121 11.5458 5.91133 11.6672 5.95803 11.6018C5.89264 11.2749 5.95803 11.2562 6.00474 10.9853C6.12618 10.9012 6.35037 10.8265 6.5372 10.8452C6.74271 10.1819 7.34991 10.1072 7.6862 9.59342L7.83566 9.76157C8.05051 9.0703 8.85388 9.08898 9.14346 8.64994L9.29292 9.00491C9.47975 9.04228 9.5358 8.76203 9.377 8.53784C9.56383 8.56586 9.61053 8.20155 9.84407 8.42574C10.0122 8.42574 9.92814 8.18286 10.0216 8.08011C10.3578 8.08011 10.4419 7.98669 10.6755 7.79987H10.6007C10.6007 7.89328 10.6755 8.04274 10.7502 8.0334C10.7969 7.89328 11.1519 7.95867 10.8623 7.59435C11.2453 7.69711 11.4321 7.09926 11.8525 7.30477C11.7777 7.20201 11.8431 7.14597 11.8338 7.06189C12.086 6.94045 12.441 7.08058 12.5718 6.80967C12.6372 6.85638 12.5811 7.03387 12.6932 7.00584C12.7399 6.94045 12.6372 6.85638 12.6932 6.76297C13.0295 6.38931 13.618 6.67889 13.9823 6.50141C14.5895 6.05302 15.3555 5.97829 16.0281 5.79146V5.88487C16.1962 5.49253 16.6353 6.12775 16.7287 5.57661C16.7941 5.65134 16.9436 5.57661 16.9342 5.76343C17.0743 5.48319 17.476 5.9129 17.7002 5.56726C17.6722 5.56726 17.6628 5.58595 17.6442 5.62331C17.9337 5.78212 18.1393 5.48319 18.4475 5.642C18.4195 5.67936 18.3728 5.71673 18.3728 5.81014C18.4942 5.97829 18.597 5.39912 18.6904 5.83817C18.7558 5.82882 18.7184 5.61397 18.6811 5.63265C19.3069 5.75409 19.9608 5.45517 20.6334 5.37109C21.1005 5.65134 20.6334 6.10907 21.0164 5.8008C21.0444 5.88487 21.0444 5.63265 21.0444 5.72607C21.1939 5.61397 21.2313 6.23051 21.3434 6.00631C21.3247 5.73541 21.4181 5.85685 21.4368 5.69804C21.7077 5.89421 21.7357 6.14643 21.9786 5.96895L21.9412 6.10907C22.2495 5.73541 22.5204 5.98763 22.8193 5.57661C24.3046 5.73541 25.7899 5.94092 27.1257 6.48272C28.3868 7.13662 29.6666 7.62238 30.7035 8.53784C30.7782 9.02359 30.8062 9.02359 31.1799 9.07964C31.1332 9.12635 31.1145 9.12635 31.1052 9.1824C31.2826 8.93018 31.3294 9.28515 31.5068 9.06096C31.8992 9.37857 32.3382 9.55605 32.7679 9.8363C32.6839 9.81761 32.5064 10.0044 32.5998 10.0418L32.796 9.92971L32.7586 10.0138C32.8427 10.0138 32.9828 9.92971 32.9828 9.80827C34.2159 10.3127 34.9071 11.5551 35.9627 12.2464C36.1215 12.5266 36.5325 12.6948 36.8315 12.8442C37.3452 13.7597 37.803 14.5631 38.7278 14.9741C38.7278 14.9741 38.1206 15.4972 37.7002 15.3758V15.4131Z" fill="#C16A5E"/>
<path id="Vector_3" d="M0.4375 16.1699C0.558939 16.2633 0.69906 16.254 0.76445 16.4688C0.661694 16.3661 0.512231 16.282 0.4375 16.1699Z" fill="#C16A5E"/>
<path id="Vector_4" d="M3.68799 15.5066C3.68799 15.5066 3.76272 15.5253 3.7814 15.544C3.76272 15.572 3.81877 15.6934 3.74404 15.6561C3.76272 15.628 3.71601 15.572 3.68799 15.5159V15.5066Z" fill="#C16A5E"/>
<path id="Vector_5" d="M4.31373 15.1047C4.38846 15.2168 4.33242 15.4037 4.27637 15.4691L4.31373 15.1047Z" fill="#C16A5E"/>
<path id="Vector_6" d="M5.20117 15.1235C5.32261 15.1796 5.34129 15.2356 5.2759 15.2823C5.2292 15.2263 5.21985 15.1796 5.20117 15.1235Z" fill="#C16A5E"/>
<path id="Vector_7" d="M5.05176 14.8528C5.05176 14.8528 5.16386 14.8528 5.23859 14.9088C5.16386 14.8154 5.18254 15.049 5.05176 14.8528Z" fill="#C16A5E"/>
<path id="Vector_8" d="M6.46289 14.2642C6.46289 14.2642 6.48157 14.096 6.59367 14.1988C6.50026 14.1334 6.5563 14.4417 6.46289 14.2642Z" fill="#C16A5E"/>
<path id="Vector_9" d="M6.88281 13.6941C6.88281 13.6941 6.92952 13.7034 6.92952 13.6567C6.99491 13.6848 7.02293 13.7875 7.00425 13.8155L6.88281 13.6848V13.6941Z" fill="#C16A5E"/>
<path id="Vector_10" d="M17.6538 8.18282L17.5884 8.25755L17.5791 8.11743L17.6538 8.18282Z" fill="#C16A5E"/>
<path id="Vector_11" d="M22.8755 8.24815C22.9596 8.18276 22.8942 8.38827 22.9035 8.40695C22.8381 8.40695 22.9596 8.24815 22.8755 8.24815Z" fill="#C16A5E"/>
<path id="Vector_12" d="M25.8273 8.4725L25.8086 8.46316L25.9207 8.21094L25.8273 8.4725Z" fill="#C16A5E"/>
</g>
<g id="Group_3">
<path id="Vector_13" d="M8.33049 11.3499C8.24642 11.2565 8.10629 11.4433 8.20905 11.3032C8.32115 11.3032 8.40522 11.3032 8.33049 11.3499Z" fill="#C16A5E"/>
<path id="Vector_14" d="M31.7681 12.1344C32.1511 12.835 31.2917 12.8164 31.4319 13.3955C31.4319 13.4516 31.1236 13.162 31.1329 13.3021C31.3571 13.9373 30.7219 14.2363 30.1054 14.3203L30.04 14.2269C29.9279 14.2456 30.1427 14.5539 30.04 14.5912C29.9839 14.5445 29.9746 14.5072 29.8905 14.4511C30.0493 14.6099 29.8625 14.6473 29.9653 14.7781C29.8718 14.75 29.7411 14.6379 29.6383 14.6099L29.7971 14.8154C30.1521 15.3199 29.5262 15.0583 29.629 15.4133C29.5916 15.3666 29.5729 15.3199 29.5169 15.2918C29.5636 15.7776 29.2273 16.0298 29.0498 16.3755C29.0031 16.3007 28.9003 16.1699 28.8163 16.1139C28.9844 16.3194 28.947 16.4408 28.9003 16.5529C28.6855 16.3755 28.9377 16.8519 28.7509 16.8238L28.7228 16.7678C28.8443 17.0387 28.5173 16.7211 28.6855 17.0294L28.508 16.8986C28.7228 17.2162 28.2838 16.8238 28.3492 17.02L28.3959 17.0761C28.3959 17.1882 28.2558 17.0667 28.2464 17.1508L28.2184 17.1228C28.1624 17.2909 27.9662 17.1695 28.1437 17.4123C27.9568 17.2535 28.1997 17.2442 27.9195 17.0107C27.7233 17.5431 27.2469 17.7673 26.8172 17.9915C26.7144 17.9074 26.6677 17.8888 26.6023 17.7953C26.5837 17.8701 26.4622 17.9261 26.4902 18.0756C26.4996 18.0662 26.3968 17.9542 26.3688 17.9448C26.2474 17.8794 26.4155 18.2904 26.2754 18.197C26.2754 18.113 26.2567 18.0195 26.2007 17.9168C26.2193 18.1597 26.0979 18.169 26.0325 18.2811C26.0325 18.2251 26.0325 18.1877 26.0045 18.1036C26.0045 18.3932 25.8083 18.1223 25.771 18.3091L25.7429 18.1316C25.5374 17.9822 25.8177 18.4866 25.6589 18.4119C25.6682 18.3465 25.6402 18.2904 25.6215 18.2251C25.6121 18.5707 25.3786 18.5146 25.2945 18.6548C25.2945 18.6267 25.2852 18.5894 25.2852 18.5894C25.1638 18.6641 25.005 18.5987 24.8929 18.7669C24.8275 18.7015 24.8181 18.3558 24.6967 18.4492C24.7808 18.7855 24.4912 18.6361 24.6593 19.0004C24.5285 18.9724 24.3137 18.879 24.2576 19.0004C24.2857 18.8603 24.1269 18.5894 24.2203 18.5427L24.1175 18.3465C24.1082 18.2064 24.2016 18.3839 24.1455 18.2064C24.0988 18.2251 23.9867 18.3839 23.9307 18.3372C23.8746 18.5613 23.8466 18.963 23.6972 19.0284C23.7532 18.8883 23.6131 18.6548 23.6504 18.5894L23.5197 19.2713C23.473 19.29 23.4823 19.0004 23.4169 19.0938C23.4263 19.1872 23.4076 19.2433 23.3889 19.318C23.3702 19.2806 23.1834 19.4208 23.1367 19.0845C23.1086 18.9537 23.2114 19.0097 23.146 18.8883C23.0526 18.8976 23.0619 19.0097 22.9685 19.0284V18.9817C22.9031 18.935 22.791 19.1405 22.8751 19.318C22.9218 19.318 22.8471 19.1125 22.9125 19.2059C22.8844 19.4021 22.7724 19.4675 22.6789 19.4768C22.707 19.4208 22.6976 19.3273 22.707 19.2339C22.5949 19.5048 22.4641 19.5982 22.324 19.7103C22.324 19.8691 22.3707 19.4114 22.3894 19.4955C22.2025 19.2806 22.025 19.8224 21.8662 19.4955C21.8943 19.4675 21.8849 19.729 21.8756 19.6823C21.7915 19.6636 21.7915 19.4301 21.7355 19.5142C21.7355 19.374 21.6607 19.5609 21.6047 19.5982C21.5766 19.701 21.586 19.5329 21.642 19.5142C21.558 19.6356 21.231 19.8411 21.0535 19.6356C21.0535 19.729 20.9321 19.9719 20.8854 19.9532L20.9134 19.7384C20.876 19.6076 20.7733 19.7477 20.7733 19.5702C20.6705 19.8224 21.1283 19.3647 20.9975 19.5609C20.9695 19.3834 20.8107 19.8972 20.848 19.6076C20.7639 19.6076 20.6705 19.8505 20.5958 19.645C20.6145 19.6823 20.6799 19.3554 20.6051 19.3647C20.4837 19.3927 20.5678 19.4675 20.465 19.5329L20.3996 19.6169C20.3809 19.8224 20.2969 19.5796 20.3249 19.8224C20.3249 19.6543 20.1381 19.9159 20.1754 19.5702L20.2035 19.2993C20.1474 19.318 20.1007 19.5796 20.054 19.701C20.054 19.673 20.0353 19.6169 20.0447 19.5796C20.0073 19.9906 19.9232 19.5422 19.8391 19.8505C19.7364 19.701 19.5589 19.8224 19.5309 19.5609C19.4375 19.6823 19.3534 19.8224 19.26 19.729C19.2787 19.6917 19.3067 19.6823 19.316 19.5889C19.2693 19.4581 19.2413 19.5702 19.1852 19.6356C19.2039 19.5702 19.0825 19.3834 19.0264 19.2339C18.933 19.3554 18.9424 19.5796 18.9237 19.7103C18.877 19.2993 18.6621 19.9532 18.5967 19.5796C18.6341 19.5235 18.7369 19.3927 18.6715 19.2806C18.6341 18.8696 18.494 19.5702 18.3819 19.3647V19.7103C18.3445 19.4955 18.1764 19.8878 18.2231 19.5422C18.167 19.6636 18.0923 19.4114 18.0643 19.7477C17.8868 19.4488 17.5505 19.8598 17.4944 19.2526C17.4571 19.3087 17.3917 19.2433 17.3917 19.4114C17.4197 19.5982 17.4758 19.29 17.4758 19.4114C17.4477 19.4114 17.4291 19.5048 17.4197 19.5515C17.3637 19.4675 17.317 19.4394 17.4197 19.1685C17.3076 18.9443 17.2049 19.7103 17.0367 19.5609C17.0647 19.4301 17.0554 19.3741 16.9993 19.3834L16.8686 19.5982C16.7565 19.5235 16.8499 19.2806 16.8686 19.0471C16.8032 19.0751 16.7284 19.0471 16.6724 19.2246L16.6444 18.9257C16.6631 19.1405 16.5696 19.0564 16.5323 19.1125L16.5696 19.0564C16.5696 18.9537 16.4949 19.0097 16.4482 19.0284C16.4295 19.1685 16.4949 19.2433 16.5323 19.29C16.4856 19.3834 16.4389 19.3554 16.3735 19.4675C16.4202 19.2433 16.2987 19.29 16.252 19.262C16.2053 19.2059 16.1493 19.4488 16.1399 19.4394C16.1586 19.318 16.0465 19.4021 16.1213 19.2433C16.1493 19.2059 16.1493 19.3647 16.196 19.2713C16.1773 19.1779 16.2147 18.9724 16.1119 19.1125C16.0372 19.2152 16.0465 19.5609 15.9625 19.3927C15.9998 19.346 16.0278 19.2526 16.0559 19.1779L15.9718 19.0471L15.9344 19.2526C15.9344 19.1966 15.9344 19.1779 15.9344 19.1499C15.8597 19.3554 15.7663 19.1872 15.6916 19.4208C15.6355 19.4301 15.6075 19.2526 15.5608 19.2246V19.2059C15.5327 19.0751 15.4393 19.1312 15.3553 19.262V19.2152C15.3553 19.2152 15.2525 19.2152 15.1871 19.318C15.1311 19.1405 15.3272 18.5427 15.1871 18.7762C15.103 18.7669 14.9629 19.1125 14.9723 19.2526C14.8508 19.0845 14.5893 19.3647 14.5239 19.0097C14.4772 19.0845 14.4772 19.1405 14.4211 19.1779C14.2156 19.0378 13.8606 19.2713 13.8046 18.8322C13.898 18.7669 13.87 18.6361 13.9073 18.524C13.7952 18.6828 13.9073 18.3185 13.7859 18.6174C13.7298 18.7949 13.7018 18.8883 13.7392 18.9724C13.571 19.0284 13.3655 18.9537 13.3468 18.7669C13.3468 18.8603 13.3095 18.907 13.2628 18.9537C13.3749 18.6734 13.2908 18.5987 13.1787 18.6734L13.104 18.8416L13.1227 18.6454C13.0759 18.6921 12.9545 18.9911 12.9452 18.8042C12.9639 18.7388 12.9919 18.6641 12.9919 18.6174C12.8611 18.7295 12.6556 18.9257 12.6276 18.7388L12.6556 18.4586C12.6556 18.4586 12.4874 18.5894 12.5248 18.6921C12.4407 18.4866 12.3567 18.4306 12.4127 18.197C11.9456 18.6081 11.5626 18.4492 11.3011 18.2531L11.3758 18.141C11.3571 17.9915 11.217 18.3278 11.217 18.2157C11.3011 18.113 11.3011 17.9355 11.4319 17.8327C11.3945 17.6552 11.1796 17.9635 11.0769 17.9728C10.9741 18.1223 11.189 17.9074 11.0582 18.0943C11.0115 18.141 10.9835 17.8888 10.8247 18.113C10.8527 18.0102 10.9741 17.8421 11.0489 17.758L10.9181 17.8327C11.0115 17.5151 11.3852 17.4497 11.5066 17.0667H11.4319C11.5253 16.7958 11.7401 16.8799 11.6561 16.7211C11.5346 16.8052 11.2731 17.1041 11.2637 17.2442C11.0956 17.2349 10.862 17.7673 10.7313 17.6552C10.778 17.4964 10.862 17.6926 10.9554 17.4871C11.0115 17.2629 10.7593 17.5058 10.7406 17.403C10.7406 17.5338 10.5444 17.73 10.4697 17.7393C10.4697 17.5805 10.6565 17.5525 10.5724 17.4684C10.4697 17.5898 10.3109 17.6272 10.3296 17.7673C10.096 18.0382 10.2735 17.6179 10.068 17.8047C10.1801 17.5805 10.4977 17.403 10.4603 17.2255C10.3389 17.4404 10.1427 17.3937 9.99328 17.73C9.99328 17.6365 10.096 17.4871 10.2175 17.3843C10.2455 17.2255 9.80645 17.6272 10.0773 17.2349L9.9092 17.4217C9.93723 17.347 9.94657 17.2722 9.99328 17.1508C9.94657 17.1134 9.61962 17.2816 9.85316 16.992C9.81579 17.0107 9.70369 16.8986 9.5916 17.1414C9.56357 17.3283 9.79711 17.0667 9.61962 17.3656C9.74106 17.1041 9.48884 17.3096 9.38608 17.347L9.47016 17.2255C9.40477 17.2442 9.3674 17.1788 9.2553 17.2816C9.33004 17.2349 9.37674 17.1508 9.38608 17.1041L9.21794 17.2535C9.04045 17.2535 9.44213 16.9453 9.30201 16.9079L9.48884 16.8425C9.48884 16.8425 9.54489 16.6744 9.46082 16.6837C9.30201 16.8145 9.12452 16.964 9.00309 17.0667C8.89099 17.0854 9.12452 16.8799 8.9377 16.9826L9.17123 16.8705C9.22728 16.8332 9.33938 16.581 9.27399 16.5249C9.18057 16.5343 8.90967 16.6837 8.90967 16.8238C8.87231 16.7958 8.90967 16.6557 9.03111 16.581C8.90033 16.5529 8.89099 16.7491 8.73218 16.7678C8.79757 16.6464 8.84428 16.4222 8.92835 16.226L9.23662 16.0578L9.18991 16.0111C9.43279 15.8804 9.30201 15.8336 9.53555 15.6655C9.53555 15.6001 9.43279 15.6375 9.35806 15.6655C9.12452 16.0765 8.81626 15.9925 8.54536 16.3101C8.3305 16.254 9.19926 15.5441 8.6014 15.843C8.54536 15.9364 8.24643 16.0765 8.41458 16.0859C8.37721 15.9738 8.05026 16.3007 8.08763 16.0859C8.2838 16.0485 8.3305 15.7309 8.61075 15.6748C8.49865 15.7589 8.58272 15.8056 8.62943 15.7963C8.7135 15.6562 8.94704 15.5254 8.87231 15.4413C8.79757 15.4133 8.73218 15.3572 8.57338 15.5067C8.39589 15.6655 8.66679 15.5721 8.45194 15.6935C8.29314 15.6375 8.5547 15.3946 8.19972 15.6188C8.27445 15.6655 8.10631 15.843 7.98487 15.9457L7.83541 15.9271L7.96619 15.843C7.9475 15.6375 7.71397 15.9831 7.63924 15.8243L7.83541 15.5721C8.06894 15.4413 7.89146 15.8336 8.20906 15.5441C8.16236 15.4506 7.96619 15.5627 7.99421 15.4133C8.04092 15.4133 8.06894 15.4226 8.10631 15.4133C8.09697 15.3759 8.52667 14.9929 8.1717 15.0863C8.02224 15.105 8.03158 15.1611 7.9008 15.2545C7.76068 15.1424 7.60187 15.1984 7.50846 15.1144C7.77936 14.9556 7.42438 14.9369 7.76068 14.8528C7.63924 15.0023 7.79804 15.1984 8.07828 15.0676C8.34919 14.7967 8.11565 15.1984 8.4426 15.0023C8.36787 14.8995 8.67614 14.6847 8.85362 14.5165C8.85362 14.4791 8.75087 14.5165 8.70416 14.5165C8.50799 14.6379 8.53601 14.6753 8.34919 14.8154C8.32116 14.666 8.13433 14.6193 7.9008 14.6753C7.96619 14.5726 8.1717 14.4605 8.21841 14.4978C8.0596 14.3951 8.00355 14.2176 7.97553 14.0494C7.70463 14.3297 7.80738 13.9373 7.57385 14.1522C7.54582 14.2736 7.35899 14.4698 7.19085 14.5165C7.18151 14.4511 7.33097 14.4324 7.38702 14.3764C7.17217 14.4138 7.61121 14.1242 7.2936 14.2082C7.48043 14.2923 7.70463 14.0121 7.97553 13.9C7.77936 13.8813 8.16236 13.8066 8.10631 13.7131C7.91014 13.6945 7.74199 13.6291 7.62055 13.545C7.80738 13.2928 7.47109 13.1807 7.39636 13.0499C7.50846 12.9285 7.83541 12.8537 7.86343 12.7603C7.82607 12.6762 7.55516 12.9471 7.64858 12.7697H7.71397C7.6299 12.7416 7.85409 12.4614 7.38702 12.5735L7.74199 12.4988C7.74199 12.4988 7.6766 12.4707 7.63924 12.4614C7.75133 12.424 7.84475 12.368 7.92882 12.3773C8.13433 12.2279 7.84475 12.2372 7.81672 12.1531L7.6299 12.2652C7.43373 12.1625 7.61121 12.013 7.49912 11.8916L7.70463 11.8542L7.56451 11.7982C7.76068 11.7795 7.88211 11.6767 7.70463 11.6674C7.88211 11.7047 8.0596 11.7421 8.23709 11.7701C8.13433 11.8542 7.97553 11.7701 7.7887 11.8449C7.62055 11.9102 7.71397 12.0317 7.91014 12.0037C7.91948 11.9476 7.87277 11.957 7.79804 11.9383C8.07828 11.8542 8.07828 11.9383 8.27445 11.9196C8.25577 11.9009 8.3305 11.8449 8.24643 11.8635C8.39589 11.8729 8.42392 11.9102 8.45194 11.985C8.3305 11.9663 8.2838 12.0597 8.19972 12.0597C8.45194 12.0037 8.53601 12.0504 8.49865 12.1531C8.24643 12.3026 8.73218 12.2652 8.69482 12.3867C8.4426 12.4334 8.22775 12.4427 8.10631 12.4053C8.00355 12.5174 8.14367 12.4801 8.04092 12.5922C8.23709 12.5641 8.51733 12.4894 8.65745 12.5268L8.47997 12.6015C8.6014 12.6482 8.86296 12.5361 8.85362 12.6482C8.83494 12.8444 8.91901 13.0125 8.95638 13.1433L8.78823 13.2367C9.18057 13.1153 9.04045 13.3862 9.24596 13.3862C9.17123 13.6291 9.5916 13.601 9.37674 13.8533C9.66633 14.0214 9.93723 14.1335 10.096 14.4138L9.85316 14.5539C10.04 14.4605 9.75974 14.6847 9.82513 14.7033C9.94657 14.5072 10.0867 14.5726 10.2362 14.4885C10.1708 14.7407 10.479 14.7033 10.6939 14.6473L10.5631 14.7874C10.8994 14.6193 10.7873 14.9369 10.8714 15.0863C10.834 15.1611 10.7406 15.3105 10.7873 15.3292C11.0489 15.1517 11.0675 15.1984 11.2824 15.1237C11.3478 15.1797 11.4132 15.3292 11.4225 15.4787C11.9363 15.3292 12.0671 15.7402 12.4968 15.6842L12.4034 15.8897C12.9171 15.6281 13.0759 16.198 13.4496 16.0859L13.2721 16.4222C13.3095 16.5623 13.5057 16.4128 13.5897 16.1513C13.6271 16.2914 13.8606 16.0672 13.8046 16.3755C13.87 16.4782 13.9727 16.254 14.0568 16.226C14.1782 16.4315 14.2623 16.4128 14.4491 16.4035L14.4118 16.3661C14.3651 16.4408 14.3184 16.5903 14.3464 16.6277C14.4398 16.5529 14.5519 16.7958 14.6173 16.3474C14.72 16.6557 15.0937 16.2634 15.1778 16.6557C15.1965 16.5343 15.2432 16.5249 15.2805 16.4408C15.4393 16.4782 15.5514 16.7584 15.7289 16.5903C15.7383 16.6557 15.6448 16.7865 15.7009 16.8145C15.7476 16.7771 15.7383 16.6557 15.8036 16.5996C16.1119 16.4315 16.2894 16.9453 16.551 16.9266C17.0274 16.7678 17.4664 16.9546 17.9055 16.964L17.8868 17.0574C18.0643 16.7304 18.1951 17.4497 18.3632 16.9359C18.3912 17.0294 18.494 16.992 18.4473 17.1601C18.5874 16.9266 18.7555 17.4217 18.9517 17.1228C18.933 17.1134 18.9237 17.1228 18.905 17.1695C19.0638 17.3843 19.232 17.1228 19.4001 17.3189C19.3814 17.3563 19.344 17.3843 19.3347 17.4777C19.3908 17.6552 19.5309 17.1041 19.5402 17.5431C19.5776 17.5431 19.5869 17.3283 19.5589 17.3376C19.9512 17.5338 20.3996 17.2816 20.8107 17.1975C21.0909 17.4684 20.8107 17.9355 21.0442 17.6179C21.0629 17.7019 21.0629 17.4497 21.0629 17.5431C21.1563 17.4217 21.1937 18.0382 21.259 17.8047C21.2404 17.5338 21.3057 17.6552 21.3057 17.4871C21.4832 17.6646 21.5113 17.9074 21.6607 17.7019V17.8421C21.8195 17.4404 22.0064 17.6552 22.1371 17.1882C23.0152 17.0854 23.7812 16.7491 24.4725 16.5062C25.2198 16.4035 25.7149 15.9551 26.4622 15.7589C26.8172 15.9738 26.8265 15.9457 26.9013 15.7122C26.9293 15.7683 26.9293 15.7869 26.976 15.8243C26.7985 15.5721 27.0787 15.7216 26.9106 15.4693C27.1722 15.3386 27.3216 15.105 27.5458 14.8995C27.5365 14.9556 27.6859 15.1517 27.714 15.105L27.6299 14.9182L27.6953 14.9742C27.6953 14.9182 27.6206 14.7781 27.5271 14.7314C27.8728 14.0308 28.8443 13.8533 29.2927 13.1433C29.5075 13.0592 29.5916 12.7697 29.6663 12.5641C30.3763 12.2932 30.9835 11.985 31.1329 11.2563C31.1329 11.2563 31.7401 11.7795 31.7308 12.1064L31.7681 12.1344Z" fill="#C16A5E"/>
<path id="Vector_15" d="M8.37746 11.4619C8.228 11.5086 8.16261 11.602 7.94775 11.574C8.08788 11.5366 8.23734 11.4806 8.37746 11.4619Z" fill="#C16A5E"/>
<path id="Vector_16" d="M7.62061 14.012C7.62061 14.012 7.58324 14.068 7.56456 14.096C7.53653 14.0774 7.41509 14.1147 7.47114 14.0493C7.49917 14.068 7.55522 14.0306 7.62061 14.012Z" fill="#C16A5E"/>
<path id="Vector_17" d="M7.85436 14.5819C7.73292 14.6473 7.57411 14.5819 7.51807 14.5259L7.85436 14.5819Z" fill="#C16A5E"/>
<path id="Vector_18" d="M7.72326 15.3853C7.66721 15.4974 7.60182 15.5254 7.56445 15.46C7.6205 15.4133 7.66721 15.4133 7.72326 15.3853Z" fill="#C16A5E"/>
<path id="Vector_19" d="M8.00332 15.2358C8.00332 15.2358 7.98464 15.3386 7.93793 15.404C8.03134 15.3293 7.80715 15.3573 8.00332 15.2358Z" fill="#C16A5E"/>
<path id="Vector_20" d="M8.53644 16.4687C8.53644 16.4687 8.69525 16.45 8.61117 16.5808C8.66722 16.4874 8.37764 16.5901 8.53644 16.4687Z" fill="#C16A5E"/>
<path id="Vector_21" d="M9.10569 16.7397C9.10569 16.7397 9.10569 16.7865 9.14305 16.7678C9.12437 16.8332 9.03095 16.8892 9.00293 16.8799L9.10569 16.7397Z" fill="#C16A5E"/>
<path id="Vector_22" d="M18.5127 19.6448L18.4473 19.7008L18.4659 19.5701L18.5127 19.6448Z" fill="#C16A5E"/>
<path id="Vector_23" d="M22.6416 19.7943C22.6977 19.7103 22.6883 19.9251 22.6977 19.9438C22.6416 19.9625 22.707 19.7756 22.6416 19.7943Z" fill="#C16A5E"/>
<path id="Vector_24" d="M24.8086 18.8321L24.7899 18.8415L24.7432 18.5706L24.8086 18.8321Z" fill="#C16A5E"/>
</g>
<g id="Group_4">
<path id="Vector_25" d="M18.3074 9.78012C18.3635 9.75209 18.214 9.60263 18.3261 9.71473C18.3355 9.78946 18.3448 9.84551 18.3074 9.78012Z" fill="#C16A5E"/>
<path id="Vector_26" d="M18.6809 7.8C18.8117 7.02466 19.3442 7.66922 19.6057 7.19281C19.6431 7.15544 19.6337 7.58515 19.7085 7.48239C19.9887 6.91257 20.5679 7.23018 20.8762 7.70659L20.8388 7.80934C20.8948 7.89342 21.0256 7.53844 21.1003 7.60383C21.091 7.67856 21.063 7.70659 21.063 7.80934C21.1097 7.59449 21.2124 7.73461 21.2685 7.57581C21.2872 7.66922 21.2498 7.83737 21.2685 7.94012L21.3526 7.69725C21.5954 7.12742 21.6328 7.8 21.8663 7.53844C21.8477 7.59449 21.8196 7.63186 21.8103 7.6879C22.1653 7.40766 22.4922 7.58515 22.8285 7.59449C22.7818 7.66922 22.7071 7.81869 22.679 7.9121C22.8005 7.67856 22.9219 7.65054 23.0153 7.6412C22.9313 7.90276 23.2582 7.48239 23.2862 7.66922L23.2489 7.71593C23.4544 7.50108 23.2676 7.9121 23.4918 7.6412L23.4264 7.85605C23.6506 7.54778 23.417 8.08025 23.5665 7.94947L23.6038 7.88407C23.7066 7.83737 23.6225 8.01486 23.7066 7.98683L23.6879 8.0242C23.8561 8.00551 23.7907 8.22971 23.9588 7.98683C23.8561 8.21103 23.8 7.99617 23.6506 8.32312C24.155 8.31378 24.4633 8.65941 24.7342 8.97702C24.6781 9.08912 24.6688 9.13583 24.5847 9.21056C24.6594 9.21056 24.7155 9.29463 24.8649 9.23858C24.8556 9.23858 24.7528 9.35068 24.7528 9.3787C24.7061 9.50014 25.0705 9.25727 25.0051 9.39739C24.921 9.41607 24.8369 9.46278 24.7435 9.52817C24.977 9.45343 24.9957 9.55619 25.0985 9.59356C25.0518 9.61224 25.0144 9.6029 24.9303 9.65895C25.2012 9.6029 24.9584 9.82709 25.1452 9.81775L24.977 9.8738C24.8463 10.0793 25.3133 9.74302 25.2573 9.90182C25.1919 9.90182 25.1358 9.93919 25.0705 9.96721C25.3974 9.92051 25.3694 10.1354 25.5095 10.1914C25.4815 10.1914 25.4441 10.2101 25.4441 10.2101C25.5282 10.3035 25.4628 10.453 25.6309 10.537C25.5655 10.6024 25.2199 10.6305 25.3133 10.7239C25.6496 10.6398 25.5002 10.892 25.8738 10.7332C25.8365 10.8546 25.7337 11.0415 25.8645 11.0975C25.7244 11.0695 25.4535 11.2003 25.4067 11.1256L25.2106 11.2096C25.0705 11.2096 25.2479 11.1442 25.0705 11.1816C25.0891 11.219 25.2479 11.3124 25.1919 11.3497C25.4067 11.4058 25.8084 11.4525 25.8551 11.5833C25.715 11.5272 25.4721 11.63 25.4161 11.5833C25.6403 11.63 25.8645 11.6954 26.0887 11.7608C26.1074 11.8075 25.8178 11.7608 25.9018 11.8355C25.9953 11.8355 26.0513 11.8635 26.1167 11.8915C26.0793 11.9102 26.1914 12.0971 25.8458 12.0877C25.7057 12.0877 25.7804 12.013 25.6496 12.0504C25.6496 12.1251 25.7617 12.1438 25.7617 12.2278H25.715C25.659 12.2745 25.8365 12.396 26.0326 12.368C26.0513 12.3306 25.8271 12.3586 25.9299 12.3119C26.1167 12.3773 26.1634 12.4801 26.1447 12.5735C26.098 12.5361 26.0046 12.5268 25.9112 12.4987C26.1541 12.6575 26.2194 12.7977 26.3035 12.9565C26.4623 12.9938 26.0326 12.8444 26.1167 12.8444C25.8551 12.9565 26.3315 13.2741 25.9766 13.3208C25.9579 13.2928 26.2008 13.3768 26.1541 13.3675C26.1167 13.4422 25.8925 13.3675 25.9485 13.4422C25.8178 13.4049 25.9672 13.517 25.9859 13.5917C26.07 13.6571 25.9205 13.5823 25.9205 13.5356C26.0046 13.6384 26.0887 14.0401 25.8178 14.1148C25.9018 14.1522 26.0606 14.367 26.0326 14.4044L25.8551 14.2923C25.7244 14.2643 25.8084 14.4324 25.6403 14.3483C25.8271 14.5539 25.6029 13.9373 25.7244 14.1428C25.5562 14.0868 25.9485 14.4511 25.7057 14.2923C25.6776 14.367 25.8458 14.5725 25.6216 14.5352C25.6683 14.5352 25.4067 14.3297 25.3787 14.3857C25.3507 14.5071 25.4441 14.4698 25.4535 14.5912L25.4908 14.694C25.659 14.8154 25.4067 14.7687 25.6216 14.8621C25.4721 14.778 25.6029 15.077 25.332 14.8621L25.1265 14.6846C25.1172 14.7407 25.304 14.9275 25.3694 15.0303C25.3414 15.0209 25.2946 14.9929 25.2573 14.9649C25.5749 15.2264 25.1452 15.0396 25.3507 15.3012C25.1639 15.3012 25.1452 15.5254 24.9116 15.3759C24.9397 15.5254 24.977 15.6935 24.8369 15.7029C24.8276 15.6561 24.8369 15.6281 24.7809 15.5627C24.6501 15.516 24.7155 15.6094 24.7155 15.6935C24.6781 15.6375 24.4726 15.6001 24.3231 15.516C24.3231 15.6655 24.4819 15.8243 24.5567 15.9457C24.2578 15.6561 24.4819 16.3194 24.1924 16.0672C24.1924 16.0018 24.1924 15.8243 24.0803 15.7776C23.8094 15.4693 24.1083 16.1232 23.8841 16.0111L24.0709 16.3007C23.9215 16.1419 23.9775 16.5716 23.8374 16.254C23.8467 16.3848 23.6506 16.2166 23.7907 16.5156C23.4918 16.3568 23.2956 16.8612 23.0153 16.3381C22.9967 16.4035 22.9126 16.3661 22.9686 16.5249C23.062 16.693 23.006 16.3754 23.0527 16.4969C23.0247 16.5156 23.0434 16.609 23.0527 16.6463C22.9686 16.5903 22.9126 16.5716 22.9126 16.2914C22.7351 16.1139 22.8752 16.8705 22.651 16.7771C22.6417 16.637 22.623 16.5903 22.567 16.6183L22.4829 16.8612C22.3521 16.8145 22.3895 16.5529 22.3614 16.3194C22.3054 16.3661 22.2307 16.3568 22.212 16.5342L22.1279 16.2447C22.184 16.4502 22.0812 16.3848 22.0532 16.4502L22.0812 16.3941C22.0719 16.3007 21.9971 16.3568 21.9598 16.3941C21.9598 16.5342 22.0438 16.5996 22.0812 16.637C22.0532 16.7397 21.9971 16.7211 21.9504 16.8332C21.9691 16.609 21.8477 16.665 21.7916 16.637C21.7356 16.5809 21.7169 16.8425 21.6982 16.8332C21.6982 16.7117 21.6048 16.8051 21.6608 16.6463C21.6795 16.609 21.6982 16.7678 21.7356 16.665C21.6982 16.5716 21.7262 16.3661 21.6328 16.5156C21.5674 16.6277 21.6048 16.9639 21.502 16.8145C21.5394 16.7584 21.5581 16.6744 21.5861 16.5903L21.4927 16.4595L21.4647 16.665C21.4647 16.609 21.4647 16.5903 21.4647 16.5623C21.4086 16.7771 21.2965 16.609 21.2311 16.8425C21.1751 16.8518 21.1377 16.6837 21.091 16.6463V16.6277C21.063 16.4969 20.9696 16.5529 20.8855 16.6744V16.6277C20.8855 16.6277 20.7827 16.6183 20.708 16.7211C20.6613 16.5436 20.8855 15.9551 20.7267 16.1886C20.652 16.1699 20.4932 16.5156 20.4838 16.6463C20.3811 16.4595 20.0821 16.7304 20.0728 16.3661C20.0167 16.4315 20.0167 16.4875 19.9514 16.5156C19.7739 16.3568 19.3909 16.5342 19.4282 16.0858C19.5216 16.0391 19.531 15.9084 19.587 15.7963C19.4563 15.9364 19.6244 15.6001 19.4563 15.871C19.3722 16.0391 19.3161 16.1139 19.3442 16.2073C19.176 16.2353 18.9985 16.1232 19.0265 15.9364C19.0079 16.0298 18.9612 16.0672 18.9051 16.0952C19.0733 15.843 19.0172 15.7589 18.8958 15.8056L18.7837 15.9551L18.8491 15.7682C18.793 15.8056 18.6062 16.0672 18.6529 15.8803C18.6903 15.8243 18.7276 15.7589 18.7463 15.7122C18.6062 15.7963 18.3633 15.9364 18.382 15.7589L18.4847 15.5067C18.4847 15.5067 18.2979 15.6001 18.2979 15.7029C18.2886 15.488 18.2232 15.4226 18.3353 15.2171C17.8028 15.516 17.5039 15.2918 17.3357 15.0676L17.4385 14.9742C17.4759 14.8341 17.2423 15.1237 17.2704 15.0116C17.3825 14.9369 17.4292 14.7687 17.5786 14.694C17.6067 14.5258 17.3171 14.7687 17.2237 14.7687C17.0929 14.8901 17.3451 14.7313 17.1769 14.8808C17.1209 14.9182 17.1769 14.6753 16.9714 14.8528C17.0275 14.7594 17.1863 14.6379 17.2797 14.5725L17.1396 14.6192C17.3171 14.3483 17.6627 14.3483 17.8962 14.0214H17.8308C17.999 13.7785 18.1578 13.8906 18.1391 13.7225C18.0083 13.7785 17.6814 14.0121 17.6347 14.1335C17.4946 14.0961 17.1209 14.5352 17.0462 14.4231C17.1396 14.283 17.1489 14.4791 17.2984 14.311C17.4105 14.1148 17.1209 14.3016 17.1396 14.1989C17.1022 14.3203 16.8687 14.4604 16.8033 14.4604C16.85 14.3203 17.0275 14.3203 16.9808 14.2269C16.85 14.3203 16.7005 14.3297 16.6725 14.4604C16.3829 14.666 16.6725 14.311 16.4296 14.4604C16.5978 14.2736 16.9341 14.1615 16.9621 13.9934C16.7939 14.1615 16.6258 14.0961 16.3923 14.3764C16.4203 14.2923 16.5604 14.1709 16.6912 14.0961C16.7659 13.956 16.2521 14.2549 16.6071 13.9373L16.4016 14.0774C16.4483 14.0121 16.4763 13.9467 16.5604 13.8439C16.5324 13.7972 16.1868 13.9093 16.4857 13.6851C16.4483 13.6944 16.3829 13.5823 16.2054 13.7785C16.1307 13.9373 16.4109 13.7318 16.1681 13.984C16.3549 13.7598 16.0653 13.9186 15.9626 13.9373L16.0747 13.8439C16.0093 13.8532 15.9999 13.7879 15.8598 13.8626C15.9439 13.8346 16.0093 13.7598 16.028 13.7225L15.8318 13.8252C15.673 13.7879 16.1214 13.573 16.0093 13.517L16.1961 13.4889C16.1961 13.4889 16.2989 13.3488 16.2148 13.3395C16.0373 13.4422 15.8224 13.545 15.6823 13.6104C15.5702 13.6104 15.8505 13.4609 15.645 13.517L15.8972 13.4516C15.9626 13.4235 16.14 13.218 16.084 13.1526C15.9999 13.1526 15.701 13.2274 15.6636 13.3582C15.6356 13.3208 15.701 13.1993 15.8411 13.1526C15.729 13.0966 15.6636 13.2834 15.5142 13.2647C15.6076 13.162 15.7103 12.9658 15.8411 12.807L16.1774 12.7229L16.1494 12.6669C16.4203 12.6015 16.3082 12.5361 16.5698 12.424C16.5884 12.368 16.4857 12.3773 16.4016 12.3773C16.0653 12.7043 15.7944 12.5548 15.4394 12.7696C15.2526 12.6389 16.2895 12.2372 15.6263 12.3306C15.5422 12.4053 15.2152 12.4427 15.3741 12.5081C15.3741 12.3773 14.963 12.6015 15.0564 12.3866C15.2526 12.424 15.4021 12.1251 15.6917 12.1718C15.5609 12.2185 15.6263 12.2932 15.673 12.2932C15.8038 12.1905 16.056 12.1344 16.0186 12.041C15.9532 11.9943 15.9159 11.9102 15.7197 11.9943C15.4955 12.0784 15.7851 12.0877 15.5422 12.1251C15.4114 12.013 15.7477 11.8729 15.3273 11.9383C15.3927 12.0223 15.1685 12.1251 15.0097 12.1811L14.879 12.0877L15.0378 12.0597C15.0845 11.8355 14.7482 12.0877 14.7295 11.8729L15.0097 11.7047C15.2806 11.686 14.9724 12.013 15.3741 11.8542C15.3647 11.7327 15.1312 11.7514 15.2152 11.6113C15.2526 11.63 15.2713 11.658 15.318 11.6767C15.318 11.63 15.8785 11.4712 15.5142 11.3778C15.3741 11.3124 15.3554 11.3778 15.1966 11.4058C15.1218 11.2096 14.9443 11.1629 14.9163 11.0228C15.2339 11.0321 14.9443 10.7799 15.2713 10.92C15.0845 10.9854 15.1312 11.3124 15.4394 11.3217C15.8038 11.2003 15.4114 11.4805 15.7944 11.4432C15.7757 11.303 16.1494 11.2563 16.3829 11.2003C16.3923 11.1723 16.2895 11.1536 16.2521 11.1349C16.0186 11.1442 16.0373 11.1909 15.8038 11.2283C15.8411 11.0695 15.7103 10.9387 15.4861 10.8453C15.5982 10.7893 15.8318 10.8173 15.8505 10.8733C15.7757 10.6958 15.8318 10.4903 15.9439 10.3502C15.5515 10.3876 15.9065 10.1447 15.5889 10.154C15.4768 10.2288 15.1966 10.2848 15.0471 10.1914C15.0845 10.126 15.2059 10.2288 15.29 10.2101C15.1125 10.0793 15.645 10.154 15.3554 9.99524C15.4208 10.2101 15.7851 10.1354 16.056 10.2475C15.9252 10.098 16.2521 10.3035 16.2895 10.2007C16.1681 10.0606 16.1027 9.88314 16.112 9.74302C16.439 9.72434 16.3362 9.40673 16.439 9.27595C16.6071 9.30397 16.8407 9.54685 16.9341 9.52817C16.9901 9.47212 16.6071 9.35068 16.822 9.36002L16.8593 9.40673C16.8313 9.32265 17.1956 9.42541 16.8967 9.06109L17.1209 9.34134C17.1209 9.34134 17.1209 9.28529 17.1116 9.23858C17.1956 9.32266 17.289 9.38805 17.3077 9.46278C17.5319 9.61224 17.4011 9.36936 17.4665 9.332L17.289 9.18253C17.3171 8.98636 17.5319 9.12649 17.6253 9.04241L17.7281 9.22924L17.7468 9.1078C17.8215 9.29463 17.9429 9.40673 17.9056 9.25726C17.9243 9.42541 17.9056 9.52817 17.9429 9.65895C17.8495 9.57487 17.8962 9.48146 17.7748 9.31331C17.6627 9.15451 17.5693 9.23858 17.6627 9.40673C17.7187 9.41607 17.6907 9.38805 17.6814 9.31331C17.8402 9.54685 17.7655 9.52817 17.8308 9.67763C17.8402 9.66829 17.9056 9.72434 17.8682 9.65895C17.8962 9.77104 17.8776 9.78973 17.8308 9.81775C17.8028 9.72434 17.7187 9.69631 17.6907 9.64026C17.8215 9.81775 17.8215 9.89248 17.7188 9.8738C17.4946 9.70565 17.7374 10.0606 17.6347 10.0419C17.4759 9.8738 17.3638 9.715 17.3544 9.61224C17.2143 9.56553 17.3077 9.65895 17.1583 9.61224C17.2797 9.75236 17.4665 9.92985 17.5132 10.0419L17.3638 9.93919C17.3918 10.0326 17.616 10.1821 17.5319 10.2007C17.3825 10.2381 17.3171 10.3409 17.261 10.4156L17.0835 10.3596C17.4385 10.5277 17.1583 10.5651 17.3264 10.6585C17.1209 10.7519 17.4852 10.8733 17.1676 10.9387C17.3264 11.1349 17.5039 11.2283 17.5226 11.4525L17.2517 11.5179C17.4572 11.4805 17.1116 11.602 17.1676 11.63C17.3451 11.4992 17.4572 11.5739 17.616 11.5179C17.4665 11.7047 17.7374 11.7234 17.9523 11.6954L17.7935 11.7981C18.1391 11.686 17.9429 11.9476 17.971 12.0877C17.9149 12.1438 17.7841 12.2652 17.8215 12.2839C18.1111 12.1624 18.1111 12.1998 18.3259 12.1624C18.3726 12.2185 18.3913 12.3586 18.3446 12.4987C18.8491 12.4427 18.8397 12.835 19.2227 12.8537L19.0826 13.0312C19.6057 12.8817 19.559 13.4235 19.9046 13.3675L19.6524 13.6571C19.6431 13.7972 19.8486 13.6851 19.9887 13.4516C19.9794 13.5917 20.2316 13.3955 20.0915 13.6851C20.1102 13.7879 20.2596 13.5917 20.3343 13.5823C20.3717 13.7785 20.4371 13.7785 20.5772 13.7785L20.5585 13.7412C20.5025 13.8065 20.4184 13.9467 20.4371 13.984C20.5305 13.9186 20.5492 14.1615 20.7173 13.7318C20.7173 14.0307 21.0723 13.6664 21.035 14.0401C21.0723 13.9186 21.1097 13.9093 21.1471 13.8346C21.2405 13.8532 21.2685 14.1428 21.3993 13.956C21.3993 14.0214 21.3152 14.1522 21.3526 14.1709C21.3899 14.1335 21.3993 14.0121 21.446 13.956C21.6421 13.7692 21.6982 14.2549 21.857 14.2082C22.0999 13.9934 22.3334 14.0774 22.5109 13.984L22.5389 14.0681C22.4829 13.7225 22.8192 14.3577 22.6604 13.8439C22.7071 13.9186 22.7258 13.8532 22.7911 14.0214C22.7164 13.7879 23.0527 14.1522 22.9499 13.8346C22.9406 13.8346 22.9499 13.8532 22.9593 13.8906C23.1461 14.0121 23.0434 13.7505 23.2209 13.8252C23.2395 13.8626 23.2489 13.8906 23.3049 13.9653C23.4544 14.0681 23.1088 13.6197 23.4264 13.928C23.445 13.9093 23.2862 13.7598 23.2862 13.7785C23.5665 13.7505 23.5011 13.3582 23.5198 13.134C23.828 13.1059 24.1737 13.4702 23.9495 13.19C24.0336 13.218 23.8 13.1059 23.8841 13.1433C23.8 13.0405 24.3698 13.2741 24.183 13.1433C23.9308 13.0499 24.0522 13.0592 23.9028 12.9938C24.0989 12.9565 24.3418 13.0125 24.183 12.8537L24.3138 12.9098C23.9775 12.6762 24.2017 12.6108 23.7813 12.4147C23.8374 11.8635 23.5291 11.3778 23.3797 11.0321C23.3516 10.6398 22.9593 10.453 22.7631 9.94853C22.9126 9.59356 22.8846 9.58422 22.6884 9.62158C22.7258 9.57487 22.7444 9.56553 22.7725 9.51882C22.595 9.7617 22.679 9.48146 22.5016 9.72434C22.3708 9.57487 22.1746 9.55619 21.9878 9.47212C22.0345 9.45344 22.1559 9.22924 22.1092 9.23858L21.9878 9.39739L22.0158 9.31331C22.0158 9.31331 21.885 9.47212 21.8757 9.57487C21.3619 9.64026 20.9976 8.92097 20.3997 8.96768C20.269 8.8369 20.0728 8.949 19.942 9.02373C19.5123 8.63139 18.9798 8.37917 18.6249 8.79019C18.6249 8.79019 18.4474 8.0242 18.6249 7.78132L18.6809 7.8Z" fill="#C16A5E"/>
<path id="Vector_27" d="M18.2325 9.78032C18.1765 9.66822 18.0924 9.60283 18.0737 9.45337C18.1298 9.55612 18.2045 9.67756 18.2325 9.78032Z" fill="#C16A5E"/>
<path id="Vector_28" d="M15.7289 10.0511C15.7289 10.0511 15.6542 10.0698 15.6262 10.0698C15.6262 10.0324 15.5141 9.96704 15.5982 9.96704C15.5982 10.0044 15.6729 10.0137 15.7289 10.0511Z" fill="#C16A5E"/>
<path id="Vector_29" d="M15.505 10.7238C15.3649 10.7052 15.2715 10.537 15.2715 10.4436C15.3462 10.5464 15.4209 10.6398 15.505 10.7238Z" fill="#C16A5E"/>
<path id="Vector_30" d="M14.991 11.4617C14.8882 11.5458 14.8228 11.5365 14.8135 11.443C14.8882 11.4244 14.9256 11.443 14.991 11.4617Z" fill="#C16A5E"/>
<path id="Vector_31" d="M15.3085 11.4619C15.3179 11.518 15.2525 11.5553 15.1777 11.602C15.2898 11.574 15.075 11.4806 15.3085 11.4619Z" fill="#C16A5E"/>
<path id="Vector_32" d="M15.4111 12.9189C15.4111 12.9189 15.5699 12.947 15.4485 13.0404C15.5232 12.9563 15.2243 12.9937 15.4111 12.9189Z" fill="#C16A5E"/>
<path id="Vector_33" d="M15.8876 13.3113C15.8876 13.3113 15.8689 13.3486 15.9156 13.3486C15.8783 13.414 15.7755 13.4421 15.7568 13.4234L15.8876 13.3113Z" fill="#C16A5E"/>
<path id="Vector_34" d="M24.1827 16.1604L24.1547 16.2445L24.0986 16.123L24.1827 16.1604Z" fill="#C16A5E"/>
<path id="Vector_35" d="M26.4533 12.6854C26.3785 12.6201 26.5841 12.6668 26.6121 12.6574C26.6121 12.7135 26.4533 12.6107 26.4533 12.6854Z" fill="#C16A5E"/>
<path id="Vector_36" d="M25.7245 10.6208L25.7338 10.6302L25.4629 10.6956L25.7245 10.6208Z" fill="#C16A5E"/>
</g>
<g id="Group_5">
<path id="Vector_37" d="M28.1069 7.2486C28.1163 7.31399 28.2377 7.45411 28.1443 7.35136C28.0976 7.25794 28.0602 7.18321 28.1069 7.2486Z" fill="#C16A5E"/>
<path id="Vector_38" d="M32.8807 2.66206C33.4599 3.08242 32.778 2.82086 33.1329 3.12913C33.1516 3.15716 32.7966 2.93296 32.8714 2.99835C33.3011 3.35333 32.9368 3.30662 32.5257 3.1665L32.4323 3.10111C32.3576 3.07308 32.6472 3.28794 32.6005 3.27859C32.5351 3.24123 32.5164 3.2132 32.4323 3.1665C32.6192 3.28794 32.4977 3.25057 32.6285 3.35333C32.5538 3.30662 32.4043 3.22255 32.3202 3.17584L32.5257 3.3253C33.0115 3.68028 32.4417 3.37201 32.6752 3.57752C32.6285 3.54015 32.5911 3.51213 32.5444 3.48411C32.806 3.74567 32.6939 3.79237 32.7593 3.93249C32.6846 3.87645 32.5538 3.78303 32.4697 3.73632C32.6846 3.88579 32.7219 3.95118 32.7593 3.99788C32.5257 3.84842 32.9368 4.17537 32.7966 4.10998L32.7499 4.07262C32.9741 4.2501 32.6005 3.99789 32.8714 4.21274L32.6939 4.10064C33.0022 4.33418 32.5164 4.00723 32.6659 4.13801L32.7313 4.18471C32.7966 4.2501 32.6378 4.14735 32.6846 4.19405L32.6472 4.16603C32.7126 4.2501 32.5257 4.14735 32.7686 4.31549C32.5725 4.18471 32.7032 4.22208 32.4043 4.03525C32.5911 4.30615 32.4697 4.3622 32.4043 4.45561C32.3016 4.39022 32.2642 4.38088 32.1801 4.30615C32.2175 4.35286 32.1988 4.37154 32.3109 4.4743C32.3109 4.4743 32.1895 4.39022 32.1708 4.38088C32.068 4.32483 32.4136 4.59574 32.3016 4.53969C32.2455 4.48364 32.1708 4.41825 32.0774 4.35286C32.2455 4.51166 32.2081 4.51166 32.2548 4.57705C32.2175 4.53969 32.1988 4.52101 32.1241 4.46496C32.3202 4.65179 32.0493 4.46496 32.1708 4.58639L32.04 4.4743C31.8532 4.37154 32.3202 4.70783 32.1988 4.65178C32.1614 4.61442 32.1054 4.56771 32.0493 4.53035C32.2829 4.7452 32.1708 4.71718 32.2362 4.81059C32.2175 4.79191 32.1801 4.76388 32.1801 4.76388C32.1895 4.81059 32.096 4.77322 32.1801 4.88532C32.1147 4.84795 31.8532 4.61442 31.8812 4.67981C32.1521 4.904 31.9559 4.81059 32.2735 5.04413C32.2081 5.02544 32.0867 4.97873 32.1614 5.07215C32.068 4.97873 31.8251 4.81059 31.8251 4.77322L31.657 4.65178C31.5542 4.55837 31.7037 4.67047 31.5636 4.55837C31.5636 4.57705 31.6477 4.68915 31.6009 4.66113C31.7504 4.81059 32.04 5.09083 32.0493 5.14688C31.9559 5.04413 31.7504 4.904 31.713 4.8573L32.1895 5.32437C32.1895 5.32437 31.9839 5.14688 32.04 5.22161C32.1054 5.27766 32.1521 5.32437 32.1988 5.38042C32.1708 5.36173 32.2268 5.47383 31.9746 5.24964C31.8718 5.16556 31.9372 5.18425 31.8345 5.11886C31.8251 5.13754 31.9092 5.21227 31.8999 5.23095L31.8625 5.20293C31.8158 5.18425 31.9466 5.33371 32.096 5.44581C32.1147 5.44581 31.9372 5.31503 32.0213 5.37107C32.1614 5.5112 32.1895 5.56725 32.1801 5.58593C32.1427 5.53922 32.0774 5.48317 32.0026 5.41778C32.1801 5.61395 32.2268 5.69802 32.2829 5.80078C32.4043 5.91288 32.068 5.59527 32.1428 5.65132C31.9466 5.52988 32.3202 5.93156 32.0493 5.73539C32.0307 5.70737 32.2175 5.88485 32.1895 5.85683C32.1614 5.85683 31.9839 5.69802 32.04 5.76342C31.9372 5.67 32.0587 5.81012 32.0867 5.84749C32.1521 5.92222 32.0307 5.80078 32.0307 5.7821C32.1054 5.87551 32.2081 6.08102 32.0307 5.96893C32.096 6.03432 32.2548 6.22115 32.2362 6.22115L32.0867 6.07168C31.9839 5.98761 32.0774 6.10905 31.9466 5.98761C32.1241 6.18378 31.8438 5.77276 31.9653 5.93156C31.8345 5.81012 32.1801 6.19312 31.9746 5.98761C31.9746 6.00629 32.1241 6.18378 31.9746 6.06234C32.0026 6.08102 31.7691 5.84749 31.7691 5.86617C31.7691 5.91288 31.8345 5.9409 31.8718 6.00629L31.9279 6.08102C32.0774 6.23049 31.8905 6.08102 32.068 6.23049C31.9466 6.11839 32.1147 6.33324 31.8718 6.09036L31.6757 5.8942C31.6757 5.8942 31.8625 6.10905 31.9466 6.20246C31.9279 6.18378 31.8905 6.14641 31.8532 6.11839C32.1521 6.40797 31.8065 6.11839 32.0307 6.35193C31.9092 6.26785 31.9746 6.38929 31.7784 6.22115C31.8532 6.3239 31.9466 6.44534 31.8625 6.39863C31.8345 6.37061 31.8345 6.35192 31.7691 6.28654C31.6757 6.2118 31.7504 6.28654 31.7878 6.35193C31.7504 6.30522 31.5916 6.20246 31.4795 6.10905C31.5542 6.2118 31.713 6.37061 31.8065 6.46402C31.5075 6.18378 31.9466 6.69756 31.6757 6.44534C31.6383 6.39863 31.5542 6.27719 31.4702 6.22115C31.1712 5.9409 31.657 6.46402 31.4982 6.34258L31.7411 6.58546C31.5823 6.44534 31.8438 6.76295 31.6103 6.51073C31.685 6.60414 31.5075 6.45468 31.7411 6.68822C31.5169 6.52007 31.7691 6.89373 31.3394 6.48271C31.3768 6.52941 31.3207 6.50139 31.4421 6.62283C31.5729 6.75361 31.3674 6.51073 31.4515 6.60414C31.4515 6.61349 31.5169 6.67887 31.5449 6.71624C31.4795 6.66953 31.4608 6.66019 31.2833 6.45468C31.1152 6.3239 31.6383 6.89373 31.5169 6.82834C31.4235 6.72558 31.3861 6.68822 31.3954 6.71624L31.5356 6.90307C31.4795 6.88439 31.3114 6.68822 31.1526 6.51073C31.1712 6.54809 31.1526 6.55744 31.2553 6.68822L31.0405 6.48271C31.1899 6.63217 31.1245 6.5948 31.1619 6.64151L31.1245 6.5948C31.0591 6.52007 31.0872 6.57612 31.0965 6.60414C31.1899 6.7069 31.246 6.74427 31.2833 6.76295C31.3487 6.84702 31.3207 6.83768 31.3954 6.93109C31.246 6.76295 31.2647 6.82834 31.246 6.819C31.1993 6.79097 31.3674 6.9778 31.3581 6.9778C31.274 6.89373 31.33 6.9778 31.2273 6.84702C31.2086 6.819 31.3114 6.92175 31.246 6.84702C31.1806 6.79097 31.0405 6.63217 31.1339 6.75361C31.1993 6.84702 31.4328 7.0899 31.3207 6.99648C31.2833 6.94978 31.2273 6.88439 31.1806 6.819L31.0872 6.74427L31.2273 6.90307C31.2273 6.90307 31.1806 6.84702 31.1619 6.82834C31.302 6.99648 31.1806 6.90307 31.3394 7.0899C31.3394 7.11792 31.2273 6.99648 31.1993 6.98714V6.96846C31.0965 6.88439 31.1339 6.96846 31.2179 7.07122L31.1899 7.03385C31.1899 7.03385 31.1806 7.06187 31.2553 7.16463C31.1339 7.06187 30.7322 6.57612 30.891 6.79097C30.8817 6.80966 31.1152 7.09924 31.2086 7.19265C31.0872 7.10858 31.274 7.39817 31.0405 7.17397C31.0872 7.23936 31.1245 7.27673 31.1526 7.32343C31.0591 7.29541 31.2179 7.59434 30.9284 7.30475C30.8817 7.23002 30.7976 7.14595 30.7229 7.05253C30.8349 7.202 30.5921 6.91241 30.7882 7.16463C30.9097 7.30475 30.9657 7.37948 31.0218 7.42619C31.0591 7.52894 31.0218 7.55697 30.891 7.42619C30.9564 7.49158 30.9844 7.53829 31.0124 7.58499C30.8256 7.35146 30.7789 7.33278 30.8256 7.42619L30.9377 7.56631L30.8069 7.42619C30.8349 7.4729 31.0405 7.72512 30.919 7.60368C30.8723 7.54763 30.8256 7.49158 30.7976 7.45421C30.8723 7.58499 31.0124 7.79985 30.9003 7.68775L30.7229 7.49158C30.7229 7.49158 30.8256 7.65973 30.8817 7.70643C30.7509 7.60368 30.7229 7.60368 30.5734 7.42619C30.8723 7.9026 30.8163 7.98668 30.7322 7.99602L30.6481 7.88392C30.5547 7.7905 30.7882 8.08009 30.7135 8.0147C30.6388 7.9026 30.5267 7.79985 30.4426 7.65973C30.3305 7.55697 30.5547 7.86524 30.5827 7.93063C30.6855 8.08009 30.5267 7.82787 30.6575 8.0147C30.6948 8.07075 30.5454 7.92129 30.7042 8.14548C30.6388 8.06141 30.5173 7.9026 30.4613 7.80919L30.5267 7.92128C30.3212 7.67841 30.2278 7.43553 29.9755 7.13661L29.9942 7.18331C29.8167 6.95912 29.8354 6.90307 29.742 6.84702C29.8074 6.95912 30.0316 7.28607 30.1157 7.37948C30.1343 7.46356 30.4893 7.91194 30.4426 7.91194C30.3399 7.79051 30.4426 7.86524 30.3025 7.68775C30.1624 7.5196 30.3492 7.80919 30.2931 7.75314C30.3679 7.82787 30.5173 8.05207 30.536 8.09877C30.4426 8.00536 30.3959 7.88392 30.3585 7.87458C30.452 8.00536 30.4987 8.11746 30.5827 8.19219C30.7882 8.48177 30.4987 8.1268 30.6481 8.36033C30.4893 8.16416 30.3305 7.87458 30.2371 7.79051C30.3866 7.98668 30.3959 8.08009 30.6201 8.36033C30.5734 8.31362 30.4613 8.15482 30.3772 8.03338C30.2745 7.92129 30.6014 8.41638 30.3212 8.03338L30.4613 8.23889C30.4052 8.1735 30.3679 8.1268 30.2838 8.03338C30.2651 8.03338 30.4426 8.33231 30.2278 8.03338C30.2464 8.07075 30.2091 8.07075 30.3679 8.27626C30.48 8.38836 30.2745 8.10811 30.4893 8.38836C30.3118 8.16416 30.4893 8.43506 30.5267 8.51914L30.4426 8.40704C30.4706 8.45375 30.4426 8.44441 30.5267 8.57519C30.48 8.50045 30.4239 8.42572 30.3959 8.3977L30.5173 8.58453C30.5547 8.68728 30.2931 8.27626 30.3025 8.34165L30.2184 8.19219C30.2184 8.19219 30.1063 8.06141 30.1343 8.1268C30.2464 8.29494 30.3772 8.49111 30.4613 8.62189C30.4987 8.70597 30.3305 8.44441 30.4333 8.62189L30.3118 8.41638C30.2745 8.36033 30.1157 8.15482 30.097 8.1735C30.125 8.23889 30.2745 8.49111 30.3492 8.56584C30.3492 8.56584 30.2558 8.48177 30.181 8.36033C30.1997 8.43506 30.3025 8.53782 30.3585 8.64992C30.2745 8.54716 30.153 8.3977 30.0222 8.25758L29.8541 7.96799H29.8448C29.7046 7.7438 29.7233 7.80919 29.5739 7.56631C29.5365 7.53829 29.5832 7.62236 29.6206 7.68775C29.9008 8.04272 29.9382 8.22021 30.181 8.5565C30.2091 8.6686 29.6019 7.73446 29.9288 8.29494C29.9942 8.37902 30.153 8.64992 30.1063 8.53782C30.0596 8.5098 30.3212 8.89279 30.1997 8.76201C30.125 8.61255 29.9475 8.42572 29.8354 8.20153C29.9101 8.31362 29.9101 8.27626 29.8915 8.23889C29.798 8.11746 29.6579 7.89326 29.6392 7.9026C29.6486 7.93997 29.6392 7.95865 29.7607 8.13614C29.8915 8.33231 29.7607 8.09877 29.8915 8.30428C29.9101 8.38836 29.7046 8.08943 29.9288 8.45375C29.9288 8.41638 30.069 8.61255 30.153 8.75267L30.1904 8.84609L30.1063 8.71531C30.0129 8.64058 30.2558 8.95818 30.1997 8.9395L30.0129 8.68728C29.8728 8.46309 30.125 8.76201 29.8821 8.3977C29.8541 8.3977 29.9662 8.58453 29.8821 8.50045C29.8634 8.46309 29.8634 8.45375 29.8448 8.41638C29.8261 8.41638 29.5085 7.93063 29.6673 8.22955C29.7233 8.35099 29.7513 8.36033 29.8354 8.50045C29.8354 8.56584 29.9101 8.70597 29.9008 8.74333C29.7327 8.47243 29.8448 8.74333 29.6953 8.45375C29.8074 8.60321 29.8448 8.5565 29.6953 8.29494C29.4804 7.98668 29.7513 8.32297 29.5458 7.99602C29.5178 7.99602 29.3123 7.69709 29.1815 7.49158C29.1628 7.48224 29.2189 7.57565 29.2282 7.60368C29.359 7.79051 29.3497 7.79051 29.4804 7.98668C29.4244 7.94931 29.4618 8.07075 29.5645 8.27626C29.4898 8.18285 29.3777 7.99602 29.3777 7.96799C29.3777 8.04272 29.331 8.04272 29.2656 8.00536C29.4804 8.30428 29.2749 8.09877 29.4524 8.35099C29.5085 8.40704 29.6673 8.63123 29.7513 8.77136C29.7233 8.76201 29.6673 8.63123 29.6206 8.56584C29.714 8.74333 29.4244 8.30428 29.5832 8.58453C29.5458 8.46309 29.3497 8.19219 29.2002 7.93997C29.2656 8.08943 29.0881 7.76248 29.0694 7.77182C29.1348 7.92129 29.1722 8.05206 29.1909 8.11746C29.0134 7.9026 29.1161 8.15482 29.0881 8.18285C28.9947 8.06141 28.8359 7.77182 28.7892 7.73446C28.7798 7.75314 28.9853 8.03338 28.8826 7.92128L28.8546 7.86524C28.8826 7.93997 28.6958 7.69709 28.9293 8.10811L28.7518 7.79051C28.7518 7.79051 28.7705 7.83721 28.7798 7.87458C28.7238 7.77182 28.6584 7.68775 28.6304 7.61302C28.4902 7.40751 28.621 7.66907 28.6023 7.68775L28.7238 7.86524C28.7798 8.02404 28.6491 7.86524 28.6584 7.93997L28.5556 7.76248L28.6023 7.88392C28.5089 7.70643 28.4249 7.60368 28.4996 7.75314L28.2847 7.28607C28.3595 7.38882 28.3968 7.51026 28.5089 7.67841C28.6023 7.82787 28.6023 7.76248 28.5089 7.59434C28.4903 7.57565 28.5089 7.62236 28.537 7.68775C28.3875 7.43553 28.4062 7.44487 28.3221 7.26739C28.3221 7.27673 28.2754 7.21134 28.3221 7.28607C28.2567 7.15529 28.2567 7.13661 28.2754 7.11792C28.3221 7.22068 28.3688 7.26739 28.4062 7.34212C28.2754 7.11792 28.2567 7.04319 28.3128 7.09924C28.4716 7.34212 28.2567 6.91241 28.3128 6.96846C28.4342 7.19265 28.5276 7.37948 28.565 7.4729C28.6491 7.57565 28.5743 7.45421 28.6584 7.55697C28.565 7.38882 28.4249 7.13661 28.3782 7.02451L28.4809 7.18331C28.4435 7.0899 28.3034 6.84702 28.3501 6.88439C28.4342 6.94043 28.4716 6.92175 28.5089 6.92175L28.6117 7.08056C28.4155 6.72558 28.5837 6.92175 28.5089 6.75361C28.6397 6.88439 28.4903 6.55744 28.6771 6.819C28.6584 6.66019 28.6397 6.51073 28.7331 6.52007L28.8732 6.75361C28.7705 6.57612 28.9667 6.88439 28.9573 6.83768C28.8265 6.66019 28.8172 6.58546 28.7238 6.44534C28.8732 6.60414 28.7798 6.38929 28.6864 6.2118L28.7985 6.37061C28.621 6.06234 28.8265 6.29588 28.8919 6.3239C28.9386 6.38929 29.0507 6.52941 29.0414 6.50139C28.8826 6.23983 28.9013 6.24917 28.8172 6.08102C28.8359 6.07168 28.9106 6.10905 28.9947 6.19312C28.8079 5.80078 29.0321 5.96893 28.948 5.71671L29.0881 5.8942C28.8639 5.46449 29.2002 5.75407 29.1068 5.52054L29.3403 5.8288C29.4337 5.90354 29.3123 5.71671 29.1442 5.5112C29.2376 5.58593 29.0694 5.33371 29.2749 5.56725C29.331 5.60461 29.1815 5.41778 29.1628 5.36173C29.2843 5.44581 29.2749 5.40844 29.2656 5.33371H29.2469C29.2936 5.38976 29.3964 5.5112 29.4244 5.52988C29.3683 5.43647 29.5365 5.57659 29.2282 5.23095C29.4244 5.40844 29.1628 5.00676 29.4244 5.24964C29.3403 5.15622 29.331 5.1282 29.2843 5.06281C29.3123 5.03478 29.4991 5.20293 29.387 5.02544C29.4337 5.07215 29.5178 5.19359 29.5365 5.19359C29.5085 5.15622 29.4337 5.07215 29.3964 5.00676C29.2936 4.79191 29.6486 5.10951 29.6486 5.02544C29.5645 4.78257 29.714 4.80125 29.7607 4.70783L29.8261 4.77322C29.6112 4.50232 30.125 4.97873 29.7794 4.58639C29.8448 4.64244 29.8261 4.59574 29.9475 4.72652C29.798 4.53035 30.1624 4.84795 29.9662 4.59574C29.9662 4.59574 29.9662 4.60508 29.9942 4.6331C30.1624 4.75454 29.9942 4.53035 30.1437 4.6331C30.1717 4.66113 30.181 4.68915 30.2464 4.75454C30.3772 4.86664 30.0036 4.45562 30.3212 4.75454C30.3212 4.75454 30.1717 4.59574 30.1717 4.60508C30.3585 4.66113 30.2184 4.39957 30.1997 4.26879C30.4333 4.40891 30.7415 4.77322 30.536 4.51166C30.6014 4.56771 30.4146 4.39022 30.48 4.45561C30.4052 4.3622 30.863 4.77322 30.7042 4.60508C30.4987 4.42759 30.6014 4.49298 30.48 4.38088C30.6388 4.4743 30.8163 4.6331 30.6948 4.46496L30.7976 4.55837C30.5267 4.25944 30.7135 4.37154 30.3866 4.03525C30.452 3.83908 30.3866 3.53081 30.452 3.35333C30.6388 3.26925 30.5827 2.99835 30.8817 2.99835C31.2086 3.18518 31.1993 3.17584 31.1059 3.04506C31.1526 3.08242 31.1619 3.09177 31.2086 3.11979C30.9657 2.9423 31.2086 3.07308 30.9751 2.90494C31.0591 2.88625 31.0311 2.7835 31.0685 2.72745C31.0872 2.75547 31.2927 2.90494 31.2833 2.87691L31.1339 2.75547L31.2086 2.80218C31.2086 2.80218 31.0591 2.6714 30.9751 2.62469C30.8536 2.33511 31.4608 2.53128 31.4888 2.33511C31.6196 2.36313 31.5542 2.25104 31.5169 2.18565C31.9372 2.27906 32.2829 2.32577 32.1054 2.06421C32.1054 2.06421 32.7873 2.46589 32.9181 2.60601L32.8807 2.66206Z" fill="#C16A5E"/>
<path id="Vector_39" d="M28.1162 7.21143C28.2003 7.34221 28.2563 7.4076 28.3404 7.59442C28.2657 7.47299 28.1816 7.33286 28.1162 7.21143Z" fill="#C16A5E"/>
<path id="Vector_40" d="M29.3491 8.31348C29.3491 8.31348 29.3865 8.36018 29.4052 8.37887C29.4052 8.38821 29.4706 8.50031 29.4239 8.44426C29.4239 8.43492 29.3865 8.36953 29.3491 8.31348Z" fill="#C16A5E"/>
<path id="Vector_41" d="M29.5078 8.31348C29.5825 8.42557 29.6106 8.53767 29.6106 8.55635L29.5078 8.31348Z" fill="#C16A5E"/>
<path id="Vector_42" d="M29.9194 8.71533C29.9942 8.80875 30.0222 8.86479 30.0128 8.86479C29.9755 8.7994 29.9568 8.77138 29.9194 8.71533Z" fill="#C16A5E"/>
<path id="Vector_43" d="M29.7603 8.45386C29.7603 8.45386 29.8163 8.50991 29.863 8.5753C29.7976 8.48188 29.8817 8.65003 29.7603 8.45386Z" fill="#C16A5E"/>
<path id="Vector_44" d="M30.2091 8.63112C30.2091 8.63112 30.153 8.51902 30.2464 8.63112C30.181 8.54705 30.3118 8.78992 30.2091 8.63112Z" fill="#C16A5E"/>
<path id="Vector_45" d="M30.1993 8.37897C30.1993 8.37897 30.2273 8.40699 30.1993 8.36963C30.2366 8.41634 30.2927 8.50041 30.2927 8.51909L30.1899 8.37897H30.1993Z" fill="#C16A5E"/>
<path id="Vector_46" d="M31.6474 6.49202L31.6847 6.54807L31.5913 6.44531L31.6474 6.49202Z" fill="#C16A5E"/>
<path id="Vector_47" d="M32.3386 5.76336C32.2825 5.69797 32.4413 5.83809 32.46 5.85677C32.46 5.87545 32.3386 5.74467 32.3386 5.76336Z" fill="#C16A5E"/>
<path id="Vector_48" d="M32.1611 4.92285L31.9463 4.74536L32.1611 4.92285Z" fill="#C16A5E"/>
</g>
<g id="Group_6">
<path id="Vector_49" d="M31.5634 8.6875C31.5447 8.76223 31.6475 8.91169 31.5727 8.7996C31.5447 8.69684 31.526 8.61277 31.5634 8.6875Z" fill="#C16A5E"/>
<path id="Vector_50" d="M39.6159 4.21297C40.0175 4.81082 39.4197 4.38111 39.6346 4.80148C39.6439 4.8295 39.373 4.51189 39.4197 4.60531C39.6999 5.1004 39.3263 4.97896 38.9433 4.74543L38.8779 4.65201C38.8032 4.60531 39.018 4.90423 38.962 4.88555C38.9153 4.8295 38.9059 4.80148 38.8312 4.72675C38.9713 4.89489 38.8592 4.83884 38.9526 4.96962C38.8872 4.91357 38.7751 4.77345 38.7004 4.7174L38.8499 4.92292C39.1955 5.40867 38.7378 4.96028 38.8872 5.24052C38.8499 5.19382 38.8312 5.15645 38.7845 5.10974C38.9339 5.45538 38.7845 5.4834 38.7845 5.66089C38.7284 5.58616 38.635 5.45538 38.5696 5.38999C38.7284 5.5955 38.7471 5.67957 38.7565 5.73562C38.579 5.53011 38.8686 5.95981 38.7471 5.8664L38.7097 5.81969C38.8686 6.06257 38.579 5.71694 38.7658 5.99718L38.6163 5.83838C38.8405 6.14664 38.4669 5.7076 38.5603 5.87574L38.607 5.94113C38.6444 6.0252 38.5229 5.88508 38.5416 5.94113L38.5136 5.90377C38.5416 6.01586 38.3828 5.85706 38.5696 6.09994C38.4108 5.92245 38.5416 5.98784 38.3081 5.72628C38.3735 6.06257 38.2147 6.10928 38.0932 6.20269C38.0091 6.11862 37.9811 6.09059 37.9064 6.00652C37.9251 6.06257 37.897 6.08125 37.9718 6.21203C37.9718 6.21203 37.8784 6.09059 37.8597 6.09059C37.7756 6.01586 38.0278 6.37084 37.9251 6.28676C37.8877 6.21203 37.8317 6.1373 37.7663 6.04389C37.8784 6.2494 37.8317 6.24006 37.8503 6.31479C37.8223 6.26808 37.813 6.24006 37.7569 6.16533C37.8877 6.39886 37.6728 6.15598 37.7569 6.30545L37.6635 6.15598C37.5047 6.01586 37.8597 6.45491 37.7569 6.38018C37.7382 6.33347 37.6915 6.27742 37.6542 6.22137C37.8036 6.50162 37.6915 6.45491 37.7196 6.55767C37.7102 6.53898 37.6822 6.50162 37.6822 6.50162C37.6729 6.55767 37.5794 6.50162 37.6168 6.64174C37.5608 6.58569 37.3833 6.28676 37.3833 6.37084C37.5794 6.66042 37.4019 6.52964 37.6448 6.83791C37.5794 6.80988 37.458 6.73515 37.5047 6.84725C37.4487 6.72581 37.2525 6.50162 37.2618 6.46425L37.1217 6.30545C37.047 6.18401 37.1684 6.33347 37.0657 6.18401C37.0657 6.20269 37.103 6.34281 37.0657 6.30545C37.1591 6.50162 37.3552 6.84725 37.3459 6.9033C37.2899 6.78186 37.1217 6.59503 37.103 6.52964L37.4113 7.11815C37.4113 7.11815 37.2618 6.89396 37.2899 6.97803C37.3459 7.05276 37.3646 7.10881 37.4019 7.1742C37.3739 7.14617 37.4019 7.2863 37.2058 6.99671C37.131 6.88462 37.1871 6.92198 37.103 6.82857C37.0843 6.84725 37.1404 6.94066 37.1217 6.96869L37.0937 6.93132C37.0937 6.93132 37.1217 7.08079 37.2431 7.23025C37.2618 7.23025 37.131 7.0621 37.1964 7.13683C37.2899 7.31432 37.2898 7.37971 37.2712 7.39839C37.2525 7.34235 37.1964 7.26761 37.1497 7.18354C37.2618 7.42642 37.2712 7.52917 37.2899 7.64127C37.3739 7.78139 37.1497 7.37971 37.1964 7.45444C37.0283 7.29564 37.2712 7.79073 37.0563 7.53852C37.0563 7.51049 37.1778 7.73469 37.1591 7.69732C37.1217 7.69732 37.0003 7.49181 37.0283 7.57588C36.9536 7.46378 37.0283 7.62259 37.0376 7.6693C37.0843 7.76271 37.0003 7.61325 37.0003 7.59456C37.0376 7.70666 37.0657 7.9402 36.9069 7.80008C36.9536 7.87481 37.047 8.10834 37.0283 8.10834L36.9255 7.92151C36.8508 7.81876 36.8975 7.95888 36.7948 7.80942C36.9069 8.04295 36.7761 7.56654 36.8508 7.75337C36.748 7.60391 36.9816 8.07098 36.8321 7.81876C36.8134 7.83744 36.9162 8.06164 36.7854 7.90283C36.8134 7.93086 36.6546 7.64127 36.6453 7.65995C36.636 7.716 36.692 7.75337 36.7013 7.8281L36.7294 7.91217C36.8321 8.08966 36.6827 7.91217 36.8134 8.099C36.72 7.94954 36.8134 8.22044 36.6453 7.92151L36.5145 7.68798C36.5145 7.68798 36.6359 7.94954 36.6827 8.06164C36.664 8.04295 36.6359 7.99625 36.6173 7.95888C36.8228 8.3232 36.5612 7.95888 36.7107 8.23912C36.6079 8.13637 36.6266 8.27649 36.4771 8.06164C36.5145 8.18307 36.5706 8.3232 36.4958 8.26715C36.4771 8.22978 36.4865 8.2111 36.4398 8.13637C36.365 8.04295 36.4118 8.13637 36.4304 8.20176C36.4024 8.14571 36.2716 8.00559 36.1876 7.89349C36.2249 8.01493 36.3464 8.20176 36.4118 8.3232C36.1876 7.97756 36.4771 8.5941 36.2623 8.28583C36.2436 8.22978 36.1969 8.08966 36.1315 8.01493C35.9073 7.6693 36.2343 8.30451 36.1035 8.15505L36.281 8.44463C36.1595 8.26715 36.3277 8.65015 36.1595 8.34188C36.2062 8.45398 36.0661 8.26715 36.2249 8.55673C36.0288 8.34188 36.1689 8.78093 35.8419 8.27649C35.8606 8.33254 35.8139 8.28583 35.898 8.43529C36.0007 8.5941 35.8513 8.30451 35.9167 8.41661C35.9167 8.42595 35.954 8.51002 35.9727 8.54739C35.9167 8.49134 35.8886 8.47266 35.7765 8.22044C35.6364 8.06164 36.0007 8.74356 35.8886 8.65015C35.8232 8.52871 35.7952 8.482 35.7952 8.51002L35.8793 8.73422C35.8232 8.70619 35.7111 8.46332 35.6084 8.25781C35.6084 8.30451 35.5804 8.30451 35.6551 8.46332L35.4963 8.2111C35.6084 8.38859 35.543 8.34188 35.5617 8.39793L35.543 8.34188C35.4963 8.25781 35.5056 8.3232 35.5056 8.35122C35.571 8.482 35.6177 8.51937 35.6551 8.54739C35.6925 8.6408 35.6644 8.63146 35.7111 8.74356C35.6084 8.53805 35.6084 8.61278 35.5804 8.60344C35.543 8.56607 35.6551 8.79961 35.6458 8.79027C35.5897 8.68751 35.6084 8.79027 35.543 8.63146C35.5337 8.5941 35.6084 8.72488 35.571 8.63146C35.5243 8.55673 35.4309 8.3699 35.4776 8.51937C35.515 8.63146 35.6831 8.92105 35.5897 8.80895C35.571 8.7529 35.5337 8.66883 35.5056 8.5941L35.4216 8.50068L35.515 8.68751C35.515 8.68751 35.4776 8.62212 35.4683 8.60344C35.5617 8.79961 35.4496 8.68751 35.5617 8.91171C35.5617 8.93973 35.4683 8.79961 35.4402 8.78093V8.76224C35.3655 8.65949 35.3749 8.74356 35.4216 8.87434L35.4029 8.83697C35.4029 8.83697 35.3749 8.865 35.4216 8.98644C35.3282 8.85566 35.0666 8.28583 35.1507 8.53805C35.132 8.55673 35.2814 8.90236 35.3468 9.01446C35.2441 8.91171 35.3468 9.23866 35.1507 8.96775C35.1787 9.04249 35.2067 9.08919 35.2161 9.14524C35.1133 9.10788 35.1787 9.43483 34.9545 9.08919C34.9358 9.00512 34.8704 8.90236 34.8144 8.79027C34.8798 8.96775 34.7116 8.62212 34.8424 8.91171C34.9265 9.07985 34.9638 9.16392 35.0105 9.21997C35.0105 9.33207 34.9545 9.36009 34.8517 9.21063C34.8984 9.28536 34.9171 9.34141 34.9265 9.39746C34.805 9.12656 34.7583 9.09853 34.777 9.20129L34.8517 9.36944L34.7583 9.20129C34.777 9.25734 34.9078 9.55626 34.8144 9.4068C34.7863 9.34141 34.749 9.27602 34.7303 9.22931C34.7677 9.37878 34.8424 9.62165 34.749 9.49087L34.6182 9.25734C34.6182 9.25734 34.6649 9.44417 34.721 9.50956C34.6089 9.37878 34.5808 9.37878 34.4687 9.17327C34.6275 9.72441 34.5248 9.7898 34.422 9.7898L34.366 9.65902C34.2913 9.54692 34.4501 9.88321 34.394 9.79914C34.3473 9.6777 34.2632 9.54692 34.2165 9.38812C34.1231 9.26668 34.2632 9.62165 34.2726 9.68704C34.338 9.85519 34.2445 9.57495 34.3286 9.7898C34.3473 9.85519 34.2259 9.6777 34.3286 9.92992C34.2819 9.83651 34.2072 9.64968 34.1698 9.54692L34.1978 9.6777C34.0484 9.39746 34.0297 9.1359 33.8522 8.78093V8.82763C33.7214 8.57541 33.7775 8.51002 33.6934 8.44463C33.7308 8.57541 33.8615 8.94907 33.9269 9.05183C33.9176 9.1359 34.1605 9.65902 34.1044 9.65902C34.0297 9.5189 34.1231 9.61231 34.0297 9.4068C33.9269 9.21063 34.0297 9.53758 33.983 9.47219C34.039 9.55626 34.1324 9.81782 34.1324 9.87387C34.0577 9.76178 34.0484 9.631 34.0017 9.62165C34.0577 9.77112 34.0671 9.89256 34.1418 9.97663C34.2632 10.3129 34.0671 9.9019 34.1605 10.1635C34.0577 9.93926 33.9736 9.61231 33.8896 9.50956C33.983 9.73375 33.9643 9.83651 34.1231 10.1541C34.0857 10.0981 34.011 9.92058 33.9643 9.78046C33.8896 9.64968 34.0764 10.2102 33.8896 9.77112L33.9736 10.0047C33.9363 9.92992 33.9083 9.88321 33.8429 9.76178C33.8242 9.76178 33.9083 10.0981 33.7681 9.75243C33.7681 9.7898 33.7308 9.7898 33.8429 10.0233C33.9269 10.1635 33.8055 9.83651 33.9456 10.1541C33.8242 9.9019 33.9176 10.2008 33.9456 10.2942L33.8896 10.1635C33.8989 10.2195 33.8709 10.2008 33.9176 10.3409C33.8989 10.2569 33.8522 10.1728 33.8335 10.1448L33.9083 10.3503C33.9083 10.4624 33.7588 9.99531 33.7494 10.07L33.7121 9.9019C33.7121 9.9019 33.6374 9.75243 33.6374 9.81782C33.7027 10.0047 33.7775 10.2382 33.8335 10.3783C33.8429 10.4717 33.7401 10.1728 33.7962 10.3783L33.7308 10.1448C33.7121 10.0794 33.5906 9.84585 33.572 9.85519C33.572 9.92992 33.656 10.2102 33.7214 10.2942C33.7121 10.2942 33.6467 10.1915 33.6093 10.0514C33.6093 10.1261 33.6934 10.2475 33.7121 10.3783C33.6467 10.2569 33.5533 10.0887 33.4599 9.92058L33.3664 9.59363H33.3478C33.273 9.34141 33.2637 9.4068 33.1796 9.14524C33.1516 9.10788 33.1796 9.20129 33.1796 9.27602C33.3758 9.68704 33.3571 9.87387 33.5159 10.2475C33.5066 10.369 33.1329 9.32273 33.3104 9.9486C33.3571 10.042 33.4412 10.3503 33.4318 10.2288C33.3851 10.2008 33.5533 10.6212 33.4599 10.4811C33.4318 10.3129 33.2824 10.0981 33.2357 9.85519C33.2824 9.98597 33.2917 9.9486 33.2824 9.9019C33.217 9.76178 33.1423 9.50956 33.1049 9.52824C33.1049 9.57495 33.0769 9.59363 33.1516 9.7898C33.2357 10.014 33.1703 9.75243 33.245 9.98597C33.2357 10.0794 33.1049 9.74309 33.2357 10.1448C33.245 10.1074 33.3384 10.3316 33.3945 10.4811V10.5838L33.3478 10.4344C33.2637 10.3409 33.4318 10.7053 33.3758 10.6866L33.245 10.4063C33.1609 10.1541 33.3478 10.4904 33.189 10.0887C33.1516 10.0887 33.217 10.2942 33.1516 10.2008C33.1516 10.1635 33.1516 10.1541 33.1423 10.1167C33.1236 10.1074 32.9181 9.56561 32.9928 9.9019C33.0208 10.0327 33.0395 10.0514 33.0956 10.2008C33.0675 10.2662 33.1049 10.425 33.0956 10.4624C32.9928 10.1635 33.0302 10.453 32.9554 10.1354C33.0302 10.3036 33.0956 10.2662 33.0115 9.97663C32.8714 9.631 33.0675 10.014 32.9461 9.64968C32.9087 9.64968 32.7873 9.30405 32.6939 9.07985C32.6752 9.07051 32.7032 9.16392 32.7125 9.20129C32.7873 9.41614 32.7966 9.4068 32.8807 9.631C32.8246 9.58429 32.8246 9.72441 32.8807 9.93926C32.834 9.83651 32.7593 9.62165 32.7686 9.59363C32.7406 9.6777 32.6845 9.65902 32.6191 9.61231C32.7686 9.95795 32.6005 9.71507 32.7219 9.99531C32.7779 10.07 32.8807 10.3129 32.9181 10.4717C32.8994 10.453 32.862 10.3129 32.834 10.2475C32.8807 10.4437 32.6939 9.9486 32.7779 10.2569C32.7779 10.1261 32.6378 9.82717 32.5537 9.54692C32.5724 9.71507 32.4884 9.35075 32.4603 9.36009C32.479 9.52824 32.4884 9.65902 32.4697 9.73375C32.3389 9.48153 32.3576 9.76178 32.3202 9.7898C32.2548 9.65902 32.1614 9.34141 32.124 9.28536C32.1054 9.30405 32.2548 9.62165 32.1707 9.49087L32.1521 9.42548C32.1614 9.50022 32.0119 9.23866 32.1521 9.68704L32.0587 9.34141C32.0587 9.34141 32.0587 9.39746 32.0587 9.43483C32.0213 9.32273 31.9839 9.22931 31.9746 9.14524C31.8812 8.92105 31.9372 9.20129 31.9185 9.21997L32.0026 9.41614C32.0026 9.58429 31.9185 9.39746 31.8998 9.48153L31.8438 9.28536V9.41614C31.8064 9.21997 31.741 9.10788 31.7784 9.26668L31.6943 8.76224C31.7504 8.87434 31.7504 9.00512 31.8251 9.20129C31.8905 9.36944 31.9092 9.30405 31.8531 9.10788C31.8345 9.08919 31.8531 9.1359 31.8531 9.21063C31.7597 8.93973 31.7877 8.93973 31.741 8.7529C31.741 8.76224 31.7037 8.68751 31.7224 8.77158C31.6943 8.63146 31.7037 8.60344 31.7224 8.5941C31.741 8.70619 31.7877 8.76224 31.8064 8.84632C31.7317 8.60344 31.7317 8.51937 31.7877 8.57541C31.8998 8.84632 31.7878 8.37924 31.8438 8.44463C31.9092 8.69685 31.9559 8.89302 31.9652 9.00512C32.0306 9.11722 31.9839 8.98644 32.0493 9.10788C32.0026 8.92105 31.9185 8.6408 31.9092 8.51937L31.9652 8.69685C31.9652 8.5941 31.8718 8.33254 31.9185 8.3699C32.0026 8.44463 32.0586 8.41661 32.1147 8.42595L32.1801 8.60344C32.0773 8.2111 32.2081 8.43529 32.1801 8.24846C32.2922 8.39793 32.2361 8.03361 32.3763 8.33254C32.423 8.16439 32.4603 8.00559 32.5818 8.02427L32.6565 8.28583C32.6005 8.08966 32.7219 8.42595 32.7312 8.38859C32.6378 8.19242 32.6565 8.10834 32.6098 7.94954C32.7312 8.13637 32.7032 7.89349 32.6752 7.69732L32.7406 7.87481C32.6472 7.52917 32.806 7.80008 32.8807 7.83744C32.9181 7.91217 32.9928 8.07098 32.9928 8.04295C32.9087 7.74403 32.9274 7.76271 32.8994 7.56654C32.9274 7.5572 33.0021 7.61325 33.0769 7.70666C33.0208 7.26761 33.2263 7.47313 33.2357 7.19288L33.3291 7.39839C33.245 6.92198 33.5439 7.25827 33.5346 6.99671L33.6841 7.35169C33.7588 7.4451 33.7027 7.23025 33.5906 6.98737C33.6654 7.08079 33.5906 6.7912 33.7308 7.0621C33.7868 7.10881 33.6934 6.88462 33.6934 6.82857C33.8055 6.93132 33.8148 6.89396 33.8429 6.80988L33.8242 6.7912C33.8522 6.86593 33.9176 7.0154 33.9456 7.03408C33.9176 6.93132 34.0577 7.09013 33.8522 6.68845C34.0203 6.9033 33.8896 6.43623 34.0951 6.72581C34.039 6.61371 34.039 6.58569 34.011 6.51096C34.0577 6.48293 34.2165 6.68845 34.1605 6.47359C34.1978 6.52964 34.2445 6.66976 34.2632 6.66976C34.2632 6.62306 34.1885 6.5203 34.1792 6.45491C34.1511 6.21203 34.4407 6.59503 34.4874 6.50162C34.5061 6.22137 34.6836 6.26808 34.7863 6.16533L34.8237 6.2494C34.6929 5.92245 35.0853 6.51096 34.8704 6.03455C34.9171 6.10928 34.9265 6.05323 35.0012 6.21203C34.9171 5.9785 35.2067 6.3615 35.0946 6.06257C35.0946 6.06257 35.0946 6.07191 35.104 6.10928C35.2441 6.25874 35.1507 5.99718 35.2908 6.12796C35.3095 6.16533 35.3095 6.19335 35.3562 6.27742C35.4589 6.41754 35.2067 5.92245 35.4402 6.29611C35.4402 6.28676 35.3375 6.09994 35.3375 6.11862C35.5337 6.20269 35.4963 5.89442 35.5523 5.74496C35.7672 5.92245 35.9447 6.38018 35.8326 6.06257C35.8793 6.12796 35.7485 5.91311 35.7952 5.99718C35.7579 5.87574 36.0848 6.38952 35.982 6.18401C35.8326 5.95981 35.9167 6.04389 35.8326 5.91311C35.9727 6.03455 36.1128 6.24006 36.0381 6.03455L36.1128 6.15598C35.9447 5.78233 36.1128 5.94113 35.898 5.52077C36.0941 5.29657 36.1689 4.9416 36.3557 4.74543C36.6266 4.66136 36.7107 4.34375 37.075 4.38111C37.3552 4.64267 37.3459 4.62399 37.3085 4.46519C37.3459 4.51189 37.3459 4.53058 37.3833 4.56794C37.1964 4.32506 37.4019 4.51189 37.2338 4.27836C37.3459 4.25967 37.3739 4.13824 37.4487 4.07285C37.4487 4.11021 37.6075 4.30638 37.6075 4.27836L37.5047 4.11021L37.5608 4.1756C37.5608 4.1756 37.458 4.00746 37.3833 3.93272C37.4113 3.56841 37.9998 3.87668 38.1493 3.65248C38.28 3.70853 38.2707 3.56841 38.2707 3.47499C38.6817 3.65248 39.046 3.76458 38.9993 3.41895C38.9993 3.41895 39.5225 4.00746 39.5878 4.20363L39.6159 4.21297Z" fill="#C16A5E"/>
<path id="Vector_51" d="M31.6006 8.64062C31.6566 8.78075 31.7033 8.85548 31.7407 9.06099C31.694 8.92087 31.6473 8.77141 31.6006 8.64062Z" fill="#C16A5E"/>
<path id="Vector_52" d="M32.7124 9.93945C32.7124 9.93945 32.7404 9.9955 32.7498 10.0142C32.7498 10.0235 32.7778 10.1543 32.7498 10.0796C32.7498 10.0609 32.7311 9.9955 32.7124 9.93945Z" fill="#C16A5E"/>
<path id="Vector_53" d="M32.918 9.96729C32.9647 10.0981 32.9647 10.2102 32.946 10.2382L32.918 9.96729Z" fill="#C16A5E"/>
<path id="Vector_54" d="M33.2637 10.4436C33.3197 10.5464 33.3384 10.6117 33.3104 10.6117C33.2824 10.5464 33.2824 10.509 33.2637 10.4436Z" fill="#C16A5E"/>
<path id="Vector_55" d="M33.1699 10.1448C33.1699 10.1448 33.2166 10.2102 33.2447 10.2849C33.2073 10.1728 33.2447 10.369 33.1699 10.1448Z" fill="#C16A5E"/>
<path id="Vector_56" d="M33.6465 10.3875C33.6465 10.3875 33.6278 10.2661 33.6932 10.3968C33.6465 10.3034 33.7119 10.5743 33.6465 10.3875Z" fill="#C16A5E"/>
<path id="Vector_57" d="M33.7402 10.1355C33.7402 10.1355 33.7589 10.1635 33.7496 10.1355C33.7776 10.1915 33.8056 10.285 33.8056 10.3036L33.7402 10.1448V10.1355Z" fill="#C16A5E"/>
<path id="Vector_58" d="M36.2806 8.3326L36.2899 8.40733L36.2339 8.28589L36.2806 8.3326Z" fill="#C16A5E"/>
<path id="Vector_59" d="M37.4112 7.65059C37.3832 7.56652 37.4953 7.75335 37.5046 7.76269C37.5046 7.78137 37.4206 7.62257 37.4112 7.65059Z" fill="#C16A5E"/>
<path id="Vector_60" d="M37.6261 6.68831V6.69765L37.4673 6.46411L37.6261 6.68831Z" fill="#C16A5E"/>
</g>
<g id="Group_7">
<path id="Vector_61" d="M21.0816 4.96042C21.0629 5.02581 21.1376 5.19396 21.0816 5.07252C21.0722 4.96042 21.0629 4.87635 21.0816 4.96042Z" fill="#C16A5E"/>
<path id="Vector_62" d="M26.724 0.663293C27.2378 1.16773 26.5932 0.822098 26.8921 1.17707C26.9108 1.2051 26.5839 0.934195 26.6399 1.01827C27.0229 1.42929 26.6586 1.35456 26.2569 1.18641L26.1729 1.11168C26.0981 1.08366 26.369 1.32653 26.313 1.31719C26.2569 1.27049 26.2382 1.24246 26.1542 1.18641C26.3223 1.32653 26.2102 1.27983 26.3317 1.39192C26.2569 1.34522 26.1168 1.24246 26.0421 1.18641L26.2289 1.35456C26.6773 1.75624 26.1355 1.40127 26.3503 1.6348C26.3036 1.59744 26.2756 1.56007 26.2289 1.53205C26.4624 1.82163 26.341 1.859 26.3877 2.0178C26.3223 1.96175 26.2009 1.859 26.1168 1.79361C26.3223 1.96175 26.3503 2.02714 26.3784 2.08319C26.1635 1.92439 26.5465 2.27002 26.4064 2.20463L26.3597 2.16726C26.5652 2.36343 26.2102 2.09253 26.4624 2.31673L26.285 2.19529C26.5745 2.44751 26.1075 2.09253 26.2476 2.23265L26.313 2.27936C26.3784 2.35409 26.2196 2.23265 26.2569 2.2887L26.2196 2.26068C26.2756 2.35409 26.0981 2.23265 26.3223 2.41948C26.1261 2.27936 26.2663 2.32607 25.9767 2.11121C26.1355 2.4008 26.014 2.45685 25.93 2.55026C25.8272 2.48487 25.7992 2.46619 25.7058 2.39146C25.7431 2.43816 25.7151 2.45685 25.8272 2.56894C25.8272 2.56894 25.7058 2.47553 25.6871 2.46619C25.5843 2.41014 25.9206 2.69972 25.7992 2.63434C25.7431 2.57829 25.6778 2.5129 25.5843 2.43816C25.7431 2.60631 25.6964 2.60631 25.7431 2.6717C25.7058 2.63434 25.6871 2.61565 25.6217 2.55026C25.7992 2.74643 25.547 2.55026 25.6591 2.68104L25.5376 2.5596C25.3601 2.44751 25.7992 2.81182 25.6871 2.74643C25.6497 2.69973 25.603 2.66236 25.547 2.61565C25.7618 2.84919 25.6497 2.81182 25.7058 2.90524C25.6871 2.88655 25.6497 2.85853 25.6497 2.85853C25.6497 2.90524 25.5563 2.86787 25.6404 2.98931C25.575 2.9426 25.3321 2.69973 25.3508 2.77446C25.603 3.00799 25.4162 2.91458 25.7151 3.1668C25.6497 3.14811 25.5283 3.10141 25.5937 3.19482C25.5096 3.09207 25.2761 2.91458 25.2667 2.87721L25.0986 2.74643C24.9958 2.64368 25.1453 2.76512 25.0145 2.64368C25.0145 2.66236 25.0892 2.7838 25.0425 2.75577C25.1827 2.91458 25.4536 3.20416 25.4629 3.26021C25.3788 3.15745 25.1827 3.00799 25.1453 2.95194L25.5937 3.44704C25.5937 3.44704 25.3975 3.26021 25.4442 3.33494C25.5096 3.40033 25.547 3.44704 25.5937 3.49375C25.5657 3.46572 25.6217 3.5965 25.3695 3.36297C25.2667 3.26955 25.3321 3.29758 25.2387 3.22285C25.2294 3.24153 25.3041 3.3256 25.2948 3.34428L25.2574 3.31626C25.2107 3.28823 25.3321 3.44704 25.4722 3.56848C25.4909 3.56848 25.3228 3.42836 25.4069 3.48441C25.5376 3.63387 25.5563 3.68992 25.547 3.7086C25.5096 3.66189 25.4442 3.5965 25.3788 3.53111C25.547 3.74597 25.5843 3.83004 25.6404 3.93279C25.7525 4.04489 25.4442 3.71794 25.5003 3.77399C25.3134 3.64321 25.6591 4.07292 25.3975 3.85806C25.3788 3.83004 25.5657 4.01687 25.5283 3.98884C25.5003 3.98884 25.3321 3.8207 25.3882 3.89543C25.2948 3.80201 25.4069 3.94214 25.4255 3.9795C25.4909 4.05423 25.3788 3.93279 25.3788 3.91411C25.4442 4.01687 25.5376 4.22238 25.3601 4.11028C25.4255 4.17567 25.5657 4.37184 25.5563 4.37184L25.4162 4.21304C25.3228 4.12896 25.3975 4.2504 25.2761 4.11962C25.4349 4.32513 25.192 3.89543 25.3041 4.06357C25.1733 3.94213 25.5096 4.34382 25.3041 4.12896C25.2948 4.14765 25.4442 4.34382 25.2854 4.21304C25.3134 4.23172 25.0986 3.98884 25.0892 4.00752C25.0892 4.05423 25.1546 4.0916 25.1827 4.15699L25.2294 4.23172C25.3695 4.38118 25.192 4.23172 25.3601 4.39052C25.2387 4.26908 25.3975 4.50262 25.164 4.24106L24.9865 4.03555C24.9865 4.03555 25.164 4.25974 25.2387 4.3625C25.22 4.34382 25.1827 4.30645 25.1546 4.27843C25.4349 4.58669 25.1079 4.27843 25.3134 4.5213C25.192 4.43723 25.2481 4.56801 25.0612 4.38118C25.1266 4.49328 25.2107 4.61472 25.136 4.56801C25.1173 4.53999 25.1079 4.5213 25.0519 4.45591C24.9585 4.37184 25.0239 4.45591 25.0519 4.5213C25.0145 4.4746 24.8651 4.3625 24.753 4.25974C24.8183 4.37184 24.9678 4.53064 25.0612 4.6334C24.781 4.33448 25.1827 4.87628 24.9211 4.61472C24.8931 4.56801 24.8183 4.43723 24.7343 4.37184C24.454 4.07291 24.9024 4.6334 24.7436 4.50262L24.9678 4.75484C24.8183 4.60538 25.0519 4.94167 24.837 4.67077C24.9118 4.77352 24.7343 4.61472 24.9491 4.86694C24.7249 4.68945 24.9491 5.09113 24.5474 4.64274C24.5755 4.68945 24.5288 4.66143 24.6315 4.79221C24.7623 4.93233 24.5661 4.68011 24.6502 4.77352C24.6502 4.78286 24.7062 4.85759 24.7343 4.89496C24.6689 4.84825 24.6502 4.83891 24.4914 4.61472C24.3326 4.4746 24.809 5.08179 24.6876 5.00706C24.6035 4.89496 24.5661 4.85759 24.5755 4.88562L24.6969 5.09113C24.6409 5.07245 24.4914 4.85759 24.3419 4.67077C24.3513 4.70813 24.3326 4.71747 24.426 4.85759L24.2298 4.6334C24.37 4.7922 24.3046 4.75484 24.3326 4.80155L24.3046 4.75484C24.2392 4.68011 24.2672 4.73616 24.2765 4.76418C24.37 4.87628 24.4167 4.91364 24.454 4.94167C24.5101 5.02574 24.4821 5.0164 24.5474 5.11915C24.4167 4.93233 24.426 5.00706 24.398 4.99772C24.3606 4.96969 24.5101 5.1752 24.5007 5.16586C24.426 5.07245 24.4727 5.16586 24.3793 5.02574C24.3606 4.98838 24.454 5.10981 24.398 5.02574C24.3326 4.96035 24.2112 4.79221 24.2859 4.93233C24.3419 5.03508 24.5568 5.2873 24.4447 5.19389C24.4167 5.14718 24.3606 5.07245 24.3233 4.99772L24.2298 4.92299L24.3513 5.09113C24.3513 5.09113 24.3046 5.03508 24.2952 5.0164C24.4167 5.19389 24.2952 5.10047 24.4447 5.29664C24.4447 5.32467 24.3326 5.20323 24.3139 5.18455V5.16586C24.2205 5.07245 24.2485 5.15652 24.3139 5.27796L24.2859 5.24059C24.2859 5.24059 24.2672 5.26862 24.3326 5.38072C24.2205 5.26862 23.8749 4.7455 24.0056 4.96969C23.987 4.98838 24.1925 5.30598 24.2765 5.40874C24.1644 5.31532 24.3139 5.62359 24.0991 5.38072C24.1364 5.45545 24.1738 5.49281 24.1925 5.53952C24.0991 5.50215 24.2112 5.81976 23.9496 5.5115C23.9216 5.42742 23.8375 5.33401 23.7721 5.24059C23.8562 5.40874 23.6507 5.09113 23.8188 5.36203C23.9216 5.52084 23.9683 5.59557 24.0243 5.65162C24.043 5.75437 23.9963 5.79174 23.8842 5.65162C23.9403 5.71701 23.9589 5.77306 23.987 5.8291C23.8282 5.57688 23.7814 5.54886 23.8188 5.65162L23.9122 5.81042L23.8001 5.66096C23.8188 5.71701 23.987 5.99725 23.8842 5.85713C23.8468 5.80108 23.8095 5.73569 23.7814 5.69832C23.8375 5.83845 23.9403 6.07198 23.8375 5.95054L23.688 5.72635C23.688 5.72635 23.7628 5.90384 23.8095 5.95988C23.688 5.83845 23.66 5.83845 23.5292 5.64227C23.7441 6.1654 23.66 6.24947 23.5573 6.24947L23.4919 6.12803C23.4078 6.02527 23.5946 6.34288 23.5292 6.26815C23.4732 6.14671 23.3798 6.02527 23.3237 5.87581C23.2303 5.76371 23.3984 6.10001 23.4078 6.1654C23.4825 6.3242 23.3704 6.0533 23.4732 6.25881C23.5012 6.31486 23.3704 6.15605 23.4825 6.39893C23.4265 6.30552 23.3424 6.12803 23.2957 6.02527L23.3331 6.15605C23.1743 5.88515 23.1275 5.62359 22.9314 5.2873V5.33401C22.7913 5.08179 22.8286 5.02574 22.7539 4.96035C22.8006 5.09113 22.9594 5.44611 23.0248 5.54886C23.0248 5.63293 23.2957 6.13737 23.249 6.13737C23.1649 5.99725 23.2677 6.09066 23.1556 5.89449C23.0435 5.70766 23.1743 6.02527 23.1182 5.95988C23.1836 6.04396 23.2864 6.29618 23.2957 6.35222C23.221 6.24947 23.1929 6.10935 23.1556 6.10001C23.221 6.24013 23.2396 6.36157 23.3144 6.44564C23.4545 6.77259 23.2396 6.37091 23.3424 6.63247C23.2303 6.40827 23.1275 6.09066 23.0435 5.99725C23.1556 6.2121 23.1462 6.31486 23.3144 6.63247C23.2677 6.57642 23.1929 6.40827 23.1369 6.26815C23.0622 6.14671 23.277 6.68852 23.0715 6.25881L23.1649 6.483C23.1275 6.41761 23.0995 6.36157 23.0248 6.24947C23.0061 6.24947 23.1089 6.57642 22.9594 6.24013C22.9687 6.27749 22.922 6.27749 23.0435 6.51103C23.1275 6.64181 22.9968 6.3242 23.1462 6.64181C23.0155 6.38959 23.1275 6.68852 23.1462 6.78193L23.0902 6.65115C23.0995 6.7072 23.0715 6.68852 23.1275 6.82864C23.0995 6.75391 23.0622 6.66049 23.0435 6.63247L23.1182 6.83798C23.1182 6.95008 22.9594 6.483 22.9501 6.55773L22.9127 6.38959C22.9127 6.38959 22.8286 6.24013 22.838 6.31486C22.9034 6.50169 22.9874 6.72588 23.0435 6.87534C23.0528 6.95942 22.9501 6.66983 23.0061 6.87534L22.9407 6.64181C22.922 6.57642 22.8006 6.34288 22.7726 6.36157C22.7819 6.42696 22.866 6.7072 22.9314 6.80061C22.922 6.80061 22.8566 6.7072 22.8099 6.56708C22.8099 6.64181 22.894 6.76325 22.9127 6.89403C22.8473 6.77259 22.7539 6.60444 22.6605 6.4363L22.5671 6.11869H22.5484C22.4736 5.86647 22.4643 5.93186 22.3709 5.6703C22.3429 5.63293 22.3709 5.72635 22.3802 5.80108C22.5764 6.2121 22.5671 6.38959 22.7165 6.77259C22.7072 6.89403 22.3429 5.83845 22.511 6.46432C22.5577 6.55774 22.6418 6.866 22.6325 6.74456C22.5857 6.71654 22.7539 7.1369 22.6605 6.99678C22.6325 6.82864 22.4923 6.61378 22.4456 6.37091C22.4923 6.50169 22.5017 6.46432 22.4923 6.41761C22.4269 6.27749 22.3522 6.02527 22.3242 6.03462C22.3242 6.08132 22.3055 6.09066 22.3709 6.29618C22.4456 6.52037 22.3896 6.25881 22.455 6.49234C22.455 6.58576 22.3242 6.24947 22.4456 6.65115C22.455 6.61378 22.539 6.83798 22.5951 6.99678V7.09954L22.5577 6.95008C22.4736 6.85666 22.6325 7.22098 22.5764 7.20229L22.455 6.91271C22.3802 6.66049 22.5577 7.00612 22.4083 6.5951C22.3709 6.5951 22.4363 6.80061 22.3709 6.69786C22.3709 6.66049 22.3709 6.65115 22.3709 6.61378C22.3522 6.60444 22.1654 6.06264 22.2308 6.38959C22.2495 6.52037 22.2775 6.53905 22.3242 6.69786C22.2962 6.75391 22.3242 6.92205 22.3055 6.95008C22.2214 6.64181 22.2495 6.94073 22.1841 6.61378C22.2495 6.79127 22.3148 6.7539 22.2401 6.45498C22.1093 6.10001 22.2868 6.49235 22.1841 6.12803C22.1467 6.12803 22.0346 5.77306 21.9599 5.54886C21.9505 5.53952 21.9692 5.63293 21.9786 5.6703C22.0533 5.88515 22.0533 5.88515 22.128 6.10935C22.072 6.06264 22.0813 6.19342 22.128 6.40827C22.0813 6.30552 22.0253 6.08132 22.0253 6.06264C22.0066 6.13737 21.9505 6.12803 21.8851 6.06264C22.0159 6.41761 21.8665 6.15605 21.9599 6.45498C22.0066 6.52971 22.1 6.78193 22.128 6.94073C22.1093 6.92205 22.0813 6.78193 22.0533 6.7072C22.0906 6.91271 21.9412 6.39893 22.0066 6.7072C22.0159 6.57642 21.8945 6.26815 21.8291 5.97857C21.8478 6.14671 21.773 5.7824 21.745 5.7824C21.7637 5.95054 21.7637 6.08132 21.745 6.15605C21.6423 5.89449 21.6423 6.17474 21.6049 6.19342C21.5488 6.0533 21.4928 5.72635 21.4648 5.67964C21.4461 5.68898 21.5582 6.02527 21.4928 5.88515V5.81976C21.4928 5.89449 21.3714 5.61425 21.4648 6.08132L21.3994 5.72635C21.3994 5.72635 21.3994 5.77306 21.3994 5.81976C21.3714 5.70766 21.3433 5.60491 21.3433 5.53018C21.2779 5.29664 21.3153 5.57688 21.2873 5.59557L21.3433 5.80108C21.3433 5.96922 21.2686 5.77306 21.2499 5.84779L21.2126 5.64227V5.77306C21.1845 5.57688 21.1378 5.44611 21.1565 5.61425L21.1191 5.10047C21.1565 5.22191 21.1472 5.35269 21.1939 5.54886C21.2312 5.72635 21.2593 5.66096 21.2219 5.46479C21.2032 5.44611 21.2219 5.49281 21.2219 5.56754C21.1658 5.2873 21.1845 5.29664 21.1565 5.10047C21.1565 5.10981 21.1285 5.02574 21.1472 5.11915C21.1285 4.97903 21.1472 4.95101 21.1565 4.94167C21.1565 5.05376 21.1939 5.11915 21.2126 5.19389C21.1658 4.94167 21.1658 4.86694 21.2126 4.93233C21.2873 5.21257 21.2126 4.73616 21.2593 4.81089C21.306 5.06311 21.334 5.26862 21.334 5.37137C21.3807 5.49281 21.3527 5.36203 21.3994 5.48347C21.3714 5.29664 21.306 5.00706 21.306 4.88562L21.3527 5.07245C21.3527 4.96969 21.2873 4.69879 21.3247 4.7455C21.39 4.82957 21.4367 4.82023 21.4741 4.82957L21.5208 5.0164C21.4367 4.62406 21.5395 4.85759 21.5208 4.67077C21.6142 4.82957 21.5582 4.4746 21.6703 4.77352C21.6983 4.61472 21.717 4.46526 21.8011 4.50262L21.8851 4.76418C21.8291 4.56801 21.9505 4.91364 21.9505 4.86694C21.8571 4.66143 21.8758 4.58669 21.8197 4.42789C21.9225 4.61472 21.8851 4.38118 21.8384 4.19435L21.9132 4.37184C21.8104 4.02621 21.9505 4.30645 22.0159 4.34382C22.0533 4.41855 22.128 4.57735 22.128 4.54933C22.0253 4.25974 22.0439 4.27843 21.9972 4.0916C22.0159 4.0916 22.0813 4.13831 22.1467 4.23172C22.0346 3.80201 22.2214 4.01687 22.1841 3.75531L22.2868 3.95148C22.1374 3.50309 22.4176 3.83004 22.3616 3.58716L22.5484 3.92345C22.6231 4.01687 22.5484 3.81136 22.3989 3.57782C22.4736 3.67123 22.3522 3.39099 22.5204 3.65255C22.5764 3.69926 22.455 3.48441 22.4363 3.4377C22.5484 3.54045 22.5484 3.50309 22.539 3.41902L22.5204 3.40033C22.5577 3.47506 22.6511 3.61519 22.6698 3.62453C22.6231 3.53111 22.7726 3.68058 22.511 3.30692C22.6885 3.50309 22.4736 3.07338 22.7072 3.34428C22.6325 3.24153 22.6325 3.2135 22.5857 3.14811C22.6138 3.12009 22.7913 3.30692 22.6885 3.12009C22.7259 3.1668 22.8006 3.29758 22.8193 3.29758C22.8006 3.25087 22.7259 3.1668 22.6978 3.10141C22.6138 2.88655 22.9407 3.22285 22.9501 3.13877C22.8847 2.88655 23.0435 2.92392 23.0902 2.8305L23.1462 2.90524C22.9501 2.61565 23.4358 3.12943 23.1182 2.70907C23.1836 2.77446 23.1649 2.71841 23.277 2.85853C23.1369 2.65302 23.4825 2.98931 23.3144 2.72775C23.3144 2.72775 23.3144 2.73709 23.3424 2.77446C23.5012 2.90524 23.3424 2.6717 23.5012 2.77446C23.5199 2.80248 23.5386 2.8305 23.5946 2.90524C23.7254 3.02667 23.3704 2.59697 23.6694 2.91458C23.6694 2.90524 23.5292 2.74643 23.5292 2.75577C23.7067 2.82116 23.5946 2.54092 23.5946 2.41014C23.8282 2.55026 24.1084 2.9426 23.9216 2.6717C23.987 2.72775 23.8095 2.55026 23.8749 2.61565C23.8095 2.5129 24.2392 2.9426 24.0897 2.77446C23.8935 2.58763 23.9963 2.66236 23.8749 2.54092C24.0243 2.63434 24.2018 2.80248 24.0897 2.63434L24.1831 2.73709C23.9309 2.41948 24.1177 2.54092 23.8095 2.18595C23.9029 1.98043 23.8562 1.64414 23.9589 1.45731C24.1644 1.35456 24.1458 1.07432 24.4727 1.06497C24.7903 1.27049 24.7903 1.2518 24.7062 1.11168C24.753 1.14905 24.7623 1.16773 24.809 1.19575C24.5755 0.999585 24.809 1.14905 24.5942 0.952878C24.6876 0.924853 24.6782 0.822098 24.7249 0.747366C24.7436 0.775391 24.9304 0.943536 24.9304 0.915512L24.7903 0.775391L24.8557 0.831439C24.8557 0.831439 24.7156 0.691318 24.6315 0.635269C24.5568 0.308319 25.1733 0.523172 25.2387 0.308319C25.3695 0.345685 25.3228 0.214905 25.3041 0.140173C25.7245 0.261612 26.0794 0.336343 25.958 0.0280762C25.958 0.0280762 26.5745 0.523172 26.6773 0.691318L26.724 0.663293Z" fill="#C16A5E"/>
<path id="Vector_63" d="M21.1094 4.92285C21.1374 5.07231 21.1748 5.14705 21.1934 5.35256C21.1654 5.21244 21.1374 5.05363 21.1094 4.92285Z" fill="#C16A5E"/>
<path id="Vector_64" d="M21.978 6.34277C21.978 6.34277 22.0061 6.39882 22.0154 6.42685C22.0154 6.43619 22.0341 6.56697 22.0154 6.49224C22.0154 6.48289 21.9967 6.40816 21.9874 6.34277H21.978Z" fill="#C16A5E"/>
<path id="Vector_65" d="M22.1655 6.38013C22.2029 6.51091 22.2029 6.623 22.1842 6.65103L22.1655 6.38013Z" fill="#C16A5E"/>
<path id="Vector_66" d="M22.4829 6.87549C22.5296 6.97824 22.5483 7.04363 22.5296 7.04363C22.5016 6.97824 22.5016 6.94088 22.4829 6.87549Z" fill="#C16A5E"/>
<path id="Vector_67" d="M22.3989 6.57642C22.3989 6.57642 22.4456 6.64181 22.4737 6.71654C22.4363 6.60444 22.4737 6.79127 22.3989 6.57642Z" fill="#C16A5E"/>
<path id="Vector_68" d="M22.8565 6.82865C22.8565 6.82865 22.8378 6.70721 22.9032 6.83799C22.8565 6.74458 22.9219 7.01548 22.8565 6.82865Z" fill="#C16A5E"/>
<path id="Vector_69" d="M22.9404 6.57642C22.9404 6.57642 22.9591 6.60444 22.9498 6.57642C22.9778 6.63246 23.0058 6.72588 23.0058 6.74456L22.9404 6.58576V6.57642Z" fill="#C16A5E"/>
<path id="Vector_70" d="M24.9677 4.68001L24.9957 4.73606L24.9116 4.6333L24.9677 4.68001Z" fill="#C16A5E"/>
<path id="Vector_71" d="M25.7707 3.92325C25.724 3.84852 25.8735 4.00733 25.8828 4.01667C25.8828 4.03535 25.7707 3.89523 25.7707 3.92325Z" fill="#C16A5E"/>
<path id="Vector_72" d="M25.6684 3.03595L25.4629 2.84912L25.6684 3.03595Z" fill="#C16A5E"/>
</g>
</g>
</g>
</g>
<defs>
<clipPath id="clip0_413_317">
<rect width="40.3176" height="20" fill="white" transform="translate(0.0913086)"/>
</clipPath>
</defs>
</svg>
