<svg width="37" height="24" viewBox="0 0 37 24" fill="none" xmlns="http://www.w3.org/2000/svg">
<g id="Asset 9" clip-path="url(#clip0_413_400)">
<g id="Layer 1">
<g id="Group">
<g id="Group_2">
<path id="Vector" d="M9.58775 13.454C9.40814 13.531 9.71605 13.6593 9.47656 13.5652C9.49367 13.4625 9.51933 13.377 9.58775 13.454Z" fill="#C16A5E"/>
<path id="Vector_2" d="M11.1701 14.4462C10.4687 15.0192 9.79301 14.2324 9.04889 14.4291C8.96336 14.4291 9.17718 14.0955 8.98902 14.1212C8.21068 14.412 7.28695 13.5909 7.09023 12.7783L7.19287 12.7356C7.1501 12.5902 6.79087 12.6928 6.731 12.5389C6.78232 12.4961 6.83363 12.5132 6.88495 12.4277C6.70534 12.5303 6.65402 12.2737 6.49151 12.3079C6.52572 12.2138 6.66257 12.1283 6.69679 12.0171L6.4573 12.0684C5.85003 12.1197 6.20926 11.5381 5.85858 11.3243C5.9099 11.3243 5.96122 11.3414 6.00398 11.3072C5.5079 10.8881 5.53356 10.1012 5.64475 9.45118C5.71318 9.5025 5.84148 9.57093 5.94411 9.56237C5.72173 9.45973 5.73028 9.24591 5.77305 9.05774C6.02109 9.1005 5.71318 8.67285 5.96122 8.56166L5.99543 8.60442C5.87569 8.32217 6.24347 8.51034 6.08952 8.21953L6.30334 8.27085C6.08096 7.98005 6.58559 8.22809 6.54283 8.02281L6.49151 7.97149C6.51717 7.82609 6.68823 7.91162 6.731 7.79188L6.76521 7.81754C6.90206 7.57805 7.14155 7.64648 6.97904 7.43265C7.17576 7.55239 6.84219 7.66358 7.1501 7.82609C7.62907 7.09908 8.47583 6.75695 9.25416 6.50891C9.37391 6.58589 9.44233 6.59445 9.49365 6.68853C9.55352 6.603 9.7759 6.56023 9.81011 6.39772C9.78445 6.40628 9.89565 6.51747 9.94696 6.51747C10.118 6.57734 10.0239 6.17534 10.2207 6.26088C10.1779 6.34641 10.1779 6.44049 10.2207 6.53457C10.3062 6.29509 10.4944 6.28653 10.6398 6.1839C10.6227 6.23522 10.5884 6.26943 10.6141 6.35496C10.7424 6.07271 10.9477 6.34641 11.076 6.16679L11.0418 6.3293C11.324 6.4747 11.0589 5.98718 11.2984 6.06415C11.2556 6.12403 11.2812 6.1839 11.2812 6.24377C11.4352 5.9273 11.7859 5.97862 11.9826 5.85888C11.974 5.88454 11.9826 5.9273 11.9826 5.9273C12.205 5.87599 12.4445 5.93586 12.684 5.79901C12.778 5.86743 12.684 6.1839 12.9063 6.11547C12.8807 5.79901 13.2998 5.96152 13.1458 5.61084C13.3511 5.6536 13.6761 5.77335 13.813 5.66216C13.7189 5.7819 13.9156 6.04705 13.7445 6.08126L13.8728 6.26943C13.8557 6.39772 13.7445 6.22666 13.7873 6.38917C13.8728 6.37207 14.1123 6.25232 14.1807 6.30364C14.3347 6.10692 14.4887 5.74769 14.7453 5.72203C14.6255 5.84177 14.7966 6.07271 14.7196 6.12403L15.0959 5.53386C15.1815 5.52531 15.0959 5.7819 15.2242 5.70492C15.2242 5.61939 15.2755 5.57663 15.3183 5.5082C15.344 5.54241 15.6775 5.44833 15.6946 5.76479C15.7203 5.89309 15.5492 5.82467 15.6348 5.93586C15.7887 5.93586 15.8058 5.84177 15.9598 5.84177V5.88454C16.0539 5.93586 16.2763 5.77335 16.1736 5.59373C16.1052 5.57663 16.1822 5.7819 16.0881 5.68782C16.1736 5.51676 16.3618 5.47399 16.5157 5.4911C16.4559 5.53386 16.4559 5.61939 16.4302 5.70492C16.6611 5.48254 16.8921 5.43122 17.1401 5.35425C17.1572 5.20884 17.0204 5.61084 16.9947 5.53386C17.2684 5.77335 17.6448 5.32003 17.8586 5.64505C17.8158 5.66216 17.8586 5.43122 17.8586 5.47399C18.004 5.5082 17.9612 5.72203 18.0724 5.6536C18.0724 5.7819 18.1922 5.62795 18.2948 5.60229C18.3547 5.51676 18.3119 5.67071 18.2264 5.67071C18.3718 5.58518 18.9363 5.46544 19.2185 5.69637C19.2185 5.61084 19.458 5.42267 19.5264 5.43978L19.4666 5.62795C19.5093 5.75624 19.7061 5.65361 19.6975 5.81611C19.8857 5.60229 19.0817 5.91875 19.3126 5.77335C19.3383 5.94441 19.6462 5.5082 19.5606 5.77335C19.7061 5.79045 19.8771 5.59373 19.9883 5.79901C19.9541 5.7648 19.8258 6.04705 19.9455 6.0556C20.1508 6.0556 20.0225 5.97007 20.1936 5.93586L20.3133 5.87599C20.3561 5.68782 20.4929 5.93586 20.4502 5.71348C20.4502 5.87599 20.7666 5.67071 20.6897 5.97862L20.6127 6.21811C20.7068 6.21811 20.8094 5.98718 20.8949 5.89309C20.8949 5.91875 20.912 5.97007 20.8949 6.01284C20.9805 5.64505 21.1002 6.08126 21.2627 5.82467C21.4252 5.99573 21.7331 5.93586 21.7673 6.19245C21.9384 6.11547 22.1009 6.01284 22.2463 6.13258C22.2036 6.15824 22.1608 6.15824 22.1266 6.23522C22.2036 6.37207 22.2463 6.27798 22.3575 6.24377C22.3233 6.29509 22.5029 6.51747 22.5799 6.67998C22.751 6.61155 22.7595 6.39772 22.8108 6.28653C22.8279 6.68853 23.2898 6.1839 23.3411 6.56023C23.2727 6.59445 23.076 6.67142 23.1615 6.79117C23.1615 7.18461 23.5036 6.62011 23.6576 6.85959L23.7175 6.55168C23.7431 6.76551 24.0852 6.50036 23.9569 6.79117C24.0681 6.71419 24.1622 6.97934 24.2563 6.69708C24.4958 7.06487 25.1544 6.92802 25.1031 7.51818C25.1715 7.50107 25.2656 7.60371 25.3169 7.44976C25.3169 7.26159 25.1544 7.50107 25.18 7.38133C25.2228 7.39844 25.2741 7.33001 25.2998 7.2958C25.3682 7.40699 25.4366 7.47541 25.2228 7.64648C25.3425 7.93728 25.7018 7.33001 25.9327 7.60371C25.8557 7.70635 25.8472 7.75767 25.9327 7.79188C26.0182 7.75767 26.1209 7.74056 26.2406 7.74056C26.4716 7.95439 26.1979 8.05703 26.0781 8.22809C26.215 8.27941 26.3347 8.38204 26.5058 8.32217C26.4887 8.41626 26.463 8.51034 26.4288 8.60442C26.4887 8.4077 26.617 8.59587 26.7196 8.60442H26.6255C26.5656 8.6643 26.7453 8.72417 26.8222 8.76693C26.9334 8.6814 26.8393 8.54455 26.7966 8.45902C26.9334 8.45902 27.019 8.536 27.19 8.55311C26.9762 8.63864 27.2157 8.80115 27.2755 8.89523C27.3183 9.00642 27.5664 8.92944 27.5835 8.96365C27.4808 9.00642 27.7203 9.13472 27.4894 9.10906C27.4209 9.09195 27.5236 8.99787 27.3782 8.98076C27.3611 9.07485 27.1644 9.13472 27.4209 9.2117C27.6091 9.28012 27.8315 9.04919 27.8401 9.29723C27.746 9.25446 27.6519 9.27157 27.5492 9.25446C27.5578 9.32288 27.5664 9.39131 27.5664 9.45973L27.7716 9.42552C27.7716 9.42552 27.7118 9.45118 27.6861 9.46829C27.9341 9.47684 27.9256 9.75054 28.1907 9.76765C28.2592 9.87884 28.148 10.0071 28.1651 10.1012L28.1394 10.0841C28.071 10.2039 28.1907 10.3664 28.3447 10.4861H28.3019C28.3019 10.546 28.3532 10.717 28.473 10.8282C28.3276 10.9907 27.7631 10.7427 27.994 10.9822C27.994 11.1447 28.2848 11.35 28.4217 11.3158C28.2335 11.6066 28.3019 12.1026 27.8058 12.1454C27.84 12.2138 27.9085 12.2224 27.8743 12.3165L27.746 12.402C27.4209 12.6244 27.0959 12.9922 26.4544 12.7698C26.5571 12.6671 26.3347 12.5987 26.2577 12.4961C26.2492 12.6757 26.0011 12.3592 26.138 12.6329C26.2577 12.7869 26.2919 12.8724 26.4972 12.9066C26.215 13.0606 25.6248 13.1205 25.3939 12.9922C25.5136 13.0606 25.4623 13.1205 25.3939 13.1803C25.334 12.9152 25.086 12.8981 24.9149 13.0178V13.1889L24.8123 13.0264C24.7695 13.0862 24.8123 13.3771 24.6668 13.2402C24.6497 13.1803 24.6326 13.1119 24.607 13.0691C24.4958 13.2231 24.3504 13.4711 24.1879 13.3514L24.0425 13.1205C23.9912 13.1547 23.9056 13.3086 24.0254 13.3685C23.7688 13.2573 23.6063 13.2573 23.5036 13.052C23.1701 13.6165 22.5799 13.7106 22.0924 13.7363V13.608C21.947 13.5054 22.0496 13.8304 21.9555 13.7619C21.9812 13.6422 21.8187 13.5139 21.9042 13.3599C21.6989 13.2488 21.6989 13.608 21.5877 13.6764C21.5877 13.8389 21.6733 13.5567 21.6733 13.7705C21.6647 13.8304 21.3996 13.6764 21.4081 13.9245C21.3482 13.8304 21.3568 13.6508 21.3739 13.5481L21.2798 13.685C21.1002 13.4113 21.5193 13.129 21.3311 12.7954L21.2371 12.8468C21.1002 12.5987 21.468 12.5217 21.1943 12.4619C21.1002 12.5987 21.0489 12.9665 21.1686 13.0606C20.9463 13.1547 21.143 13.6593 20.8864 13.6764C20.8008 13.5396 21.0831 13.6165 21.0061 13.4198C20.8607 13.2402 20.7837 13.5652 20.6726 13.5054C20.8008 13.5823 20.741 13.8475 20.6726 13.8988C20.5271 13.7962 20.7239 13.6508 20.5357 13.6508C20.5271 13.7962 20.3732 13.9245 20.5357 14.0014C20.51 14.335 20.339 13.933 20.2706 14.1982C20.185 13.9758 20.3817 13.6508 20.1679 13.5652C20.2278 13.779 19.9626 13.8902 20.108 14.2067C20.0225 14.1554 19.9883 13.9843 20.0311 13.8389C19.9028 13.7192 19.8172 14.2751 19.7232 13.8389V14.0699C19.6718 14.0014 19.612 13.9501 19.5435 13.8389C19.4409 13.8475 19.2698 14.181 19.2356 13.8389C19.21 13.8817 18.979 13.8902 19.0988 14.1126C19.2613 14.2409 19.2356 13.9245 19.3554 14.2238C19.2185 13.9758 19.1587 14.2837 19.0902 14.3778L19.056 14.2495C19.0133 14.3093 18.9021 14.2922 18.885 14.4376C18.9106 14.3607 18.885 14.2751 18.8422 14.2409L18.8165 14.4462C18.6369 14.5745 18.7224 14.1041 18.5428 14.181L18.6711 14.01C18.6711 14.01 18.5514 13.8731 18.4744 13.9416C18.4659 14.1297 18.4231 14.3521 18.4145 14.4975C18.3204 14.5916 18.3376 14.3008 18.2606 14.4975L18.3718 14.258C18.3889 14.1982 18.2435 13.9672 18.0981 13.9929C18.0125 14.0699 17.9099 14.3436 18.0639 14.4291C17.9954 14.4376 17.8757 14.3436 17.9185 14.2067C17.7645 14.2922 17.9612 14.3949 17.8415 14.5317C17.7645 14.4205 17.5678 14.2666 17.4395 14.1041L17.5507 13.779H17.4566C17.5507 13.531 17.3711 13.608 17.4053 13.3428C17.3368 13.3086 17.2684 13.4113 17.2085 13.4797C17.4566 13.8646 17.0631 14.0699 17.1658 14.4376C16.9092 14.5745 16.8835 13.5481 16.6783 14.1725C16.7381 14.2666 16.644 14.5659 16.798 14.4376C16.6269 14.4205 16.7296 14.8311 16.5157 14.6942C16.644 14.5232 16.3105 14.335 16.4986 14.087C16.4986 14.2153 16.6269 14.1639 16.6526 14.1297C16.5671 13.9929 16.6184 13.7534 16.4473 13.7705C16.3447 13.8218 16.2078 13.8475 16.2506 14.0356C16.2848 14.2495 16.4046 13.9929 16.3618 14.2153C16.1651 14.3179 16.0881 13.9929 16.0539 14.3863C16.1822 14.3436 16.242 14.5574 16.2592 14.7028L16.1223 14.814V14.6686C15.8828 14.6001 16.0966 14.9337 15.8572 14.9252L15.7118 14.66C15.7374 14.412 16.071 14.7199 15.9769 14.335C15.8229 14.335 15.7973 14.5488 15.6433 14.4633C15.669 14.4291 15.7118 14.412 15.7374 14.3692C15.6775 14.3692 15.5663 13.8475 15.3867 14.181C15.2927 14.3179 15.3782 14.3264 15.3867 14.4719C15.1472 14.5488 15.0959 14.7113 14.9334 14.7541C14.9334 14.4633 14.6512 14.7541 14.788 14.4462C14.8907 14.6087 15.2413 14.5403 15.2927 14.258C15.1644 13.9245 15.4894 14.2837 15.4979 13.9245C15.3012 13.9416 15.267 13.5994 15.2157 13.3856C15.1558 13.3856 15.1216 13.4797 15.0874 13.5139C15.0874 13.7277 15.1558 13.7106 15.19 13.9245C14.9676 13.8988 14.7709 14.0356 14.6683 14.258C14.5827 14.1639 14.5827 13.9501 14.6683 13.9245C14.4117 14.0185 14.1294 14.0271 13.8814 13.9929C14.0781 14.3093 13.6162 14.1041 13.7531 14.3778C13.8985 14.4376 14.0353 14.66 13.984 14.8225C13.8985 14.814 13.9669 14.6771 13.9242 14.6087C13.8386 14.8054 13.7274 14.335 13.659 14.6344C13.8814 14.4975 13.659 14.2153 13.6676 13.9416C13.5136 14.1126 13.6505 13.7534 13.4879 13.7705C13.334 13.9416 13.1373 14.087 12.9577 14.1639C12.6925 13.9416 12.3504 14.2409 12.1366 14.2751C12.0083 14.1554 12.051 13.8475 11.9227 13.8047C11.7773 13.8304 12.0596 14.1126 11.8372 14.0014L11.8543 13.9416C11.803 14.0185 11.4438 13.7876 11.4352 14.2238L11.4609 13.8902C11.4609 13.8902 11.3924 13.9416 11.3582 13.9843C11.3411 13.8817 11.2898 13.7876 11.3497 13.7106C11.1957 13.5054 11.0845 13.779 10.9391 13.8047L11.0503 13.9843C10.8279 14.1639 10.6398 13.9929 10.4174 14.0955L10.4003 13.9073L10.272 14.0356C10.2891 13.8475 10.1437 13.7448 10.0924 13.9073L10.4003 13.4027C10.5115 13.5054 10.3147 13.6422 10.4003 13.8218C10.4687 13.9758 10.6825 13.8988 10.6996 13.7106C10.6141 13.7021 10.6141 13.7448 10.5542 13.8218C10.5029 13.5652 10.6227 13.5567 10.6654 13.3771C10.6227 13.3942 10.5542 13.3172 10.5542 13.4027C10.6227 13.2659 10.7082 13.2317 10.8536 13.206C10.7681 13.3172 10.922 13.3599 10.8964 13.4455C10.8793 13.2145 11.0075 13.1205 11.1957 13.1632C11.3497 13.4113 11.5036 12.9494 11.7175 13.0007C11.6576 13.2488 11.5721 13.4455 11.4609 13.5567C11.5977 13.6593 11.5977 13.531 11.7431 13.6336C11.7859 13.454 11.803 13.1803 11.9569 13.052L11.9826 13.2231C12.1195 13.1119 12.0938 12.8639 12.2905 12.881C12.6241 12.9237 12.9662 12.881 13.2142 12.8724L13.2399 13.0435C13.334 12.6586 13.6847 12.8468 13.8557 12.6586C14.1979 12.7869 14.5314 12.402 14.7281 12.6843C15.2755 12.479 15.746 12.2908 16.3361 12.2737L16.2677 12.5389C16.3532 12.3421 16.3532 12.6757 16.4473 12.6244C16.3019 12.4362 16.5585 12.3421 16.6098 12.1796C16.8921 12.3421 17.2 12.0855 17.4053 11.8803L17.4395 12.0513C17.6276 11.7006 17.9441 11.9487 18.2435 11.9658C18.2862 12.0342 18.3632 12.1882 18.4402 12.154C18.5599 11.8546 18.6455 11.8632 18.8507 11.6579C19.0218 11.6322 19.3041 11.6664 19.4837 11.7605C20.0653 11.2901 20.741 11.4526 21.3654 11.1361L21.4423 11.3329C22.0154 10.8197 22.8536 11.1105 23.3668 10.8197V11.1704C23.5464 11.2559 23.7431 11.0335 23.6576 10.794C23.8458 10.8795 24.0596 10.5716 24.205 10.8453C24.3932 10.8881 24.3932 10.6572 24.53 10.5973C24.7096 10.7085 24.7438 10.6743 24.8208 10.5973L24.7866 10.5802C24.8123 10.6572 24.8807 10.794 24.932 10.8111C24.932 10.717 25.18 10.871 24.8465 10.4947C25.0688 10.6572 24.9833 10.4519 25.0774 10.4604C25.1116 10.4604 25.1715 10.4861 25.2912 10.5289C25.1373 10.4433 25.1287 10.4177 25.0261 10.3578C25.0603 10.3407 25.4452 10.3578 25.1458 10.2124C25.2314 10.2124 25.4452 10.2979 25.4623 10.2637C25.3939 10.2295 25.2314 10.221 25.1373 10.1782C24.9662 10.1012 25.0346 10.0927 25.1031 10.0328C25.18 9.98147 25.2399 9.88739 25.1544 9.85318C24.9491 9.81897 24.855 9.78475 24.7866 9.75054C24.5642 9.59658 24.2135 9.39131 23.9227 9.26301L23.9655 9.19459C23.6319 9.39131 23.6063 8.6643 23.247 9.04063C23.2299 8.94655 23.0674 8.92944 23.1615 8.79259C22.9135 8.938 22.7338 8.4077 22.3832 8.60442C22.4003 8.62153 22.4259 8.60442 22.4601 8.57876C22.2463 8.31362 21.9384 8.49323 21.6904 8.25375C21.7331 8.22809 21.793 8.21954 21.8187 8.134C21.7417 7.94584 21.4594 8.4077 21.5022 7.99715C21.4338 7.9886 21.4081 8.18532 21.4509 8.17677C20.8436 7.86886 20.0824 7.98005 19.3725 7.95439C18.9106 7.63792 19.4495 7.27869 19.0047 7.50963C18.9876 7.4241 18.9534 7.65503 18.9619 7.57805C18.7909 7.66358 18.7909 7.09908 18.6455 7.28725C18.6455 7.53529 18.5514 7.41554 18.5257 7.56095C18.2349 7.35567 18.2007 7.12474 17.927 7.27869L17.9612 7.1504C17.6191 7.47541 17.3112 7.23593 17.0204 7.62937C15.4381 7.51818 13.9498 7.68069 12.5471 7.85175C11.8458 7.86886 11.1701 8.00571 10.5286 8.18532C10.2036 8.27085 9.88709 8.37349 9.57063 8.47613C9.27982 8.57021 8.98902 8.67285 8.69821 8.76693C8.28766 8.61298 8.25345 8.64719 8.09094 8.92944C8.06528 8.87812 8.07383 8.86102 8.03107 8.8268C8.19358 9.05774 7.88567 8.98076 8.03107 9.20314C7.70605 9.42552 7.57775 9.71633 7.49222 9.95581C7.47512 9.9045 7.2784 9.79331 7.26984 9.85318L7.41525 9.97292L7.33827 9.95581C7.36393 10.0071 7.48367 10.0756 7.57775 10.0756C7.62052 10.3578 7.5521 10.5802 7.62052 11.0164C7.68895 11.4269 7.93698 11.9316 8.35609 12.1796C8.47583 12.4106 8.87783 12.5132 9.16008 12.5645C9.81867 13.2488 10.7852 13.7192 11.9056 13.5567C11.9056 13.5567 11.6918 14.2666 11.2043 14.3778L11.1701 14.4462Z" fill="#C16A5E"/>
<path id="Vector_3" d="M9.81885 13.394C9.87017 13.5309 10.0156 13.5908 9.93004 13.7875C9.90438 13.6592 9.81885 13.5223 9.81885 13.394Z" fill="#C16A5E"/>
<path id="Vector_4" d="M13.5135 14.3777C13.5135 14.3777 13.5733 14.429 13.5819 14.4461C13.5391 14.4632 13.5135 14.583 13.4707 14.5145C13.5135 14.4974 13.4964 14.4376 13.5135 14.3691V14.3777Z" fill="#C16A5E"/>
<path id="Vector_5" d="M14.429 14.3435C14.429 14.4718 14.2494 14.5915 14.1382 14.6258L14.429 14.3435Z" fill="#C16A5E"/>
<path id="Vector_6" d="M15.3356 14.7456C15.4211 14.8397 15.404 14.8996 15.3099 14.9081C15.2928 14.8397 15.327 14.8055 15.3356 14.7456Z" fill="#C16A5E"/>
<path id="Vector_7" d="M15.3608 14.4548C15.4293 14.4463 15.472 14.5147 15.5148 14.5746C15.4977 14.4719 15.3608 14.6601 15.3608 14.4548Z" fill="#C16A5E"/>
<path id="Vector_8" d="M17.2426 14.583C17.2853 14.5659 17.3709 14.4547 17.4307 14.583C17.3709 14.4889 17.234 14.7712 17.2426 14.583Z" fill="#C16A5E"/>
<path id="Vector_9" d="M18.0723 14.2837C18.0723 14.2837 18.115 14.3094 18.1407 14.2666C18.2006 14.3179 18.1578 14.412 18.115 14.4291L18.0723 14.2752V14.2837Z" fill="#C16A5E"/>
<path id="Vector_10" d="M23.5293 6.5945L23.649 6.57739L23.5892 6.68858L23.5293 6.5945Z" fill="#C16A5E"/>
<path id="Vector_11" d="M16.6099 5.26869C16.5073 5.33712 16.5586 5.14895 16.5415 5.12329C16.627 5.12329 16.4987 5.27725 16.6099 5.26869Z" fill="#C16A5E"/>
<path id="Vector_12" d="M12.8208 5.77344H12.8465L12.855 6.03003L12.8208 5.77344Z" fill="#C16A5E"/>
</g>
<g id="Group_3">
<path id="Vector_13" d="M14.48 15.3441C14.7451 15.2842 14.3346 15.1303 14.651 15.2414C14.6168 15.3441 14.5655 15.4211 14.48 15.3441Z" fill="#C16A5E"/>
<path id="Vector_14" d="M17.1913 11.709C18.0295 11.0076 19.2098 11.6149 20.1507 11.1787C20.2619 11.1445 20.125 11.5379 20.3816 11.4438C21.2968 10.9135 22.785 11.2386 23.8713 11.7175L23.7943 11.8116C23.9996 11.8971 24.2818 11.5892 24.5042 11.6577C24.5042 11.7261 24.4272 11.7432 24.47 11.8458C24.547 11.6491 24.8806 11.7945 25.0003 11.6577C25.0773 11.7432 25.0516 11.9057 25.1543 12.0083L25.3082 11.7945C25.7444 11.2984 26.1635 11.957 26.6938 11.7688C26.6596 11.8202 26.6083 11.8458 26.6339 11.9057C27.4721 11.7261 28.4386 12.034 29.3196 12.2136C29.2597 12.282 29.1828 12.4103 29.1999 12.513C29.3196 12.2991 29.6019 12.3334 29.8414 12.3676C29.8499 12.6413 30.3118 12.3077 30.5256 12.5472L30.4828 12.5899C30.7822 12.436 30.7052 12.8551 30.9875 12.6413L31.0302 12.8722C31.2697 12.5899 31.227 13.1716 31.4579 13.086L31.4835 13.0176C31.6717 13.0176 31.6632 13.2058 31.8257 13.2314V13.2742C32.1763 13.3683 32.2533 13.6334 32.3902 13.4025C32.3902 13.6505 32.0395 13.317 32.048 13.6847C33.1856 14.0269 34.1521 14.8137 34.9561 15.6605C34.9647 15.8316 34.9989 15.9171 34.9476 16.0112C35.0758 16.0539 35.2726 16.302 35.4436 16.2934C35.418 16.2678 35.3838 16.4388 35.4094 16.4987C35.4607 16.7211 35.7943 16.4987 35.8371 16.7553C35.7259 16.7211 35.6318 16.7553 35.5719 16.8323C35.8627 16.8665 35.9825 17.106 36.1621 17.2856C36.1022 17.277 36.0509 17.2343 35.9825 17.2856C36.3246 17.4053 36.145 17.7218 36.3503 17.8929L36.1706 17.8587C36.0766 18.235 36.5299 17.8843 36.4786 18.235C36.4187 18.158 36.3588 18.1922 36.2904 18.1922C36.6411 18.4574 36.4786 19.0133 36.4016 19.3298C36.393 19.3041 36.3503 19.287 36.3503 19.287C36.222 19.6291 35.9055 19.843 35.6746 20.1594C35.5206 20.1765 35.4864 19.8259 35.2384 20.0482C35.4094 20.3219 34.7765 20.4246 35.1186 20.6555C34.8107 20.741 34.3232 20.7753 34.1607 20.9292C34.2547 20.7753 33.9212 20.5956 34.1436 20.5016L33.9212 20.3647C33.9126 20.2364 34.1008 20.3647 34.0067 20.2193C33.9041 20.2621 33.6047 20.4673 33.4935 20.4417C33.3225 20.6812 33.2027 21.0746 32.8606 21.1944C32.9974 21.0404 32.6895 20.8693 32.7922 20.7924L32.4329 21.4937C32.3218 21.5365 32.356 21.2542 32.202 21.374C32.2277 21.451 32.1678 21.5194 32.125 21.5964C32.0737 21.5707 31.6546 21.776 31.5434 21.4766C31.4664 21.3654 31.723 21.374 31.5691 21.2884C31.3552 21.3312 31.3638 21.4424 31.15 21.4937V21.451C30.9875 21.4338 30.7394 21.6648 30.9276 21.8016C31.0302 21.7931 30.8506 21.622 31.0217 21.6819C30.9533 21.8786 30.7138 21.9812 30.4999 22.024C30.5684 21.9641 30.5427 21.8786 30.5513 21.7845C30.3032 22.0839 30.0124 22.2122 29.7045 22.3747C29.7216 22.5201 29.7815 22.0839 29.8414 22.1523C29.388 22.024 29.0288 22.5971 28.6268 22.3576C28.6781 22.3234 28.6952 22.5629 28.6781 22.5201C28.4729 22.5372 28.4472 22.3234 28.3275 22.426C28.2932 22.3063 28.1649 22.4944 28.0366 22.5543C27.9853 22.6569 27.9939 22.503 28.1051 22.4688C27.934 22.6056 27.207 22.9221 26.7451 22.8023C26.7622 22.8879 26.5227 23.1445 26.4201 23.153V22.9563C26.326 22.8537 26.0951 23.0247 26.0523 22.8622C25.8727 23.1274 26.8478 22.5458 26.5826 22.7681C26.4885 22.6142 26.2234 23.1359 26.249 22.8622C26.0438 22.8964 25.8813 23.1445 25.6674 22.9905C25.7273 23.0162 25.7957 22.6997 25.6332 22.7339C25.351 22.8109 25.5648 22.8366 25.3424 22.9306L25.2056 23.0333C25.2227 23.2214 24.949 23.0418 25.0773 23.2386C25.026 23.0846 24.6667 23.384 24.6582 23.0675V22.8195C24.547 22.8537 24.4957 23.1017 24.4101 23.23C24.393 23.2129 24.3503 23.1616 24.3503 23.1188C24.3759 23.4951 24.0509 23.1188 23.9397 23.4353C23.666 23.3326 23.2726 23.5037 23.1186 23.2813C22.9304 23.4182 22.7594 23.5721 22.5199 23.5208C22.5627 23.478 22.6225 23.4609 22.6311 23.384C22.4771 23.2899 22.4515 23.384 22.3232 23.4695C22.3488 23.4096 22.0153 23.2813 21.8356 23.1616C21.6475 23.2984 21.733 23.4951 21.7245 23.6234C21.5106 23.2642 21.1771 23.9142 20.9205 23.5978C20.9889 23.5379 21.1942 23.384 21.0231 23.307C20.8093 22.9477 20.681 23.6149 20.3645 23.4609L20.4586 23.7688C20.3132 23.5892 20.0395 23.9827 20.0395 23.6662C19.9454 23.786 19.6803 23.5892 19.7401 23.8886C19.2355 23.6662 18.5598 24.1195 18.2262 23.5892C18.1578 23.6405 17.9782 23.5978 18.021 23.7517C18.1493 23.9142 18.1749 23.6234 18.2262 23.7346C18.1664 23.7432 18.1578 23.8287 18.1493 23.8715C17.9953 23.8116 17.8756 23.7945 18.0039 23.5294C17.6617 23.3497 17.6788 24.0682 17.2341 23.957C17.2512 23.8287 17.217 23.786 17.0887 23.8031L16.8577 24.0254C16.5755 23.9827 16.6952 23.7432 16.6781 23.5294C16.5327 23.5721 16.3446 23.5636 16.2847 23.7261L16.1051 23.4609C16.2419 23.6577 15.9853 23.5892 15.9169 23.6405L15.9853 23.5892C15.9597 23.4951 15.7886 23.555 15.6945 23.5892C15.7116 23.7175 15.8912 23.7774 15.9853 23.8116C15.9083 23.9057 15.7886 23.88 15.686 23.9912C15.7202 23.786 15.4465 23.8458 15.3267 23.8202C15.1899 23.7774 15.1728 24.0083 15.13 23.9998C15.13 23.8886 14.9076 23.9741 15.0188 23.8287C15.0701 23.7945 15.1215 23.9399 15.1984 23.8458C15.1129 23.7603 15.1215 23.5721 14.9333 23.709C14.7879 23.8116 14.959 24.1195 14.6938 23.9827C14.7622 23.9314 14.7793 23.8458 14.8392 23.7774L14.5912 23.6662L14.5741 23.8544C14.5399 23.8031 14.5655 23.786 14.5484 23.7603C14.4714 23.957 14.1635 23.8116 14.0951 24.034C13.9668 24.0511 13.8299 23.8886 13.7102 23.8629L13.7359 23.8458C13.5905 23.7261 13.3937 23.786 13.2654 23.9057V23.8629C13.197 23.8458 13.0003 23.8629 12.8891 23.9656C12.6924 23.8031 12.872 23.2471 12.6325 23.4609C12.4272 23.4524 12.2818 23.7774 12.3503 23.9057C11.991 23.7432 11.5292 24.0169 11.2213 23.6748C11.1614 23.7432 11.187 23.7945 11.0673 23.8287C10.5285 23.6919 9.86986 23.8715 9.50208 23.4353C9.67314 23.384 9.54484 23.2471 9.56195 23.1445C9.39944 23.2899 9.44221 22.9392 9.33957 23.2214C9.32246 23.3925 9.28825 23.478 9.43365 23.5721C9.09153 23.5978 8.59545 23.4866 8.45005 23.2984C8.51847 23.3925 8.44149 23.4353 8.35596 23.4695C8.44149 23.2129 8.21056 23.1188 8.01384 23.1616L7.94541 23.3155L7.86844 23.1188C7.78291 23.153 7.70593 23.4353 7.56908 23.2386C7.56908 23.1701 7.58618 23.1103 7.56908 23.0504C7.3467 23.1359 7.02168 23.2899 6.85917 23.0846L6.76509 22.8023C6.671 22.8023 6.48283 22.8964 6.61113 23.0076C6.31177 22.7596 6.09794 22.674 6.06373 22.4346C5.69595 22.5714 5.2854 22.5629 4.89196 22.4859C4.49852 22.3918 4.13073 22.2207 3.79716 22.0582L3.87414 21.9556C3.74584 21.7674 3.68597 22.1095 3.60044 21.9727C3.71163 21.8957 3.58333 21.6733 3.78005 21.6135C3.59189 21.374 3.36951 21.6477 3.18134 21.6135C3.0787 21.7503 3.36095 21.5878 3.23266 21.7589C3.18134 21.7931 2.9504 21.4681 2.78789 21.6648C2.77079 21.545 2.90764 21.4082 2.98462 21.3398L2.77934 21.3654C2.73658 21.0147 3.44648 21.1259 3.42082 20.7068L3.26687 20.6726C3.26687 20.3818 3.7544 20.5956 3.46359 20.3476C3.26687 20.3904 2.95896 20.6213 3.03593 20.7924C2.6767 20.6641 2.58262 21.22 2.22339 20.9634C2.20628 20.7753 2.53985 21.1345 2.57407 20.9121C2.53985 20.7753 2.44577 20.741 2.34313 20.7239C2.22339 20.6983 2.07799 20.6641 2.01812 20.5614C2.16352 20.7924 1.82995 20.8608 1.65033 20.7582C1.50493 20.4759 1.95824 20.7154 1.66744 20.4246C1.51348 20.4759 1.12859 20.2535 1.30821 20.5614C0.914766 20.6384 1.06017 20.1594 0.700938 20.091C0.829235 19.8857 1.42795 20.1765 1.26544 19.7745C1.09438 19.9542 0.692385 19.4239 0.504217 19.7574C0.470005 19.5607 0.641067 19.4923 0.820682 19.5607C0.837788 19.3212 0.179199 19.0732 0.598301 18.9192L0.350261 18.8679C0.40158 18.7824 0.444345 18.6626 0.546983 18.5343C0.51277 18.3376 0.256177 17.7902 0.606854 17.8672C0.598301 17.833 0.606854 17.7133 0.606854 17.6106C0.615407 17.4909 0.606854 17.3797 0.444345 17.4396C0.410133 17.4738 0.384474 17.5165 0.367367 17.5507C0.29039 17.7646 0.470005 17.8501 0.179199 17.9698C0.358814 17.8415 0.341708 17.6961 0.281836 17.5336C0.26473 17.4396 0.230518 17.3455 0.221965 17.2685H0.358814C0.350261 17.1487 0.487111 16.9178 0.40158 16.7981C0.418686 16.9093 0.529876 16.9007 0.606854 16.8408L0.495664 16.6441C0.700938 16.1908 0.863447 16.7211 1.11149 16.3533C1.07727 16.4645 1.04306 16.5757 1.0174 16.6869C1.03451 16.6099 1.28255 16.6099 1.37663 16.4388C1.28255 16.2678 1.23978 16.0197 1.19702 15.8658C1.36808 15.6348 1.4365 15.9428 1.53914 15.6434C1.47927 15.7631 1.4365 15.8914 1.40229 16.0112C1.40229 16.0796 1.79574 16.0882 2.06943 15.9342C2.20628 15.7888 2.41156 15.4039 2.01812 15.4723C2.18918 15.3868 2.47998 15.3868 2.40301 15.5579C2.75368 15.3526 2.2576 15.4039 2.55696 15.1644C2.805 15.1986 3.12147 15.2842 3.32674 15.4125L3.19844 15.7717L3.34385 15.7289C3.2241 16.0197 3.48925 15.8829 3.45504 16.1566C3.55767 16.1651 3.64321 16.0539 3.72018 15.9599C3.33529 15.6348 3.87414 15.3269 3.69452 14.9848C4.0452 14.7795 4.1735 15.8059 4.41298 15.1302C4.32745 15.0532 4.43864 14.7282 4.22482 14.8907C4.47286 14.8736 4.29324 14.4802 4.60971 14.5572C4.43864 14.7624 4.92617 14.8736 4.67813 15.1644C4.66958 15.0361 4.48996 15.1131 4.45575 15.1644C4.5926 15.2756 4.53273 15.5408 4.77221 15.4723C4.90906 15.4039 5.10578 15.344 5.02881 15.1644C4.96894 14.9592 4.80643 15.2414 4.84919 15.0105C5.12289 14.8651 5.25119 15.173 5.2854 14.771C5.10579 14.848 5.00315 14.6427 4.97749 14.4973L5.17421 14.3519V14.5058C5.54199 14.5229 5.20842 14.2236 5.5591 14.1894L5.78148 14.4289C5.75582 14.6855 5.26829 14.4289 5.4137 14.8052C5.63608 14.771 5.66174 14.5572 5.89267 14.6085C5.85846 14.6512 5.79003 14.6769 5.75582 14.7197C5.84135 14.7197 6.02952 15.2072 6.27756 14.8394C6.41441 14.6855 6.29467 14.694 6.26045 14.5486C6.60258 14.4289 6.67956 14.2578 6.90194 14.1894C6.91049 14.4802 7.31248 14.1381 7.11576 14.4802C6.97036 14.3348 6.45717 14.4545 6.38875 14.7539C6.58547 15.0618 6.1065 14.7624 6.09794 15.1217C6.3802 15.0703 6.44007 15.4039 6.5256 15.6092C6.60258 15.6092 6.66245 15.498 6.69666 15.4552C6.68811 15.2414 6.58547 15.2671 6.53415 15.0618C6.85917 15.0532 7.13287 14.8822 7.26972 14.6427C7.39802 14.7197 7.39802 14.9335 7.27827 14.9763C7.6375 14.8394 8.04805 14.8052 8.40728 14.8052C8.12503 14.5058 8.79217 14.6598 8.5869 14.4118C8.38162 14.369 8.17635 14.1552 8.26188 13.9841C8.39017 13.9841 8.27898 14.1295 8.34741 14.1979C8.47571 13.9927 8.62966 14.4545 8.74085 14.1381C8.41583 14.3006 8.74085 14.5572 8.71519 14.8309C8.93757 14.6427 8.7323 15.019 8.97179 14.9848C9.19417 14.8052 9.47642 14.6427 9.75012 14.5486C10.1265 14.7539 10.6225 14.446 10.9304 14.4032C11.1015 14.5229 11.0245 14.8309 11.2041 14.8651C11.4094 14.8394 11.0245 14.5572 11.341 14.6683L11.3153 14.7282C11.4009 14.6512 11.8884 14.8822 11.9397 14.446L11.8713 14.7795C11.9312 14.8052 11.9739 14.7282 12.0167 14.6855C12.0252 14.7881 12.1022 14.8822 12.0167 14.9592C12.222 15.173 12.4016 14.8907 12.6069 14.8736L12.4615 14.6855C12.8036 14.5144 13.0431 14.6855 13.3766 14.6085V14.7966L13.5734 14.6769C13.5306 14.8651 13.7188 14.9763 13.8214 14.8137L13.3253 15.3013C13.1799 15.1986 13.4707 15.0618 13.3766 14.8822C13.2911 14.7197 12.9832 14.7881 12.949 14.9763C13.0687 14.9934 13.0687 14.9506 13.1628 14.8736C13.2141 15.1388 13.0345 15.1388 12.9575 15.3184C13.0174 15.3013 13.1115 15.3783 13.12 15.2927C13.0089 15.4296 12.8891 15.4552 12.6838 15.4723C12.8121 15.3611 12.5983 15.3098 12.6496 15.2329C12.6496 15.4638 12.4615 15.5493 12.2134 15.5065C12.0167 15.25 11.7601 15.7118 11.4693 15.6691C11.5634 15.421 11.6917 15.2243 11.8627 15.1131C11.6746 15.0105 11.6575 15.1388 11.4693 15.0361C11.4009 15.2157 11.3581 15.4894 11.1357 15.6177L11.1015 15.4467C10.8962 15.5579 10.9219 15.8145 10.6482 15.7974C10.1778 15.7631 9.70735 15.823 9.34812 15.8572L9.31391 15.6862C9.16851 16.0796 8.68098 15.9257 8.45005 16.1224C7.97963 16.0368 7.51776 16.4559 7.23551 16.2079C6.48283 16.4987 5.8328 16.7724 5.02025 16.9178L5.08868 16.6356C4.9946 16.8494 4.96038 16.5158 4.82353 16.5928C5.03736 16.7467 4.69524 16.9007 4.63536 17.0718C4.24192 16.9777 3.80571 17.3198 3.60899 17.5678L3.54912 17.4053C3.50636 17.7646 3.2241 17.5593 2.95896 17.6876C2.87343 17.6534 2.68526 17.585 2.64249 17.6534C2.81355 17.91 2.77079 17.9527 2.89909 18.1495L2.91619 18.1666C2.88198 18.2692 2.805 18.4403 2.73658 18.5942C3.05304 18.7824 3.21555 18.8679 3.37806 18.9877C3.54057 19.1074 3.96822 19.3469 4.41298 19.4324L4.37877 19.6463C5.32817 19.6463 6.15782 20.3989 6.93615 20.4246L6.75653 20.7325C6.9447 20.9036 7.29538 20.8009 7.31248 20.5529C7.50065 20.7239 7.9112 20.5614 7.97963 20.8693C8.19345 20.9891 8.30464 20.7838 8.50137 20.7924C8.92902 21.049 9.11719 21.0319 9.5705 21.0746L9.46787 21.0319C9.40799 21.1003 9.36523 21.2371 9.46787 21.2884C9.64748 21.2371 10.058 21.5023 9.9725 21.0575C10.4087 21.374 11.1015 21.0575 11.5292 21.4253C11.5035 21.3056 11.6232 21.297 11.6831 21.2286C12.1022 21.2799 12.5299 21.5365 12.8806 21.3825C12.9404 21.4424 12.7608 21.5621 12.9319 21.5964C13.0345 21.5621 12.949 21.451 13.0773 21.3911C13.7786 21.2286 14.4629 21.6819 15.1044 21.6391C16.2334 21.4338 17.4051 21.5108 18.4914 21.4167V21.5023C18.825 21.1602 19.3638 21.776 19.6204 21.2713C19.7145 21.3398 19.954 21.2799 19.9026 21.451C20.1763 21.2029 20.7323 21.5964 21.1343 21.2713C21.0915 21.2713 21.0744 21.2884 21.0317 21.3227C21.4764 21.4681 21.8271 21.1773 22.289 21.297C22.2462 21.3398 22.1692 21.374 22.1607 21.4595C22.3488 21.6049 22.537 21.0661 22.6739 21.4595C22.7765 21.4424 22.7252 21.2542 22.6653 21.2713C23.666 21.3227 24.6838 20.9378 25.6931 20.6983C26.4543 20.8351 25.8385 21.3654 26.3688 20.9805C26.4287 21.049 26.3773 20.8266 26.403 20.9036C26.6083 20.7582 26.8136 21.297 26.9418 21.0661C26.8392 20.8351 27.0274 20.9121 27.0017 20.7667C27.4721 20.8522 27.6004 21.0575 27.9169 20.818V20.9549C28.2676 20.5272 28.7722 20.6384 29.0459 20.1594C30.1664 19.92 31.2612 19.6291 32.3303 19.3212L33.1343 19.0903C33.3652 19.0219 33.5876 18.9449 33.7758 18.8679C33.9639 18.7909 34.135 18.7054 34.2547 18.6199C34.3146 18.5771 34.3659 18.5429 34.4002 18.5087C34.4258 18.483 34.4087 18.4916 34.4173 18.483C34.4429 18.483 34.4515 18.4574 34.4515 18.4403C34.4515 18.4659 34.4173 18.3462 34.3403 18.2179C34.2633 18.0896 34.1521 17.9356 34.0238 17.7646C33.4337 17.0461 32.7665 16.3875 32.0138 15.7289C31.8257 15.1815 31.7744 15.1644 31.2612 15.0105C31.3039 14.9763 31.3467 14.9763 31.3381 14.9164C31.1756 15.1473 30.996 14.7539 30.825 14.9677C30.192 14.5657 29.5163 14.3519 28.7808 14.0953C28.9091 14.1124 29.0459 13.9157 28.9005 13.8815L28.6952 14.0012V13.9157C28.5926 13.9157 28.4386 14.0183 28.5071 14.1381C27.5406 13.9413 26.6254 13.642 25.6589 13.3854C24.6924 13.1288 23.6917 12.9235 22.6739 12.915C22.1949 12.7781 21.4935 12.8722 20.9632 12.9321C19.3809 12.5643 17.9012 12.3419 16.259 12.6926C16.259 12.6926 16.4386 11.957 17.1058 11.7517L17.1913 11.709Z" fill="#C16A5E"/>
<path id="Vector_15" d="M14.1636 15.3783C14.1038 15.2415 13.907 15.1645 14.0524 14.9763C14.0781 15.1046 14.1807 15.25 14.1636 15.3783Z" fill="#C16A5E"/>
<path id="Vector_16" d="M8.95469 14.4031C8.95469 14.4031 8.86916 14.3604 8.85205 14.3347C8.91192 14.3176 8.95469 14.1893 9.01456 14.2577C8.95469 14.2748 8.97179 14.3433 8.95469 14.4031Z" fill="#C16A5E"/>
<path id="Vector_17" d="M7.62891 14.5401C7.62891 14.4118 7.8855 14.2664 8.05656 14.2236L7.62891 14.5401Z" fill="#C16A5E"/>
<path id="Vector_18" d="M6.31153 14.2748C6.18323 14.1978 6.20034 14.1294 6.34574 14.1038C6.3714 14.1636 6.32864 14.2064 6.31153 14.2748Z" fill="#C16A5E"/>
<path id="Vector_19" d="M6.27732 14.5742C6.17468 14.5998 6.11481 14.5399 6.04639 14.4801C6.07205 14.5827 6.26877 14.3603 6.27732 14.5742Z" fill="#C16A5E"/>
<path id="Vector_20" d="M3.55763 14.8737C3.49776 14.8994 3.38656 15.0362 3.29248 14.925C3.38656 15.002 3.55763 14.6855 3.55763 14.8737Z" fill="#C16A5E"/>
<path id="Vector_21" d="M1.99257 15.6605C1.92414 15.6861 1.88993 15.6861 1.84716 15.7546C1.70176 15.7802 1.75308 15.6348 1.84716 15.5664L2.00112 15.6605H1.99257Z" fill="#C16A5E"/>
<path id="Vector_22" d="M20.7064 23.6319L20.5781 23.7003L20.5867 23.5806L20.7064 23.6319Z" fill="#C16A5E"/>
<path id="Vector_23" d="M30.4316 22.2978C30.5514 22.1952 30.5428 22.3919 30.5685 22.409C30.4487 22.4432 30.5856 22.2465 30.4316 22.2978Z" fill="#C16A5E"/>
<path id="Vector_24" d="M35.4777 20.3305L35.4349 20.3562L35.3237 20.1338L35.4777 20.3305Z" fill="#C16A5E"/>
</g>
<g id="Group_4">
<path id="Vector_25" d="M15.0699 2.02709C15.0699 2.02709 14.9587 1.92446 15.0699 1.98433C15.0956 2.02709 15.1212 2.06131 15.0699 2.02709Z" fill="#C16A5E"/>
<path id="Vector_26" d="M16.8148 0.752568C17.0542 0.102532 17.3023 0.778227 17.5589 0.376231C17.5845 0.350572 17.5332 0.735461 17.5931 0.64993C17.8497 0.162404 18.2089 0.495975 18.4056 0.92363L18.3714 1.01771C18.4056 1.09469 18.5254 0.778227 18.5681 0.838099C18.5596 0.906523 18.5339 0.932183 18.5339 1.01771C18.5853 0.820992 18.6451 0.940736 18.6964 0.803886C18.6964 0.889417 18.6708 1.04337 18.6708 1.13746L18.7478 0.915076C18.953 0.40189 18.9445 1.00061 19.1241 0.752568C19.107 0.803886 19.0813 0.838098 19.0728 0.889417C19.3465 0.624271 19.5689 0.761121 19.8255 0.744014C19.7827 0.812439 19.7143 0.949289 19.6886 1.03482C19.7998 0.812439 19.8853 0.795333 19.9623 0.778227C19.8768 1.00916 20.159 0.615718 20.1676 0.778227L20.1334 0.820992C20.313 0.624271 20.1334 0.992054 20.3301 0.744014L20.2617 0.932183C20.4669 0.64993 20.2274 1.1289 20.3643 1.00061L20.4071 0.940736C20.4926 0.889417 20.4071 1.05193 20.4755 1.02627L20.4584 1.06048C20.5867 1.04337 20.5097 1.23154 20.6722 1.00916C20.561 1.20588 20.5439 1.03482 20.39 1.31707C20.792 1.26575 20.9972 1.53945 21.1768 1.77039C21.1084 1.86447 21.0913 1.89868 21.0143 1.96711C21.0742 1.95855 21.117 2.01843 21.2453 1.96711C21.2367 1.96711 21.1426 2.06119 21.1341 2.0783C21.0742 2.17238 21.4163 1.96711 21.3479 2.0783C21.2709 2.0954 21.1939 2.13817 21.1084 2.19804C21.3222 2.12962 21.3222 2.19804 21.4078 2.2237C21.365 2.24081 21.3308 2.24081 21.2538 2.28357C21.5019 2.23225 21.2624 2.40332 21.4249 2.39476L21.2709 2.44608C21.1341 2.60004 21.5874 2.33489 21.5104 2.44608C21.4591 2.44608 21.3992 2.48029 21.3394 2.4974C21.6387 2.45463 21.5874 2.60859 21.7071 2.65136C21.6815 2.65136 21.6473 2.66846 21.6473 2.66846C21.7071 2.73689 21.6387 2.84808 21.7841 2.9165C21.7157 2.95927 21.3992 2.97637 21.4676 3.0448C21.7841 2.99348 21.613 3.17309 21.9637 3.07901C21.9295 3.17309 21.8012 3.30139 21.9124 3.35271C21.7927 3.3185 21.5275 3.38692 21.4933 3.32705L21.3051 3.36982C21.1768 3.36982 21.3479 3.32705 21.1854 3.34416C21.2025 3.36982 21.3222 3.44679 21.2709 3.4639C21.4591 3.52377 21.8183 3.61786 21.8354 3.72905C21.7242 3.66062 21.4848 3.69483 21.442 3.65207C21.6387 3.72905 21.8269 3.81458 22.015 3.90866C22.015 3.95143 21.767 3.85734 21.8354 3.92577C21.921 3.94287 21.9637 3.97709 22.0236 4.0113C21.9894 4.0113 22.0493 4.19091 21.7499 4.09683C21.6302 4.07117 21.7071 4.01985 21.5874 4.01985C21.5703 4.07972 21.6644 4.11394 21.6473 4.17381L21.6045 4.1567C21.5446 4.17381 21.6815 4.31921 21.8525 4.35342C21.8782 4.32776 21.6729 4.285 21.7756 4.285C21.9295 4.38764 21.9381 4.49027 21.9039 4.55014C21.8696 4.50738 21.7927 4.46461 21.7242 4.42185C21.8953 4.61857 21.9124 4.75542 21.9295 4.90082C22.0493 4.98635 21.7328 4.71265 21.8012 4.74687C21.5617 4.74687 21.8696 5.15741 21.5532 5.05478C21.5532 5.02056 21.7157 5.18307 21.69 5.15741C21.6302 5.20018 21.4762 5.05478 21.5019 5.14031C21.4078 5.05478 21.5019 5.20873 21.4933 5.26005C21.5446 5.33703 21.442 5.22584 21.4591 5.19163C21.5019 5.31137 21.4334 5.63639 21.2025 5.57652C21.2538 5.63639 21.3137 5.87587 21.2795 5.88443L21.1768 5.72192C21.0828 5.64494 21.0999 5.7989 20.9972 5.66205C21.0828 5.89298 21.0913 5.34558 21.1255 5.55086C21.0143 5.43111 21.2025 5.87587 21.0657 5.65349C21.0229 5.69626 21.0828 5.91864 20.9374 5.7989C20.9716 5.816 20.8347 5.5423 20.8005 5.58507C20.7492 5.66205 20.8262 5.67915 20.8005 5.77324V5.86732C20.8946 6.03838 20.715 5.88443 20.8518 6.05549C20.7663 5.92719 20.7748 6.20089 20.638 5.91864L20.5354 5.69626C20.5354 5.69626 20.6038 5.96141 20.6209 6.0726C20.6038 6.05549 20.5781 6.01272 20.561 5.97851C20.7235 6.32919 20.4669 5.98707 20.5439 6.27787C20.4156 6.19234 20.3386 6.35485 20.2189 6.14102C20.2018 6.26932 20.1847 6.42327 20.0906 6.3634C20.0906 6.32919 20.1077 6.31208 20.0906 6.22655C20.0136 6.13247 20.0393 6.22655 20.0136 6.30353C20.0136 6.24366 19.8682 6.11536 19.7827 5.99562C19.757 6.12391 19.8255 6.31208 19.8511 6.44038C19.7057 6.0897 19.7228 6.71408 19.586 6.39761C19.5945 6.33774 19.6373 6.20089 19.5689 6.11536C19.4491 5.75613 19.509 6.40617 19.3892 6.24366L19.4577 6.55157C19.3892 6.3634 19.3465 6.74829 19.3123 6.43183C19.2952 6.54302 19.1925 6.33774 19.2353 6.6371C19.0557 6.39761 18.859 6.81672 18.7649 6.26932C18.7478 6.32064 18.6964 6.26932 18.705 6.42327C18.7392 6.59434 18.7563 6.30353 18.7649 6.42327C18.7478 6.43183 18.7392 6.51736 18.7392 6.56012C18.6964 6.4917 18.6622 6.46604 18.705 6.218C18.6195 6.02983 18.5938 6.73118 18.4655 6.61144C18.4826 6.48314 18.4655 6.44038 18.4313 6.45749L18.3458 6.67131C18.2688 6.61144 18.3201 6.38051 18.3458 6.16668C18.303 6.20089 18.2517 6.18379 18.2175 6.33774L18.2004 6.06404C18.2175 6.26076 18.149 6.18379 18.1234 6.23511L18.149 6.18379C18.149 6.09826 18.0977 6.14102 18.0721 6.16668C18.055 6.29498 18.0977 6.35485 18.1234 6.39761C18.0892 6.4917 18.055 6.46604 18.0122 6.56868C18.0464 6.3634 17.9609 6.41472 17.9352 6.38051C17.901 6.32919 17.8668 6.56012 17.8497 6.55157C17.8668 6.44038 17.7898 6.52591 17.8497 6.38051C17.8668 6.3463 17.8582 6.4917 17.901 6.39761C17.8925 6.31208 17.9181 6.13247 17.8497 6.25221C17.7898 6.3463 17.7898 6.66276 17.7385 6.51736C17.7642 6.46604 17.7898 6.38906 17.8155 6.32064L17.7642 6.20089L17.7299 6.38906C17.7299 6.33774 17.7385 6.32919 17.7385 6.29498C17.6786 6.4917 17.6273 6.33774 17.5589 6.55157C17.5161 6.56012 17.5161 6.40617 17.4819 6.38051V6.3634C17.4819 6.24366 17.4049 6.30353 17.3451 6.42327V6.38051C17.3451 6.38051 17.2852 6.38051 17.2253 6.47459C17.2082 6.32064 17.3878 5.77324 17.2681 5.98706C17.2168 5.98706 17.097 6.30353 17.0885 6.42327C17.0286 6.26932 16.8319 6.54302 16.8233 6.22655C16.7891 6.29498 16.7805 6.3463 16.7378 6.38051C16.618 6.26932 16.37 6.50025 16.3871 6.10681C16.4555 6.04694 16.4555 5.92719 16.4897 5.82456C16.4042 5.97851 16.5068 5.64494 16.4042 5.91864C16.3529 6.08115 16.3187 6.15813 16.3358 6.23511C16.2246 6.29498 16.1049 6.25221 16.1134 6.08115C16.1134 6.16668 16.0706 6.20945 16.0364 6.25221C16.1391 5.99562 16.0963 5.93575 16.0193 6.01272L15.9594 6.16668L15.9937 5.99562C15.9595 6.03838 15.8568 6.32064 15.8654 6.14957C15.8825 6.0897 15.9081 6.02983 15.9167 5.97851C15.8226 6.0897 15.6772 6.28642 15.6858 6.13247L15.7371 5.89298C15.7371 5.89298 15.6173 6.03838 15.6344 6.11536C15.6088 5.9443 15.566 5.91009 15.6173 5.70481C15.3009 6.13247 15.0785 6.0726 14.916 5.96141L14.9673 5.85022C14.9673 5.72192 14.8561 6.03838 14.8561 5.9443C14.916 5.84166 14.9245 5.68771 15.0186 5.56796C15.0015 5.41401 14.8475 5.73047 14.7791 5.76468C14.7021 5.91009 14.8561 5.68771 14.762 5.86732C14.7278 5.91864 14.7193 5.70481 14.5995 5.92719C14.6252 5.83311 14.7107 5.6706 14.762 5.58507L14.6679 5.6706C14.7449 5.38835 15.0015 5.2515 15.0956 4.90082L15.0443 4.91793C15.1212 4.66989 15.2581 4.69555 15.2068 4.5758C15.1212 4.66989 14.9331 4.9778 14.916 5.09754C14.8048 5.1232 14.6252 5.61073 14.5311 5.55086C14.5738 5.40545 14.6252 5.55086 14.6936 5.36269C14.7364 5.15741 14.5567 5.42256 14.5482 5.33703C14.5482 5.43967 14.3942 5.64494 14.3429 5.6706C14.3429 5.5423 14.4883 5.48243 14.4284 5.42256C14.3515 5.5423 14.2317 5.60218 14.2403 5.72192C14.0607 5.99562 14.2061 5.60218 14.0436 5.7989C14.1376 5.58507 14.3771 5.37979 14.36 5.23439C14.2659 5.43111 14.112 5.43967 13.9837 5.73903C13.9837 5.66205 14.0692 5.51664 14.1633 5.41401C14.189 5.2686 13.8383 5.68771 14.0607 5.31137L13.9238 5.49099C13.9495 5.42256 13.958 5.36269 14.0008 5.24295C13.9666 5.21729 13.6929 5.40545 13.8982 5.13175C13.8639 5.14886 13.787 5.07188 13.6758 5.28571C13.6501 5.44822 13.8468 5.19163 13.6929 5.48243C13.8041 5.24295 13.5902 5.44822 13.4962 5.48243L13.5731 5.37124C13.5218 5.3969 13.4876 5.33703 13.385 5.43111C13.4448 5.38835 13.4962 5.31137 13.4962 5.2686L13.3508 5.40545C13.1968 5.40545 13.556 5.11465 13.4363 5.09754L13.5988 5.02912C13.5988 5.02912 13.6587 4.88371 13.5817 4.89227C13.4448 5.02056 13.2738 5.14886 13.1626 5.24295C13.0599 5.2515 13.2823 5.07188 13.1027 5.16597L13.3165 5.06333C13.3679 5.02912 13.4876 4.80674 13.4277 4.75542C13.3508 4.76397 13.0942 4.88372 13.0856 5.01201C13.0514 4.9778 13.0856 4.85806 13.2139 4.79818C13.1027 4.77252 13.0771 4.94359 12.9317 4.95214C13.0001 4.84095 13.0599 4.64423 13.1626 4.49027L13.4534 4.36198L13.4277 4.31921C13.6587 4.21657 13.556 4.18236 13.7784 4.04551C13.7955 3.99419 13.7014 4.0284 13.633 4.04551C13.3593 4.37053 13.1113 4.285 12.8119 4.51593C12.6237 4.42185 13.5304 3.94287 12.9488 4.11394C12.8803 4.18236 12.5895 4.25934 12.7349 4.29355C12.7178 4.18236 12.3671 4.41329 12.4441 4.22513C12.6237 4.23368 12.7435 3.96853 13.0001 3.97709C12.8889 4.02841 12.9488 4.07972 12.9915 4.07972C13.1027 3.97709 13.3251 3.90011 13.2909 3.83168C13.231 3.80602 13.2054 3.7376 13.0257 3.83168C12.829 3.92577 13.0771 3.90011 12.8718 3.95998C12.752 3.883 13.0514 3.7376 12.6836 3.84024C12.7435 3.90011 12.5468 4.0113 12.4099 4.07117L12.2902 4.0113L12.427 3.97709C12.4612 3.78892 12.1704 4.0284 12.1533 3.8659L12.4014 3.70339C12.6408 3.66062 12.3586 3.95143 12.7264 3.78036C12.7178 3.68628 12.5211 3.72905 12.5895 3.6093C12.6237 3.6093 12.6408 3.63496 12.6836 3.64352C12.6836 3.60075 13.1711 3.42113 12.8632 3.39548C12.7349 3.36982 12.7264 3.41258 12.581 3.45535C12.504 3.32705 12.35 3.30994 12.3244 3.20731C12.6152 3.17309 12.3415 3.02769 12.6408 3.08756C12.4698 3.15599 12.5126 3.37837 12.7948 3.36126C13.1198 3.22441 12.7691 3.48101 13.1027 3.40403C13.0942 3.30139 13.4277 3.22441 13.633 3.14744C13.6416 3.12178 13.5475 3.12178 13.5133 3.12178C13.308 3.15599 13.3165 3.1902 13.1027 3.24152C13.1369 3.12178 13.0257 3.0448 12.8205 3.01059C12.9231 2.95927 13.1284 2.94216 13.154 2.98493C13.0942 2.86518 13.1284 2.71978 13.2225 2.60859C12.8632 2.68557 13.1626 2.47174 12.8718 2.51451C12.7862 2.58293 12.5297 2.65136 12.3757 2.60004C12.4014 2.54872 12.5297 2.60004 12.6066 2.58293C12.427 2.51451 12.9231 2.4974 12.6408 2.42898C12.7178 2.57438 13.0514 2.48029 13.3165 2.51451C13.1882 2.42898 13.5047 2.53161 13.5304 2.45463C13.4021 2.3691 13.3165 2.25791 13.2909 2.16383C13.5817 2.11251 13.4277 1.90724 13.4791 1.8046C13.6416 1.8046 13.9067 1.95 13.9837 1.94145C14.0179 1.89868 13.6501 1.83881 13.8383 1.83026L13.8896 1.86447C13.8468 1.8046 14.189 1.84736 13.8212 1.61643L14.0949 1.8046C14.0949 1.8046 14.0778 1.76183 14.0607 1.73617C14.1547 1.78749 14.2574 1.83026 14.3001 1.88158C14.5225 1.96711 14.3515 1.81315 14.3942 1.77894L14.1975 1.68486C14.1547 1.5309 14.3771 1.63354 14.4113 1.55656L14.5567 1.69341L14.5225 1.59932C14.6508 1.73617 14.7877 1.82171 14.7021 1.70196C14.7962 1.84736 14.7791 1.86447 14.8475 1.95855C14.7535 1.90724 14.7791 1.85592 14.6337 1.74473C14.4883 1.63354 14.4456 1.70196 14.5824 1.82171C14.6252 1.82171 14.5995 1.8046 14.5653 1.75328C14.762 1.90724 14.685 1.89013 14.7706 1.97566C14.7706 1.97566 14.839 2.00132 14.7962 1.95855C14.8475 2.02698 14.8304 2.03553 14.8048 2.05264C14.7706 2.00132 14.6936 1.98421 14.6594 1.95C14.7962 2.05264 14.8133 2.0954 14.7278 2.0954C14.514 2.00987 14.7706 2.20659 14.6936 2.21515C14.5311 2.12106 14.4199 2.02698 14.3857 1.96711C14.2574 1.94145 14.36 2.00132 14.2232 1.98421C14.3515 2.06974 14.5311 2.16383 14.591 2.2237L14.4541 2.17238C14.4969 2.23225 14.7021 2.30068 14.6337 2.32634C14.5225 2.3691 14.4798 2.44608 14.437 2.4974L14.283 2.48029C14.5995 2.54872 14.3686 2.60859 14.514 2.65136C14.3429 2.73689 14.6508 2.78821 14.3686 2.86518C14.4969 2.98493 14.6423 3.02769 14.6423 3.16454L14.4113 3.25863C14.591 3.19875 14.2916 3.34416 14.3344 3.35271C14.4969 3.22441 14.5824 3.25863 14.7193 3.1902C14.5824 3.3356 14.8048 3.28429 14.9587 3.1902L14.8304 3.30139C15.1041 3.12178 14.9245 3.34416 14.9416 3.43824C14.8989 3.49811 14.8048 3.62641 14.8304 3.62641C15.0443 3.43824 15.0443 3.4639 15.1897 3.35271C15.2153 3.37837 15.2324 3.4639 15.2153 3.58364C15.5575 3.3356 15.5831 3.62641 15.8654 3.49811L15.7969 3.68628C16.1391 3.36126 16.2246 3.81458 16.4897 3.68628L16.3443 4.00275C16.3614 4.12249 16.5068 3.96853 16.5753 3.72905C16.5924 3.84879 16.772 3.62641 16.7036 3.90011C16.7378 3.97709 16.8233 3.77181 16.8917 3.74615C16.9516 3.90866 17.0029 3.90011 17.1312 3.87445L17.1141 3.84879C17.0799 3.91721 17.0286 4.05406 17.0457 4.08828C17.1141 4.0113 17.1569 4.22513 17.251 3.81458C17.2852 4.07972 17.5503 3.71194 17.5589 4.04551C17.5845 3.93432 17.6102 3.91721 17.6444 3.84879C17.7299 3.8659 17.7642 4.12249 17.8839 3.95143C17.8839 4.0113 17.8155 4.13104 17.8497 4.1567C17.8839 4.12249 17.8839 4.0113 17.9267 3.95998C18.1063 3.78892 18.149 4.23368 18.2859 4.19947C18.5339 4.01985 18.7135 4.1396 18.8932 4.09683V4.18236C18.9359 3.8659 19.0557 4.49883 19.0471 4.01985C19.0642 4.09683 19.0984 4.05406 19.107 4.21657C19.107 3.98564 19.2609 4.40474 19.2695 4.11394C19.2695 4.11394 19.2695 4.12249 19.2695 4.16525C19.3721 4.33632 19.3636 4.07117 19.4748 4.21657C19.4748 4.25079 19.4748 4.285 19.5004 4.36198C19.5774 4.50738 19.4491 4.00275 19.5945 4.37908C19.6116 4.37053 19.5346 4.18236 19.5346 4.19947C19.7399 4.29355 19.7827 3.98564 19.8255 3.84024C20.0393 3.98564 20.2274 4.38764 20.1163 4.09683C20.1676 4.1567 20.0222 3.96853 20.082 4.03696C20.0307 3.93432 20.4071 4.35342 20.2873 4.17381C20.1163 3.99419 20.2103 4.06262 20.1077 3.94287C20.2617 4.02841 20.4327 4.16525 20.3301 4.00275L20.4242 4.09683C20.1932 3.80602 20.39 3.883 20.0564 3.6093C20.0906 3.39548 19.8426 3.3356 19.7827 3.27573C19.8255 3.13033 19.5774 3.0448 19.5432 2.71978C19.7228 2.42042 19.7057 2.41187 19.5603 2.48029C19.5945 2.43753 19.6116 2.42898 19.6373 2.38621C19.4662 2.60859 19.5774 2.3691 19.4149 2.58293C19.355 2.48029 19.2609 2.51451 19.1412 2.46319C19.1669 2.44608 19.2781 2.24081 19.2438 2.24936L19.1498 2.40332L19.1754 2.32634C19.1754 2.32634 19.0728 2.48029 19.0471 2.56582C18.7135 2.67702 18.5083 2.05264 18.055 2.06119C17.9694 1.9329 17.8069 2.02698 17.6872 2.06975C17.3707 1.66775 17.0286 1.35984 16.618 1.60788C16.618 1.60788 16.6865 0.880864 16.8661 0.718355L16.8148 0.752568Z" fill="#C16A5E"/>
<path id="Vector_27" d="M15.0273 2.03558C14.9589 1.96716 14.8819 1.93294 14.8306 1.84741C14.8904 1.90728 14.976 1.98426 15.0273 2.03558Z" fill="#C16A5E"/>
<path id="Vector_28" d="M12.9573 2.45463C12.9573 2.45463 12.8975 2.48029 12.8718 2.48029C12.8718 2.45463 12.7521 2.42042 12.829 2.41187C12.829 2.43752 12.8975 2.43752 12.9573 2.45463Z" fill="#C16A5E"/>
<path id="Vector_29" d="M12.8032 2.94206C12.6749 2.94206 12.5808 2.83942 12.5723 2.771C12.6492 2.83087 12.7262 2.89074 12.8032 2.94206Z" fill="#C16A5E"/>
<path id="Vector_30" d="M12.3417 3.54077C12.2476 3.61775 12.1878 3.61775 12.1792 3.54932C12.2391 3.53222 12.2818 3.54932 12.3417 3.54077Z" fill="#C16A5E"/>
<path id="Vector_31" d="M12.6236 3.49805C12.6236 3.49805 12.5638 3.57502 12.5039 3.61779C12.6065 3.58358 12.4184 3.54081 12.6236 3.49805Z" fill="#C16A5E"/>
<path id="Vector_32" d="M12.7691 4.69556C12.7691 4.69556 12.9145 4.69556 12.8204 4.80675C12.8803 4.72122 12.6066 4.78964 12.7691 4.69556Z" fill="#C16A5E"/>
<path id="Vector_33" d="M13.265 4.98633C13.265 4.98633 13.265 5.02054 13.2992 5.01199C13.2821 5.07186 13.1966 5.11462 13.1709 5.10607L13.2735 4.98633H13.265Z" fill="#C16A5E"/>
<path id="Vector_34" d="M19.5345 6.47467L19.5003 6.53454L19.4917 6.41479L19.5345 6.47467Z" fill="#C16A5E"/>
<path id="Vector_35" d="M22.1263 4.73834C22.0835 4.66137 22.246 4.764 22.2631 4.764C22.2546 4.80677 22.1348 4.67847 22.1263 4.73834Z" fill="#C16A5E"/>
<path id="Vector_36" d="M21.8354 2.99341L21.844 3.01051L21.5874 3.04473L21.8354 2.99341Z" fill="#C16A5E"/>
</g>
</g>
</g>
</g>
<defs>
<clipPath id="clip0_413_400">
<rect width="36.5217" height="24" fill="white" transform="translate(0.239258)"/>
</clipPath>
</defs>
</svg>
